<svg width="260" height="257" viewBox="0 0 260 257" fill="none" xmlns="http://www.w3.org/2000/svg">
<path fill-rule="evenodd" clip-rule="evenodd" d="M190.779 155.405L187.439 239.608C187.439 239.608 119.319 235.308 89.1107 232.738L96.3196 160.704L67.9132 174.305L46.9731 135.385C46.9731 135.385 107.594 83.6709 161.243 95.7128L161.447 96.0516C202.57 107.222 226.466 124.789 232.451 131.17L207.692 163.081L190.779 155.405Z" fill="#244156"/>
<path d="M186.484 251.392L182.611 206.333L98.7009 218.213L92.6399 251.392H186.484Z" fill="black"/>
<path d="M186.474 251.929H92.6937C92.6143 251.928 92.5361 251.91 92.464 251.877C92.3919 251.843 92.3276 251.795 92.2752 251.735C92.2257 251.675 92.1904 251.603 92.1719 251.527C92.1533 251.452 92.152 251.372 92.168 251.295L98.229 218.116C98.2497 218.005 98.304 217.903 98.3847 217.825C98.4654 217.746 98.5683 217.694 98.6795 217.676L182.589 205.849C182.734 205.83 182.881 205.869 182.997 205.956C183.054 206.002 183.101 206.059 183.134 206.124C183.167 206.189 183.186 206.26 183.19 206.333L187.064 251.392C187.071 251.466 187.062 251.54 187.038 251.61C187.014 251.681 186.975 251.746 186.924 251.8C186.863 251.854 186.791 251.893 186.713 251.915C186.635 251.938 186.553 251.943 186.474 251.929ZM93.2728 250.854H185.894L182.129 206.946L99.1301 218.686L93.2728 250.854Z" fill="black"/>
<path d="M159.279 40.5587C154.216 35.7528 148.455 34.6132 141.976 33.0327C139.455 32.3984 137.545 30.947 134.864 30.6889C132.181 30.4309 128.921 30.474 126.689 32.0759C123.838 34.3351 121.479 37.1563 119.759 40.3651C118.074 43.7116 116.819 47.2593 116.026 50.9229L113.881 58.9541C113.18 61.4287 112.621 63.9414 112.207 66.48C111.671 70.1892 111.327 74.995 112.626 78.6183C113.827 81.9724 117.195 82.263 120.349 82.7363C129.64 84.1553 139.391 84.2631 148.455 81.521C164.546 76.6292 172.463 56.0727 161.06 42.4939C160.502 41.8166 159.908 41.1706 159.279 40.5587Z" fill="black"/>
<path d="M132.525 84.2521C128.434 84.2311 124.349 83.9046 120.306 83.2735L119.737 83.1876C116.766 82.7463 113.398 82.252 112.164 78.801C111.091 75.8014 110.941 71.7482 111.714 66.4048C112.134 63.8346 112.697 61.2899 113.398 58.7821L115.543 50.7401C116.351 47.0306 117.627 43.4394 119.34 40.0533C121.095 36.7748 123.506 33.8944 126.421 31.5921C128.341 30.2159 131.13 29.7321 134.949 30.1084C136.46 30.3158 137.93 30.7583 139.305 31.42C140.221 31.8554 141.172 32.215 142.147 32.4952L143.617 32.8607C149.421 34.3014 154.913 35.6561 159.708 40.2039C160.365 40.8263 160.985 41.4868 161.564 42.182C164.117 45.2087 165.866 48.8333 166.645 52.7187C167.425 56.6041 167.212 60.6241 166.027 64.405C164.803 68.5449 162.583 72.32 159.562 75.3983C156.541 78.4766 152.812 80.7641 148.702 82.0583C143.447 83.5851 137.996 84.324 132.525 84.2521ZM132.525 31.0545C130.589 30.9467 128.669 31.4384 127.022 32.4629C124.236 34.678 121.933 37.4402 120.252 40.5801C118.588 43.8899 117.348 47.3976 116.562 51.0196L114.416 59.0509C113.721 61.526 113.167 64.0387 112.754 66.5767C112.025 71.6729 112.154 75.6724 113.151 78.4032C114.148 81.1336 116.938 81.6289 119.866 82.0912L120.445 82.1771C130.98 83.7788 140.355 83.3814 148.337 80.9728C152.276 79.7274 155.85 77.5322 158.745 74.5799C161.64 71.6275 163.769 68.0082 164.943 64.0395C166.072 60.4245 166.27 56.5824 165.52 52.87C164.77 49.1577 163.095 45.6956 160.653 42.8057C160.096 42.144 159.505 41.5124 158.882 40.9135C154.302 36.6129 149.228 35.3013 143.285 33.839L141.815 33.4736C140.785 33.1998 139.781 32.8402 138.811 32.3984C137.55 31.7836 136.199 31.3735 134.809 31.1835C134.058 31.1007 133.303 31.0576 132.546 31.0545H132.525Z" fill="black"/>
<path d="M120.692 96.6804L120.585 116.516C120.585 116.516 127.022 128.44 139.572 124.849C152.124 121.258 153.84 111.195 153.84 111.195C154.076 98.8842 153.701 86.3271 154.591 74.1027C154.591 73.9629 150.407 70.2752 149.979 69.6194C148.976 68.2342 148.351 66.6112 148.165 64.9103C147.243 59.4379 146.856 53.7935 146.384 48.2566L143.907 48.0308C143.668 47.6221 143.598 47.1356 143.714 46.6761C140.762 50.3782 136.909 53.2553 132.525 55.0299C130.079 56.019 127.301 56.6426 124.811 55.7502C126.374 53.0919 127.463 50.1815 128.03 47.1491C124.663 51.0275 120.787 54.4308 116.509 57.2661C112.014 60.255 111.563 55.1159 110.855 60.4915C110.083 66.3295 110.051 81.1555 111.199 87.0042C113.183 96.7663 120.692 96.6804 120.692 96.6804Z" fill="#FFF4CB"/>
<path d="M135.002 126.063C125.262 126.063 120.177 116.883 120.113 116.775C120.07 116.695 120.048 116.607 120.048 116.516L120.145 97.1647C118.322 96.949 112.411 95.6269 110.726 87.0791C109.535 81.0157 109.654 65.9962 110.383 60.3841C110.63 58.4811 110.855 57.8144 111.338 57.5027C111.537 57.4049 111.755 57.3541 111.976 57.3541C112.198 57.3541 112.416 57.4049 112.615 57.5027C113.343 57.7393 114.363 58.051 116.262 56.7823C120.503 53.9779 124.343 50.6068 127.676 46.7621C127.752 46.6731 127.856 46.6121 127.971 46.5888C128.085 46.5654 128.204 46.581 128.309 46.6331C128.416 46.6833 128.503 46.7674 128.558 46.8724C128.612 46.9773 128.63 47.0973 128.61 47.2137C128.076 50.0884 127.076 52.8559 125.648 55.4062C127.926 55.8241 130.277 55.5079 132.364 54.5031C136.663 52.7675 140.443 49.9495 143.338 46.3213C143.414 46.2255 143.521 46.1592 143.64 46.1336C143.76 46.1081 143.884 46.1251 143.993 46.1815C144.105 46.2333 144.195 46.3236 144.246 46.4361C144.297 46.5485 144.306 46.6757 144.272 46.7944C144.208 47.0265 144.208 47.2718 144.272 47.504L146.417 47.6975C146.541 47.7118 146.658 47.7688 146.746 47.8588C146.834 47.9489 146.888 48.0665 146.899 48.1921L147.114 50.6542C147.5 55.3309 147.908 60.1583 148.691 64.8028C148.858 66.4314 149.454 67.9862 150.418 69.3077C150.622 69.6194 152.188 71.0708 153.229 72.0385C155.139 73.8016 155.139 73.8016 155.117 74.1242C154.516 82.3059 154.495 90.7888 154.463 98.9921C154.463 102.991 154.463 107.12 154.366 111.163C154.382 111.234 154.382 111.307 154.366 111.377C154.012 112.958 151.437 121.978 139.722 125.354C138.191 125.812 136.601 126.05 135.002 126.063ZM121.121 116.387C121.851 117.666 127.955 127.612 139.434 124.344C151.115 121.011 153.207 111.797 153.379 111.152C153.454 107.12 153.465 103.002 153.476 99.0241C153.476 90.8747 153.529 82.4567 154.119 74.2962C153.851 74.0274 153.186 73.4039 152.585 72.8556C151.515 71.9281 150.501 70.9372 149.55 69.8882C148.507 68.4415 147.856 66.7487 147.661 64.9748C146.867 60.2765 146.47 55.4277 146.073 50.7401L145.902 48.7189L143.885 48.5361C143.802 48.5288 143.721 48.5016 143.65 48.4567C143.579 48.4119 143.52 48.3505 143.478 48.2781C143.418 48.1813 143.364 48.0807 143.317 47.9771C140.433 51.2826 136.813 53.8608 132.75 55.5029C129.531 56.7931 126.893 57.0404 124.65 56.234C124.576 56.2072 124.509 56.1644 124.454 56.1087C124.398 56.053 124.355 55.9857 124.328 55.9115C124.294 55.8412 124.277 55.764 124.277 55.6857C124.277 55.6075 124.294 55.5303 124.328 55.4599C125.517 53.4421 126.426 51.2721 127.032 49.0092C123.968 52.2891 120.534 55.2008 116.798 57.6854C114.459 59.2336 113.066 58.7606 112.229 58.524C112.095 58.4691 111.954 58.4365 111.81 58.4273C111.561 59.1185 111.416 59.8434 111.381 60.5776C110.651 66.1252 110.544 80.9409 111.714 86.9293C113.526 96.1212 120.295 96.2071 120.617 96.1751C120.689 96.1741 120.76 96.1881 120.827 96.2161C120.893 96.243 120.953 96.284 121.003 96.3359C121.103 96.4367 121.161 96.5716 121.164 96.7124L121.121 116.387Z" fill="black"/>
<path d="M148.208 83.1876C150.711 84.1662 153.5 84.1123 155.964 83.0368C157.644 82.229 159.089 81.0017 160.16 79.4726C161.23 77.9439 161.891 76.1651 162.079 74.3069C162.321 72.9442 162.255 71.5443 161.885 70.2107C161.7 69.5435 161.371 68.9247 160.923 68.3974C160.475 67.8702 159.918 67.447 159.29 67.1573C157.766 66.5122 156.071 66.9208 154.42 67.3401C152.027 67.953 151.737 69.1786 150.129 70.716C150.3 70.587 150.503 70.1355 150.675 70.0064" fill="#FFF4CB"/>
<path d="M151.898 84.4239C150.57 84.4249 149.252 84.1732 148.015 83.6819C147.941 83.663 147.872 83.628 147.813 83.5801C147.754 83.5321 147.705 83.4722 147.671 83.4043C147.636 83.3354 147.617 83.2605 147.613 83.1846C147.61 83.1078 147.623 83.0319 147.652 82.961C147.68 82.8901 147.723 82.8262 147.779 82.7732C147.834 82.7203 147.899 82.6794 147.971 82.6544C148.043 82.6294 148.12 82.6195 148.196 82.6264C148.272 82.6324 148.346 82.6554 148.412 82.6933C150.777 83.618 153.413 83.5641 155.739 82.5426C157.344 81.7717 158.723 80.5965 159.74 79.1325C160.757 77.6684 161.378 75.965 161.542 74.1887C161.781 72.9065 161.726 71.5867 161.381 70.329C161.216 69.7375 160.925 69.1887 160.528 68.7195C160.132 68.2503 159.641 67.8716 159.086 67.6089C157.766 67.0499 156.254 67.3724 154.559 67.8132C153.392 68.105 152.372 68.8167 151.694 69.8129C151.373 70.1785 151.018 70.5978 150.547 71.0494L150.44 71.1461C150.387 71.192 150.325 71.2268 150.258 71.2487C150.191 71.2705 150.12 71.279 150.05 71.2735C149.979 71.268 149.911 71.2487 149.848 71.2167C149.785 71.1847 149.729 71.1406 149.684 71.0869C149.638 71.0333 149.603 70.9712 149.581 70.904C149.559 70.8369 149.551 70.7661 149.557 70.6957C149.562 70.6254 149.581 70.5568 149.613 70.4938C149.645 70.4308 149.689 70.3748 149.743 70.329C149.743 70.329 149.743 70.329 149.796 70.329L149.936 70.1247C150.041 69.9398 150.175 69.7729 150.333 69.6302C150.403 69.5773 150.483 69.5405 150.569 69.5226L150.879 69.1678C151.706 68.0122 152.921 67.1951 154.302 66.867C155.75 66.4908 157.745 65.9747 159.515 66.7165C160.212 67.0404 160.831 67.5103 161.33 68.0946C161.83 68.6788 162.198 69.3639 162.411 70.1032C162.801 71.5032 162.87 72.973 162.615 74.4037C162.418 76.3549 161.722 78.2222 160.596 79.825C159.468 81.4281 157.946 82.7123 156.178 83.5531C154.827 84.1343 153.37 84.4309 151.898 84.4239Z" fill="black"/>
<path d="M120.585 107.776C120.585 107.776 128.76 108.851 134.134 103.196C139.508 97.5401 138.876 93.0675 138.876 93.0675C138.876 93.0675 129.016 98.0135 120.639 96.6804L120.585 107.776Z" fill="black"/>
<path d="M122.269 108.4C121.7 108.403 121.13 108.375 120.563 108.314C120.434 108.297 120.314 108.233 120.229 108.134C120.144 108.034 120.098 107.906 120.102 107.776V96.6804C120.101 96.6035 120.117 96.5266 120.149 96.4557C120.18 96.3858 120.227 96.3229 120.284 96.272C120.343 96.2221 120.412 96.1851 120.486 96.1651C120.56 96.1442 120.638 96.1402 120.714 96.1531C128.824 97.4433 138.532 92.6382 138.629 92.5842C138.705 92.5443 138.79 92.5243 138.876 92.5243C138.962 92.5243 139.046 92.5443 139.122 92.5842C139.198 92.6222 139.263 92.6791 139.312 92.748C139.36 92.8179 139.391 92.8978 139.401 92.9817C139.401 93.1754 139.981 97.8098 134.499 103.562C130.508 107.808 125.015 108.4 122.269 108.4ZM121.196 107.324C122.978 107.421 129.425 107.464 133.823 102.863C137.653 98.8523 138.329 95.4122 138.425 93.9393C135.989 95.0138 128.277 98.2392 121.261 97.3255L121.196 107.324Z" fill="black"/>
<path d="M125.326 67.4476C125.326 67.4476 119.32 77.7904 121.036 79.4138C122.752 81.0377 127.064 79.6181 127.064 79.6181" fill="white"/>
<path d="M123.589 80.7361C122.519 80.817 121.459 80.4817 120.628 79.8009C118.783 78.0269 123.407 69.6839 124.919 67.1789C124.95 67.1103 124.994 67.049 125.05 66.9989C125.107 66.9489 125.172 66.9112 125.244 66.8883C125.315 66.8653 125.391 66.8577 125.465 66.8658C125.54 66.874 125.612 66.8977 125.677 66.9355C125.742 66.9733 125.798 67.0244 125.842 67.0853C125.886 67.1462 125.917 67.2158 125.932 67.2894C125.948 67.363 125.948 67.439 125.932 67.5126C125.916 67.5861 125.885 67.6556 125.841 67.7164C123.042 72.533 120.606 78.2312 121.422 79.0268C122.613 80.1771 125.788 79.4783 126.914 79.1127C127.057 79.0686 127.211 79.0829 127.342 79.1524C127.474 79.222 127.573 79.3411 127.617 79.4837C127.661 79.6263 127.647 79.7806 127.578 79.9126C127.508 80.0447 127.389 80.1437 127.247 80.1879C126.06 80.5471 124.828 80.7321 123.589 80.7361Z" fill="black"/>
<path d="M136.499 67.5577C136.515 66.2753 135.793 65.2266 134.886 65.2153C133.98 65.204 133.233 66.2345 133.217 67.517C133.201 68.7995 133.923 69.8482 134.829 69.8594C135.735 69.8707 136.483 68.8402 136.499 67.5577Z" fill="black"/>
<path d="M118.789 68.1947C118.812 66.9124 118.095 65.8598 117.189 65.8438C116.282 65.8278 115.529 66.8543 115.507 68.1367C115.484 69.4191 116.201 70.4716 117.107 70.4877C118.014 70.5036 118.767 69.4771 118.789 68.1947Z" fill="black"/>
<path d="M132.525 82.3279C129.821 84.5527 124.447 85.3056 117.185 84.4778C117.185 84.4778 116.992 94.154 123.986 93.6917C130.98 93.2293 132.525 82.3279 132.525 82.3279Z" fill="black"/>
<path d="M123.482 94.2289C122.737 94.2509 121.994 94.125 121.298 93.8574C120.602 93.5898 119.966 93.1864 119.426 92.6701C116.573 89.95 116.648 84.6715 116.648 84.4558C116.657 84.3051 116.722 84.1633 116.831 84.0584C116.887 84.0085 116.954 83.9715 117.026 83.9496C117.098 83.9266 117.174 83.9206 117.249 83.9296C124.307 84.7464 129.606 84.0364 132.192 81.9085C132.276 81.8396 132.378 81.7986 132.486 81.7896C132.594 81.7807 132.701 81.8046 132.795 81.8575C132.889 81.9115 132.965 81.9924 133.012 82.0892C133.06 82.1861 133.077 82.2959 133.061 82.4028C132.997 82.8651 131.366 93.7026 124.029 94.2289H123.482ZM117.732 85.058C117.807 86.456 118.172 90.0039 120.166 91.8962C120.67 92.3636 121.267 92.7171 121.919 92.9327C122.571 93.1474 123.261 93.2193 123.943 93.1434C129.049 92.7889 131.109 86.2942 131.752 83.4673C128.803 85.1868 124.008 85.725 117.732 85.058Z" fill="black"/>
<path d="M131.066 66.7596C130.923 66.7853 130.777 66.7532 130.658 66.6705C130.539 66.5878 130.458 66.4613 130.433 66.3187C130.407 66.1762 130.439 66.0292 130.521 65.9103C130.604 65.7914 130.73 65.7101 130.872 65.6844L138.886 62.6956C138.953 62.6708 139.023 62.6595 139.094 62.662C139.164 62.6646 139.234 62.6811 139.298 62.7106C139.362 62.74 139.42 62.7819 139.468 62.8337C139.516 62.8855 139.554 62.9464 139.578 63.0128C139.603 63.0792 139.615 63.1497 139.612 63.2205C139.609 63.2913 139.593 63.3607 139.564 63.4252C139.534 63.4896 139.492 63.5475 139.441 63.5957C139.389 63.6439 139.328 63.6815 139.262 63.7063L131.248 66.6843L131.066 66.7596Z" fill="black"/>
<path d="M119.705 66.3187H119.555L114.567 64.8458C114.496 64.826 114.43 64.7926 114.373 64.7473C114.315 64.702 114.267 64.6458 114.231 64.5819C114.195 64.5181 114.172 64.4477 114.164 64.3749C114.155 64.3021 114.161 64.2283 114.18 64.1577C114.2 64.0871 114.234 64.0211 114.279 63.9635C114.324 63.9059 114.38 63.8576 114.444 63.8217C114.507 63.7857 114.578 63.7628 114.65 63.754C114.723 63.7453 114.797 63.7509 114.867 63.7706L119.855 65.2436C119.998 65.2636 120.126 65.3393 120.213 65.4542C120.299 65.5692 120.337 65.7139 120.317 65.8565C120.297 65.999 120.221 66.1278 120.106 66.2146C119.992 66.3012 119.847 66.3387 119.705 66.3187Z" fill="black"/>
<path d="M166.627 55.3739C166.348 54.7611 110.051 52.2453 110.051 52.2453C110.051 52.2453 108.495 38.3331 116.68 29.6138C124.865 20.8945 148.112 23.8619 158.271 31.9254C168.43 39.9888 166.627 55.3739 166.627 55.3739Z" fill="url(#paint0_linear)"/>
<path d="M166.627 55.9114C166.538 55.9129 166.449 55.8907 166.37 55.8469C164.407 55.3631 131.699 53.6967 110.029 52.7828C109.9 52.778 109.778 52.7261 109.685 52.6369C109.592 52.5477 109.535 52.4275 109.525 52.299C109.46 51.7292 108.034 38.0428 116.283 29.2483C120.145 25.1306 127.612 23.1953 136.773 23.9372C145.227 24.6252 153.594 27.528 158.603 31.463C168.88 39.6233 167.185 55.2341 167.185 55.3954C167.181 55.5238 167.131 55.6463 167.044 55.741C166.958 55.8356 166.84 55.8962 166.713 55.9114H166.627ZM110.555 51.7292C152.864 53.6214 163.431 54.374 166.134 54.8041C166.328 52.1163 166.724 39.3222 157.938 32.3447C147.736 24.2489 124.876 21.6578 117.067 29.9793C109.975 37.5376 110.383 49.2779 110.555 51.7292Z" fill="black"/>
<path d="M110.051 52.2453C110.051 52.2453 93.3909 54.8364 93.5089 60.212C93.6269 65.5876 134.274 67.8885 151.866 54.3418L110.051 52.2453Z" fill="black"/>
<path d="M134.692 171.51C133.695 171.5 132.723 171.201 131.892 170.649C122.677 164.747 119.995 128.902 120.091 116.516C120.091 116.374 120.148 116.238 120.248 116.137C120.349 116.036 120.486 115.979 120.628 115.979C120.698 115.981 120.768 115.996 120.832 116.024C120.897 116.053 120.955 116.093 121.004 116.144C121.053 116.195 121.091 116.255 121.117 116.32C121.142 116.386 121.155 116.457 121.154 116.527C121.078 131.998 124.426 164.575 132.493 169.746C133.111 170.161 133.83 170.398 134.573 170.434C135.315 170.47 136.053 170.303 136.708 169.951C148.68 164.317 153.336 111.678 153.379 111.152C153.385 111.081 153.404 111.012 153.436 110.949C153.468 110.886 153.513 110.83 153.566 110.784C153.62 110.738 153.683 110.703 153.75 110.681C153.817 110.659 153.888 110.651 153.958 110.657C154.029 110.662 154.097 110.682 154.16 110.714C154.223 110.746 154.279 110.791 154.325 110.845C154.371 110.899 154.406 110.961 154.428 111.029C154.449 111.096 154.458 111.167 154.452 111.238C154.259 113.388 149.689 164.994 137.17 170.928C136.396 171.303 135.55 171.502 134.692 171.51Z" fill="black"/>
<path d="M130.1 190.023L126.271 188.841C126.271 188.841 125.198 181.594 125.852 176.541C126.507 171.488 128.878 168.94 130.003 168.08C131.13 167.22 136.837 168.467 136.837 168.467C136.837 168.467 132.546 174.337 132.149 178.455C131.752 182.573 130.1 190.023 130.1 190.023Z" fill="white"/>
<path d="M130.1 190.582C130.047 190.592 129.992 190.592 129.939 190.582L126.099 189.399C125.999 189.37 125.91 189.313 125.842 189.235C125.774 189.157 125.729 189.062 125.713 188.959C125.102 184.838 124.965 180.661 125.305 176.509C126.056 170.811 128.835 168.305 129.66 167.671C130.905 166.735 135.55 167.671 136.955 167.951C137.044 167.971 137.127 168.013 137.197 168.074C137.266 168.133 137.319 168.209 137.352 168.295C137.385 168.382 137.396 168.476 137.383 168.568C137.369 168.66 137.333 168.748 137.277 168.821C137.277 168.821 133.061 174.627 132.697 178.498C132.31 182.616 130.712 189.83 130.636 190.131C130.602 190.282 130.509 190.413 130.379 190.497C130.294 190.546 130.198 190.575 130.1 190.582ZM126.764 188.431L129.692 189.324C130.079 187.497 131.28 181.798 131.591 178.423C131.903 175.047 134.735 170.553 135.882 168.843C133.458 168.381 130.84 168.144 130.325 168.531C129.81 168.918 127.107 171.23 126.389 176.627C126.071 180.56 126.197 184.516 126.764 188.422V188.431Z" fill="black"/>
<path d="M140.903 172.531C140.484 170.273 137.631 166.413 133.083 169.757C128.534 173.1 130.1 190.023 130.1 190.023L133.061 189.141L133.523 180.884C133.523 180.884 142.458 180.992 140.903 172.531Z" fill="white"/>
<path d="M130.1 190.582C129.989 190.581 129.881 190.548 129.789 190.486C129.721 190.44 129.665 190.38 129.624 190.309C129.583 190.238 129.558 190.158 129.553 190.077C129.489 189.367 128.019 172.8 132.772 169.306C135.12 167.574 136.966 167.746 138.135 168.23C138.988 168.619 139.736 169.206 140.315 169.943C140.896 170.68 141.292 171.545 141.471 172.466C141.755 173.539 141.79 174.662 141.575 175.751C141.359 176.838 140.898 177.863 140.227 178.745C138.371 180.949 135.314 181.369 134.081 181.454L133.651 189.206C133.642 189.32 133.6 189.429 133.529 189.519C133.459 189.609 133.363 189.676 133.254 189.712L130.293 190.593L130.1 190.582ZM136.483 169.004C135.374 169.074 134.317 169.491 133.458 170.197C130.1 172.671 130.239 184.239 130.636 189.303L132.578 188.722L133.008 180.852C133.016 180.709 133.078 180.576 133.182 180.478C133.286 180.38 133.423 180.325 133.566 180.325C133.566 180.325 137.416 180.325 139.391 177.992C139.955 177.232 140.339 176.353 140.514 175.421C140.688 174.49 140.649 173.531 140.398 172.617C140.247 171.886 139.93 171.199 139.471 170.612C139.011 170.025 138.422 169.551 137.749 169.23C137.345 169.074 136.916 168.997 136.483 169.004Z" fill="black"/>
<path d="M125.852 176.541L128.577 176.691L128.406 179.734L125.616 179.584L125.852 176.541Z" fill="black"/>
<path d="M128.406 180.293L125.627 180.132C125.553 180.129 125.48 180.111 125.414 180.08C125.347 180.048 125.287 180.004 125.238 179.949C125.189 179.894 125.151 179.829 125.128 179.759C125.104 179.689 125.095 179.614 125.101 179.54L125.337 176.498C125.34 176.426 125.357 176.355 125.388 176.29C125.419 176.225 125.463 176.167 125.517 176.119C125.572 176.072 125.635 176.036 125.704 176.014C125.772 175.992 125.845 175.985 125.916 175.992L128.642 176.143C128.714 176.147 128.784 176.166 128.849 176.197C128.914 176.229 128.972 176.273 129.02 176.327C129.067 176.381 129.104 176.444 129.128 176.511C129.151 176.579 129.161 176.651 129.157 176.724L128.996 179.767C128.992 179.84 128.973 179.912 128.941 179.979C128.909 180.044 128.865 180.103 128.81 180.152C128.755 180.201 128.691 180.239 128.622 180.263C128.552 180.287 128.479 180.298 128.406 180.293ZM126.26 179.057L127.934 179.154L128.041 177.218L126.41 177.133L126.26 179.057Z" fill="black"/>
<path d="M50.7385 92.1539C52.884 99.0031 65.9929 131.826 69.7368 141.717C73.4807 151.609 76.8384 166.058 67.9131 174.305C63.9118 178.003 57.5397 179.294 52.8303 176.551C50.81 175.261 49.0845 173.558 47.767 171.553C35.7736 154.823 33.4136 96.7663 31.193 87.1869C31.193 87.1869 45.5357 75.1133 47.8098 74.9197C50.0841 74.7262 50.7385 92.1539 50.7385 92.1539Z" fill="#FFF4CB"/>
<path d="M58.5159 178.563C56.4296 178.583 54.3752 178.048 52.5622 177.014C50.4779 175.682 48.6947 173.928 47.3272 171.864C38.359 159.307 34.7438 123.956 32.5769 102.841C31.8259 95.519 31.2359 89.7463 30.6674 87.3157C30.6447 87.2179 30.6497 87.116 30.682 87.0212C30.7142 86.9263 30.7723 86.8424 30.8498 86.7785C33.2634 84.7354 45.4391 74.5757 47.7563 74.3822C47.9031 74.3727 48.0502 74.3936 48.1886 74.4435C48.3271 74.4934 48.4538 74.5714 48.5608 74.6725C50.5562 76.4464 51.1675 89.2939 51.2748 92.057C52.7552 96.7453 59.1381 113.044 64.2659 126.149C66.8083 132.665 69.0182 138.288 70.241 141.524C76.0017 156.727 75.3152 168.198 68.2779 174.702C65.6148 177.159 62.1352 178.535 58.5159 178.563ZM31.783 87.3916C32.3516 90.0468 32.9202 95.6808 33.6497 102.734C35.7951 123.742 39.3996 158.909 48.1961 171.241C49.4824 173.176 51.1508 174.826 53.0986 176.089C57.3896 178.595 63.472 177.67 67.5484 173.939C76.0017 166.133 73.1375 152.232 69.2326 141.944C68.0097 138.718 65.8106 133.084 63.2681 126.569C58.1082 113.388 51.6825 96.971 50.2343 92.3476C50.2244 92.3016 50.2244 92.2537 50.2343 92.2078C49.9447 84.5417 48.947 75.9734 47.8421 75.4788C46.3403 75.5756 37.3077 82.7902 31.783 87.3916Z" fill="black"/>
<path d="M68.0204 74.1887C68.0204 74.1887 65.8749 79.5643 62.5386 80.6393C59.2023 81.7147 51.5966 78.328 50.7384 78.8332C49.8802 79.3385 31.0428 94.9069 29.2834 95.4332C27.5241 95.9604 23.6516 91.3909 21.8922 86.0156C21.8922 86.0156 40.3006 72.1567 41.4806 70.716C42.6606 69.2754 43.7549 61.0398 45.4604 57.9005L68.0204 74.1887Z" fill="#005CFF"/>
<path d="M28.9617 95.9385C26.6659 95.9385 23.0723 91.391 21.4524 86.1764C21.421 86.0695 21.4227 85.9567 21.4572 85.8509C21.4917 85.745 21.5573 85.6521 21.6455 85.5852C29.026 80.0267 40.3113 71.3934 41.1374 70.3719C41.6308 69.7807 42.2101 67.3939 42.7572 65.0931C43.257 62.5338 44.0302 60.0359 45.0636 57.6425C45.0994 57.5745 45.1497 57.5152 45.2109 57.4688C45.272 57.4223 45.3426 57.3899 45.4176 57.3737C45.4912 57.3576 45.5673 57.357 45.6411 57.3718C45.7149 57.3866 45.7849 57.4165 45.8467 57.4597L68.3744 73.7157C68.468 73.7883 68.5362 73.8889 68.569 74.003C68.6018 74.117 68.5975 74.2385 68.5568 74.35C68.4602 74.5865 66.2933 79.9622 62.7318 81.0906C60.4897 81.7897 56.6814 80.7152 53.9031 79.9299C52.9629 79.6087 51.9923 79.3853 51.0066 79.2634C50.835 79.3816 48.8611 80.9618 46.5977 82.7902C38.2838 89.4767 30.7103 95.5191 29.4337 95.8845C29.2801 95.9275 29.1209 95.9454 28.9617 95.9385ZM22.5252 86.2623C24.2952 91.4978 27.7602 95.2724 29.0797 94.863C30.3991 94.4546 40.8048 86.0366 45.8789 81.9614C48.786 79.6182 50.1699 78.4893 50.4595 78.328C50.953 78.0269 51.8863 78.2635 54.139 78.9086C56.7887 79.6504 60.4146 80.6822 62.3563 80.0696C64.9309 79.2634 66.7974 75.5542 67.3338 74.35L45.6858 58.7068C44.8615 60.8657 44.2121 63.0876 43.7441 65.3511C43.0039 68.4046 42.5212 70.3074 41.9097 71.0601C40.7834 72.447 25.4753 84.0045 22.5466 86.2083L22.5252 86.2623Z" fill="black"/>
<path d="M46.6835 62.7924C46.9057 64.1805 46.7078 65.6035 46.1149 66.8778C45.1387 68.8345 40.5151 71.6192 40.5151 71.6192L36.9215 65.1684L43.1648 60.1906L46.6835 62.7924Z" fill="black"/>
<path d="M40.5151 72.1567H40.3757C40.2352 72.1118 40.1166 72.016 40.0431 71.8878L36.4495 65.4371C36.3895 65.3258 36.3706 65.1969 36.3961 65.073C36.4216 64.9491 36.4899 64.8382 36.5888 64.7598L42.8323 59.7819C42.9267 59.7112 43.0415 59.6731 43.1595 59.6731C43.2774 59.6731 43.3921 59.7112 43.4866 59.7819L47.0053 62.3622C47.0588 62.3998 47.1044 62.4476 47.1394 62.503C47.1744 62.5584 47.1981 62.6202 47.2091 62.6848C47.4578 64.1893 47.2445 65.734 46.5976 67.1144C45.5248 69.2001 40.9871 71.9631 40.794 72.0814C40.7102 72.1327 40.6134 72.1588 40.5151 72.1567ZM37.608 65.2543L40.7083 70.8665C42.1887 69.9311 44.9992 67.9744 45.6429 66.6412C46.1513 65.5289 46.3407 64.2967 46.19 63.0826L43.1756 60.8248L37.608 65.2543Z" fill="black"/>
<path d="M26.8484 82.2739C26.8484 82.2739 24.8638 76.898 27.9211 76.3712C27.9211 76.3712 28.2965 72.4577 32.0512 73.92C32.0512 73.92 32.8343 69.8129 36.0739 70.4902C39.3136 71.1676 42.1779 78.7042 41.8453 80.6503C41.5128 82.5965 38.9489 81.553 37.6187 79.7901C37.6187 79.7901 39.378 82.7363 38.3375 83.5741C36.7927 84.8113 35.0548 82.8222 33.6281 81.4241C33.6281 81.4241 35.7736 84.8543 32.8664 85.3166C30.6137 85.6711 28.3073 81.1985 28.3073 81.1985L26.8484 82.2739Z" fill="#FFF4CB"/>
<path d="M32.6197 85.8319C30.6459 85.8319 28.8652 83.1767 28.1571 81.9614L27.1702 82.7033C27.1053 82.7573 27.0279 82.7932 26.9453 82.8082C26.8627 82.8232 26.7777 82.8172 26.6982 82.7902C26.618 82.7683 26.544 82.7273 26.4825 82.6714C26.4209 82.6155 26.3735 82.5456 26.3442 82.4677C26.2155 82.1012 25.0676 78.8441 26.1297 77.0056C26.4202 76.4904 26.8959 76.1059 27.4598 75.9304C27.6337 74.9388 28.1882 74.055 29.0046 73.4684C29.4081 73.2373 29.8568 73.0964 30.3197 73.0555C30.7826 73.0147 31.2489 73.0749 31.6865 73.2319C32.0008 72.1157 32.6668 71.1314 33.5853 70.4258C33.963 70.1696 34.3908 69.997 34.8402 69.9191C35.2896 69.8413 35.7504 69.8601 36.1921 69.9742C39.7428 70.716 42.7572 78.5752 42.3818 80.7252C42.3537 81.0637 42.2206 81.3842 42.0013 81.6429C41.7819 81.9015 41.4874 82.0842 41.1588 82.1661C40.4263 82.2869 39.675 82.1262 39.0562 81.7148C39.2086 82.0882 39.2531 82.4966 39.1848 82.8941C39.1165 83.2905 38.9381 83.661 38.6701 83.9616C37.3935 84.9831 36.074 84.327 34.9154 83.3484C34.9668 83.7658 34.9076 84.1882 34.7438 84.5747C34.5765 84.9142 34.3226 85.2028 34.0081 85.4125C33.6935 85.6222 33.3293 85.745 32.9523 85.768L32.6197 85.8319ZM28.3288 80.6393H28.4467C28.5236 80.6583 28.5957 80.6922 28.6586 80.7412C28.7214 80.7891 28.7735 80.85 28.8115 80.9189C29.3587 81.9944 31.3003 85.015 32.8021 84.7574C33.5853 84.6286 33.7354 84.2841 33.789 84.1762C34.1217 83.4453 33.4565 82.0912 33.1883 81.6828C33.1216 81.569 33.0968 81.4362 33.1184 81.3063C33.1399 81.1765 33.2065 81.0587 33.3063 80.9728C33.4049 80.8839 33.533 80.834 33.6657 80.834C33.7984 80.834 33.9265 80.8839 34.0251 80.9728L34.3254 81.2734C35.8702 82.8541 37.0395 83.9076 38.0157 83.1227C38.4019 82.8112 37.8976 81.2305 37.179 80.0267C37.1158 79.9086 37.0988 79.7712 37.1315 79.6413C37.1641 79.5114 37.244 79.3985 37.3553 79.3245C37.4667 79.2505 37.6017 79.2208 37.7338 79.2413C37.8659 79.2619 37.9855 79.3311 38.0693 79.4353C38.379 79.9185 38.7976 80.322 39.2914 80.6133C39.7852 80.9049 40.3403 81.0757 40.9121 81.1126C41.073 81.1126 41.2661 80.9728 41.3412 80.5319C41.6308 78.8441 38.8739 71.5977 35.9775 70.9849C35.6761 70.9085 35.362 70.8959 35.0555 70.9477C34.7489 70.9995 34.4565 71.1147 34.1967 71.2858C33.3753 71.9934 32.8191 72.9604 32.6197 74.0274C32.6037 74.104 32.5715 74.1763 32.5252 74.2393C32.4789 74.3023 32.4197 74.3548 32.3516 74.393C32.2806 74.4244 32.2039 74.4406 32.1263 74.4406C32.0488 74.4406 31.972 74.4244 31.9011 74.393C31.5448 74.2142 31.1517 74.1211 30.7532 74.1211C30.3547 74.1211 29.9617 74.2142 29.6053 74.393C28.9945 74.9022 28.609 75.6324 28.5326 76.425C28.5226 76.5429 28.4741 76.6542 28.3946 76.7417C28.3151 76.8291 28.209 76.8879 28.0928 76.9088C27.8905 76.9306 27.6965 77.0005 27.5266 77.1127C27.3568 77.225 27.2163 77.3761 27.1166 77.5539C26.5695 78.4999 26.8805 80.2847 27.1917 81.4032L28.0606 80.7362C28.1406 80.6822 28.2328 80.6493 28.3288 80.6393Z" fill="black"/>
<path d="M40.2041 65.2437C40.2041 65.2437 41.8669 62.0183 43.8943 64.6846C45.9218 67.3509 48.4427 72.447 45.2996 73.1351C42.1565 73.8231 39.5068 68.0175 40.2041 65.2437Z" fill="#FFF4CB"/>
<path d="M44.7739 73.7264C44.2504 73.7019 43.7376 73.57 43.267 73.3388C42.7965 73.1076 42.3784 72.7822 42.0383 72.3825C40.2684 70.5548 39.1742 67.1573 39.6891 65.1146C39.6846 65.0753 39.6846 65.0356 39.6891 64.9963C39.7749 64.8136 40.6331 63.2224 42.0277 63.1041C42.4796 63.1011 42.9246 63.2153 43.3193 63.4357C43.7141 63.6562 44.0453 63.9753 44.2804 64.362C45.6107 66.1145 47.917 70.0172 47.1018 72.232C46.9633 72.6025 46.7298 72.93 46.4246 73.181C46.1195 73.4322 45.7535 73.598 45.3639 73.6619C45.1698 73.7023 44.9722 73.7239 44.7739 73.7264ZM40.7082 65.4372C40.6132 66.5624 40.7551 67.6952 41.1246 68.7619C41.4942 69.8287 42.0833 70.8058 42.8537 71.6299C43.1326 71.9822 43.497 72.2572 43.912 72.4285C44.3269 72.5998 44.7788 72.6617 45.2244 72.6082C45.4375 72.5837 45.6396 72.5003 45.8081 72.3674C45.9767 72.2346 46.1052 72.0574 46.1792 71.8557C46.7156 70.4043 45.2029 67.2434 43.5081 65.0179C43.3754 64.7824 43.1882 64.5824 42.9624 64.4346C42.7364 64.2868 42.4785 64.1955 42.21 64.1685C41.5127 64.233 40.912 65.0716 40.7082 65.4372Z" fill="black"/>
<path d="M50.8564 93.8854C50.8564 93.8854 52.487 83.8008 52.605 82.0583C52.7981 79.016 51.8755 74.3177 49.183 73.7049C46.4904 73.0921 40.4079 72.6298 41.5235 75.2747C42.5963 77.6721 47.8742 77.8871 47.8742 77.8871C47.8742 77.8871 44.3771 81.7577 45.1065 85.4135" fill="#FFF4CB"/>
<path d="M50.8565 94.4226H50.7706C50.6317 94.3986 50.5076 94.3218 50.4253 94.2069C50.3431 94.0921 50.3091 93.9493 50.3308 93.8095C50.3308 93.7126 51.9614 83.7249 52.0686 81.9834C52.251 79.0376 51.3178 74.694 49.065 74.1779C46.3938 73.5652 42.7358 73.5221 42.017 74.3714C42.017 74.4467 41.8347 74.5972 42.017 75.0273C42.7358 76.726 46.5118 77.2528 47.8956 77.3065C47.9991 77.3117 48.099 77.3457 48.1843 77.4046C48.2695 77.4634 48.3367 77.5449 48.3784 77.6399C48.4159 77.7328 48.4268 77.8344 48.4097 77.9332C48.3926 78.032 48.3483 78.1241 48.2819 78.199C48.2819 78.199 44.9671 81.9185 45.6322 85.2737C45.6463 85.3426 45.6467 85.4135 45.6333 85.4834C45.6199 85.5523 45.593 85.6182 45.5541 85.6771C45.5153 85.736 45.4652 85.7869 45.4068 85.8269C45.3484 85.8658 45.2828 85.8938 45.2138 85.9078C45.0747 85.9337 44.9311 85.9038 44.813 85.8259C44.695 85.748 44.6118 85.6262 44.5809 85.4884C44.0124 82.5965 45.8038 79.6826 46.8229 78.2957C45.1173 78.1022 41.8883 77.4678 41.0301 75.4466C40.8811 75.1688 40.8179 74.8528 40.8485 74.5389C40.879 74.2249 41.0019 73.9272 41.2017 73.6834C42.5963 72.0062 47.9493 72.8233 49.3117 73.1351C52.4656 73.8554 53.3345 78.9837 53.1414 82.0483C53.0235 83.8537 51.4572 93.5728 51.3929 93.9822C51.37 94.1071 51.3035 94.2199 51.2053 94.3008C51.1071 94.3817 50.9834 94.4246 50.8565 94.4226Z" fill="black"/>
<path d="M10.1458 57.8038C10.1458 57.8038 32.0298 54.5784 41.2555 59.4379C43.5719 60.6863 45.8012 62.0908 47.9279 63.6417C52.9698 67.2434 57.7435 71.3611 61.4231 73.5867C68.7071 77.9947 75.594 78.6935 79.8958 70.9204C83.586 64.2653 81.1187 61.2979 75.4976 55.7932C72.7191 53.0732 66.9156 48.6436 61.8628 43.6551C58.8867 40.8969 56.3345 37.7122 54.2893 34.2046C49.7837 25.8079 50.363 12.573 50.363 12.573L10.1458 57.8038Z" fill="#243D65"/>
<path d="M70.9704 77.4141C68.0955 77.4141 64.7914 76.3389 61.1226 74.0811C58.5262 72.4008 56.0196 70.585 53.6134 68.641C51.661 67.1466 49.655 65.5877 47.5952 64.1148C45.491 62.5734 43.2832 61.1795 40.9872 59.9432C32.0404 55.2557 10.4353 58.3413 10.2207 58.3735C10.1119 58.3887 10.0012 58.37 9.90333 58.32C9.80548 58.27 9.72531 58.1911 9.67364 58.094C9.62039 57.9976 9.598 57.887 9.60952 57.7774C9.62102 57.6679 9.66588 57.5644 9.738 57.4812L49.966 12.2505C50.0397 12.1692 50.1364 12.1125 50.2432 12.0879C50.35 12.0633 50.4617 12.0721 50.5634 12.1132C50.665 12.1541 50.7516 12.2253 50.8117 12.3172C50.8718 12.4089 50.9024 12.517 50.8993 12.6268C50.8993 12.7558 50.4166 25.8079 54.7398 33.9789C56.7605 37.4502 59.292 40.5963 62.249 43.3109C65.1561 46.1709 68.2671 48.8157 71.0133 51.1487C72.9872 52.8259 74.7036 54.2773 75.8836 55.4492C81.5155 60.9753 84.2725 64.1793 80.3784 71.2213C78.6192 74.4467 76.3342 76.3712 73.5772 77.1023C72.7256 77.3197 71.8492 77.4246 70.9704 77.4141ZM25.0246 56.2233C30.9999 56.2233 37.4042 56.8254 41.4806 58.9649C43.8249 60.2369 46.0761 61.6739 48.2174 63.2654C50.2986 64.7491 52.3153 66.308 54.2678 67.8132C56.643 69.729 59.1135 71.5233 61.6697 73.1888C66.2289 75.9519 70.1337 76.9303 73.2769 76.0809C75.7334 75.4251 77.8038 73.6189 79.4022 70.7053C82.9423 64.3298 80.6466 61.6635 75.1112 56.234C73.9526 55.0944 72.2578 53.6537 70.2946 51.9335C67.5377 49.5898 64.416 46.9342 61.4766 44.0421C58.441 41.2398 55.8476 37.9916 53.785 34.4089C50.1592 27.5818 49.7836 17.7122 49.7836 13.9815L11.4973 57.0834C15.9862 56.5366 20.5028 56.2494 25.0246 56.2233Z" fill="black"/>
<path d="M46.6833 62.7923C51.7253 66.3832 57.8506 71.1783 61.4015 73.5436C69.5007 79.059 74.489 79.4461 79.2735 71.9524C84.1973 64.2545 81.0971 61.2548 75.4759 55.7502C72.6975 53.0302 66.8939 48.6006 61.8413 43.612C61.8413 43.612 61.7769 49.0414 56.7135 55.8792C54.2308 59.238 50.7012 61.6707 46.6833 62.7923Z" fill="black"/>
<path d="M71.2388 78.2204C68.5247 78.2204 65.3279 76.8765 61.1335 74.0274C59.2133 72.7265 56.5529 70.7268 53.7208 68.6518C51.2749 66.8241 48.7433 64.9318 46.4154 63.2761C46.3313 63.2146 46.2664 63.1304 46.2284 63.0333C46.1905 62.9361 46.1809 62.8302 46.2009 62.7278C46.2206 62.6239 46.2709 62.5283 46.3455 62.4535C46.4202 62.3787 46.5155 62.3282 46.6192 62.3085C50.4786 61.2056 53.8704 58.8638 56.2739 55.6427C61.1549 49.0521 61.2944 43.7518 61.2944 43.698C61.2949 43.5919 61.3268 43.4883 61.386 43.4003C61.4452 43.3122 61.529 43.2438 61.6269 43.2035C61.7248 43.1668 61.8311 43.1584 61.9335 43.1793C62.036 43.2003 62.1304 43.2496 62.2062 43.3217C65.1134 46.1815 68.2244 48.8264 70.9706 51.1594C72.9444 52.8366 74.6609 54.2881 75.8408 55.4599C81.4835 60.9969 84.8626 64.2975 79.7242 72.3394C77.5787 75.7476 75.3259 77.5861 72.7513 78.1129C72.252 78.1992 71.7453 78.2352 71.2388 78.2204ZM47.8957 62.9965C49.9769 64.5018 52.1868 66.1467 54.3323 67.7487C57.1429 69.8989 59.8033 71.8557 61.7127 73.1243C66.465 76.3497 69.812 77.5539 72.5476 76.984C74.8324 76.5217 76.8385 74.8338 78.8339 71.6836C83.511 64.3835 80.7218 61.6527 75.1758 56.2233C73.9528 55.0191 72.2579 53.5785 70.2948 51.9227C67.7846 49.7725 64.931 47.4072 62.2706 44.8162C61.5275 48.9826 59.7699 52.9008 57.1536 56.2233C54.8142 59.3594 51.589 61.7192 47.8957 62.9965Z" fill="black"/>
<path d="M3.95596 56.2125C9.08369 60.427 19.7683 56.2125 30.0344 46.7514C35.2233 41.9119 39.7373 36.3934 43.4545 30.3449C50.7706 18.2819 52.7874 6.91785 47.6382 2.69258C41.2017 -2.54335 26.2905 5.19761 14.2221 19.9699C2.15374 34.7422 -2.43762 50.9766 3.95596 56.2125Z" fill="white"/>
<path d="M42.5212 1.07989C44.3629 0.998806 46.1743 1.56969 47.6382 2.69259C52.7981 6.91786 50.7814 18.325 43.4653 30.3449C39.748 36.3934 35.234 41.912 30.0451 46.7514C22.4715 53.7612 14.6834 57.8575 9.0193 57.8575C7.17669 57.9315 5.36753 57.3486 3.91302 56.2125C-2.52346 50.9767 2.12153 34.7099 14.1792 19.9699C23.7267 8.32625 35.0335 1.07989 42.5212 1.07989ZM42.5212 0.00472372C34.5293 0.00472372 22.8256 7.75646 13.3962 19.3571C7.47455 26.5498 3.11919 34.4089 1.13461 41.3758C-0.925068 48.6651 -0.163417 54.2773 3.2801 57.0511C4.9161 58.3291 6.94597 58.9946 9.0193 58.9327C14.9838 58.9327 22.89 54.7719 30.721 47.5362C33.3755 45.0704 35.8559 42.4228 38.1444 39.6125C40.4009 36.8553 42.4656 33.9455 44.3234 30.904C52.1652 18.0024 53.7529 6.35876 48.2605 1.87545C46.6243 0.598876 44.5937 -0.0629797 42.5212 0.00472372Z" fill="black"/>
<path d="M20.7551 36.1399L30.0344 46.7514C35.2232 41.912 39.7372 36.3934 43.4544 30.3449L30.3991 23.1093L20.7551 36.1399Z" fill="#A1B8DB"/>
<path d="M28.6246 31.9117C31.2999 28.3263 32.1187 24.4079 30.4533 23.1597C28.7879 21.9116 25.2691 23.8063 22.5938 27.3917C19.9185 30.9771 19.0997 34.8955 20.7651 36.1437C22.4305 37.3918 25.9493 35.4971 28.6246 31.9117Z" fill="#243D65"/>
<path d="M21.9996 37.0537C21.4404 37.0687 20.8924 36.8945 20.4441 36.5592C19.4572 35.8281 19.1353 34.4089 19.5216 32.5166C20.0096 30.5309 20.9086 28.67 22.1606 27.055C25.0569 23.1738 28.833 21.2708 30.7425 22.7545C31.7295 23.4856 32.0513 24.9048 31.6651 26.7862C31.1862 28.7745 30.2942 30.6392 29.0476 32.2586C26.8055 35.2367 24.0378 37.0537 21.9996 37.0537ZM23.0724 27.7108C21.9149 29.2022 21.0817 30.9197 20.6265 32.7532C20.3261 34.1724 20.5192 35.2475 21.1415 35.7098C22.3536 36.6237 25.5826 35.1614 28.243 31.592C29.4005 30.1008 30.2336 28.3831 30.6888 26.5496C30.9892 25.1305 30.7961 24.0554 30.1739 23.5931C28.9618 22.6685 25.7328 24.1414 23.0724 27.7108Z" fill="#243D65"/>
<path d="M33.6925 81.9185C33.6023 81.9205 33.5134 81.8985 33.4343 81.8556C33.3552 81.8126 33.2889 81.7487 33.2419 81.6718C32.4448 80.4881 31.488 79.4208 30.3992 78.5C30.2871 78.4129 30.2139 78.2848 30.1958 78.1437C30.1777 78.0027 30.2161 77.8602 30.3027 77.7474C30.3897 77.6357 30.5164 77.5621 30.6565 77.542C30.7965 77.522 30.9387 77.5571 31.0535 77.6399C32.2451 78.6307 33.2828 79.7938 34.1323 81.0907C34.1722 81.1496 34.1999 81.2145 34.214 81.2844C34.228 81.3533 34.228 81.4242 34.214 81.4941C34.2 81.563 34.1723 81.6289 34.1324 81.6868C34.0927 81.7447 34.0415 81.7947 33.9822 81.8326C33.8951 81.8875 33.795 81.9165 33.6925 81.9185Z" fill="black"/>
<path d="M37.6295 80.3277C37.5101 80.3283 37.3941 80.2882 37.3005 80.2139C37.2069 80.1397 37.1414 80.0358 37.1146 79.9191C36.602 78.3557 35.592 77.0036 34.2396 76.0702C34.1811 76.0307 34.131 75.9799 34.092 75.921C34.0531 75.8621 34.0262 75.796 34.0127 75.7266C33.9993 75.6573 33.9996 75.5859 34.0137 75.5166C34.0277 75.4474 34.0553 75.3816 34.0947 75.323C34.1342 75.2644 34.1848 75.2141 34.2436 75.1752C34.3024 75.1362 34.3683 75.1091 34.4376 75.0956C34.5068 75.0822 34.5779 75.0825 34.6471 75.0966C34.7162 75.1107 34.7819 75.1383 34.8403 75.1778C36.4199 76.253 37.5886 77.8336 38.1552 79.6611C38.1846 79.7992 38.1597 79.9433 38.0858 80.0634C38.0118 80.1836 37.8945 80.2705 37.7582 80.3062L37.6295 80.3277Z" fill="black"/>
<path d="M28.3287 81.7147C28.248 81.7157 28.168 81.6978 28.0953 81.6628C28.0226 81.6269 27.9592 81.5749 27.9104 81.51L26.9449 80.2739C26.8584 80.1612 26.82 80.0187 26.8381 79.8777C26.8562 79.7366 26.9293 79.6084 27.0415 79.5214C27.1527 79.4334 27.2939 79.3932 27.4346 79.4092C27.5753 79.4254 27.7039 79.4966 27.7923 79.6073L28.7579 80.844C28.8449 80.9578 28.8836 81.1026 28.8656 81.2454C28.8475 81.3882 28.7742 81.518 28.6613 81.6069C28.5655 81.6788 28.4485 81.7167 28.3287 81.7147Z" fill="black"/>
<path d="M72.1291 55.6857C72.0029 55.6854 71.881 55.6397 71.7859 55.5567L64.3946 49.3317C64.2851 49.239 64.2167 49.1066 64.2047 48.9634C64.1926 48.8203 64.2378 48.6782 64.3303 48.5683C64.4226 48.4586 64.5549 48.3901 64.6977 48.378C64.8406 48.3659 64.9823 48.4112 65.0919 48.5038L72.4723 54.7396C72.528 54.7833 72.5741 54.838 72.6078 54.9003C72.6415 54.9626 72.662 55.0312 72.668 55.1018C72.674 55.1724 72.6655 55.2436 72.6429 55.3107C72.6203 55.3779 72.5842 55.4397 72.5367 55.4922C72.4879 55.5534 72.4258 55.6025 72.3551 55.6361C72.2846 55.6696 72.2073 55.6866 72.1291 55.6857Z" fill="white"/>
<path d="M71.2388 57.3199C71.1126 57.3196 70.9907 57.2738 70.8955 57.1909L63.5043 50.9659C63.45 50.92 63.4053 50.8639 63.3727 50.8007C63.3401 50.7374 63.3203 50.6684 63.3143 50.5975C63.3083 50.5267 63.3164 50.4553 63.3379 50.3875C63.3595 50.3197 63.3941 50.2569 63.4399 50.2025C63.4857 50.1482 63.5417 50.1034 63.6047 50.0708C63.6678 50.038 63.7366 50.0182 63.8074 50.0122C63.8781 50.0062 63.9493 50.0143 64.017 50.0358C64.0846 50.0574 64.1473 50.0922 64.2015 50.138L71.582 56.3738C71.665 56.4449 71.7244 56.5398 71.7522 56.6456C71.78 56.7514 71.7749 56.8632 71.7375 56.9661C71.7002 57.0689 71.6325 57.1579 71.5433 57.2212C71.4543 57.2844 71.348 57.3189 71.2388 57.3199Z" fill="white"/>
<path d="M70.166 59.2014C70.0398 59.2011 69.9179 59.1552 69.8227 59.0723L62.4314 52.8473C62.3219 52.7547 62.2536 52.6223 62.2416 52.4791C62.2295 52.3359 62.2746 52.1938 62.3671 52.084C62.4595 51.9743 62.5918 51.9058 62.7346 51.8937C62.8774 51.8816 63.0192 51.9268 63.1288 52.0195L70.5093 58.2553C70.5923 58.3264 70.6516 58.4212 70.6794 58.527C70.7072 58.6329 70.702 58.7447 70.6648 58.8476C70.6275 58.9504 70.5597 59.0394 70.4706 59.1026C70.3814 59.1658 70.2751 59.2003 70.166 59.2014Z" fill="white"/>
<path d="M91.6209 219.643C91.5508 219.638 91.4825 219.618 91.42 219.586C91.3575 219.554 91.3021 219.509 91.2571 219.455C91.2121 219.401 91.1784 219.338 91.158 219.27C91.1375 219.204 91.1308 219.133 91.1382 219.063L100.042 122.569C100.049 122.499 100.07 122.431 100.103 122.368C100.137 122.306 100.182 122.25 100.237 122.205C100.292 122.16 100.355 122.126 100.423 122.106C100.49 122.085 100.562 122.079 100.632 122.086C100.702 122.093 100.771 122.114 100.833 122.147C100.896 122.181 100.951 122.226 100.996 122.281C101.04 122.336 101.074 122.4 101.095 122.468C101.115 122.535 101.122 122.606 101.115 122.677L92.1466 219.138C92.141 219.273 92.0832 219.402 91.9852 219.496C91.8872 219.591 91.7567 219.643 91.6209 219.643Z" fill="black"/>
<path d="M231.893 255.553L259.409 194.334L175.242 157.307L147.736 218.525L231.893 255.553Z" fill="white"/>
<path d="M231.893 256.101C231.819 256.116 231.742 256.116 231.668 256.101L147.511 219.03C147.443 219.003 147.382 218.962 147.33 218.91C147.279 218.858 147.238 218.797 147.211 218.729C147.157 218.59 147.157 218.438 147.211 218.299L174.727 157.081C174.79 156.95 174.9 156.848 175.036 156.796C175.172 156.744 175.322 156.746 175.456 156.802L259.613 193.829C259.681 193.857 259.742 193.899 259.794 193.951C259.845 194.004 259.885 194.065 259.912 194.133C259.939 194.201 259.952 194.274 259.951 194.348C259.949 194.421 259.933 194.493 259.903 194.56L232.398 255.778C232.355 255.876 232.284 255.959 232.194 256.016C232.105 256.074 232 256.103 231.893 256.101ZM148.477 218.256L231.625 254.811L258.68 194.604L175.531 158.049L148.477 218.256Z" fill="black"/>
<path d="M165.158 199.463L172.602 182.884C172.982 181.955 173.174 180.958 173.166 179.954C173.159 178.949 172.953 177.956 172.56 177.033C172.166 176.108 171.594 175.271 170.877 174.571C170.158 173.87 169.308 173.319 168.376 172.951L166.348 172.058L152.843 202.129L154.87 203.022C156.707 203.9 158.817 204.02 160.742 203.354C162.666 202.688 164.252 201.29 165.158 199.463Z" fill="white"/>
<path d="M158.26 204.279C157.015 204.277 155.784 204.017 154.645 203.516L152.617 202.623C152.48 202.563 152.372 202.452 152.317 202.312C152.263 202.174 152.263 202.02 152.317 201.882L165.812 171.778C165.873 171.645 165.984 171.542 166.119 171.49C166.256 171.437 166.407 171.441 166.541 171.499L168.58 172.391C170.7 173.312 172.369 175.036 173.225 177.187C173.595 178.124 173.774 179.127 173.75 180.135C173.726 181.144 173.5 182.138 173.085 183.056L165.641 199.688C164.982 201.084 163.935 202.261 162.626 203.075C161.316 203.889 159.801 204.308 158.26 204.279ZM153.572 201.828L155.096 202.494C156.793 203.316 158.744 203.439 160.531 202.836C162.317 202.233 163.798 200.953 164.654 199.269L172.077 182.659C172.429 181.871 172.619 181.021 172.638 180.159C172.656 179.297 172.502 178.439 172.184 177.638C171.818 176.707 171.272 175.859 170.576 175.142C169.88 174.426 169.048 173.856 168.129 173.466L166.605 172.789L153.572 201.828Z" fill="black"/>
<path d="M227.699 246.844C227.628 246.86 227.555 246.86 227.484 246.844L164.096 219.246C164.03 219.217 163.97 219.176 163.921 219.124C163.871 219.073 163.832 219.011 163.806 218.944C163.752 218.813 163.752 218.666 163.806 218.536L185.637 169.983C185.697 169.855 185.805 169.756 185.937 169.706C186.069 169.655 186.215 169.658 186.345 169.714L248.564 197.388C248.628 197.416 248.685 197.456 248.733 197.507C248.781 197.556 248.819 197.616 248.844 197.681C248.868 197.746 248.88 197.815 248.878 197.885C248.876 197.955 248.861 198.023 248.832 198.087L228.16 246.565C228.101 246.695 227.993 246.799 227.86 246.854L227.699 246.844ZM165.029 218.439L227.42 245.597L247.673 198.108L186.42 170.876L165.029 218.439Z" fill="#005CFF"/>
<path d="M172.473 222.803C172.402 222.814 172.33 222.814 172.259 222.803C172.13 222.745 172.028 222.638 171.976 222.506C171.924 222.373 171.925 222.225 171.98 222.094L193.177 173.337C193.206 173.272 193.246 173.213 193.297 173.164C193.348 173.115 193.408 173.076 193.474 173.05C193.54 173.024 193.61 173.011 193.68 173.012C193.751 173.014 193.821 173.029 193.886 173.057C193.95 173.085 194.009 173.126 194.058 173.177C194.107 173.228 194.146 173.289 194.172 173.355C194.198 173.42 194.21 173.491 194.209 173.562C194.208 173.633 194.193 173.702 194.165 173.767L172.967 222.524C172.919 222.613 172.847 222.686 172.76 222.735C172.673 222.784 172.574 222.808 172.473 222.803Z" fill="#005CFF"/>
<path d="M231.786 237.673C231.711 237.671 231.638 237.653 231.571 237.619L168.376 209.666C168.245 209.607 168.143 209.499 168.091 209.365C168.04 209.231 168.044 209.082 168.102 208.951C168.161 208.819 168.269 208.718 168.402 208.666C168.536 208.615 168.685 208.618 168.816 208.677L232.001 236.63C232.13 236.689 232.231 236.796 232.283 236.928C232.335 237.061 232.334 237.208 232.28 237.34C232.239 237.438 232.171 237.521 232.083 237.581C231.995 237.64 231.892 237.672 231.786 237.673Z" fill="#005CFF"/>
<path d="M225.478 211.44C222.26 222.514 214.042 244.188 209.988 245.919C205.933 247.65 192.653 242.457 189.809 240.049C186.967 237.64 200.912 227.835 200.912 227.835C200.912 227.835 194.347 227.835 193.231 224.449C192.116 221.062 205.139 220.557 205.139 220.557C206.963 219.482 206.426 208.794 206.534 206.999C207.113 197.915 207.532 188.819 207.929 179.724C208.39 169.241 208.657 158.221 210.524 147.878C211.597 141.717 213.743 135.213 218.806 131.558C220.173 130.511 221.803 129.864 223.516 129.687C229.276 129.278 234.468 134.386 236.624 139.267C238.716 143.986 239.006 149.286 238.931 154.447C238.587 174.929 230.96 192.249 225.478 211.44Z" fill="#FFF4CB"/>
<path d="M207.811 246.801C202.168 246.801 191.945 242.564 189.466 240.457C189.269 240.294 189.114 240.086 189.013 239.85C188.912 239.614 188.869 239.359 188.887 239.103C189.026 236.178 196.3 230.501 199.367 228.277C197.223 228.061 193.596 227.287 192.727 224.61C192.635 224.351 192.608 224.075 192.647 223.803C192.686 223.531 192.791 223.273 192.952 223.051C194.647 220.622 203.326 220.105 204.946 220.03C206.019 218.955 206.019 211.579 206.019 209.096C206.019 208.085 206.019 207.354 206.019 206.946C206.598 197.872 207.006 188.862 207.414 179.68L207.574 175.992C207.961 166.618 208.367 156.919 210.02 147.76C210.953 142.567 212.863 135.18 218.517 131.095C219.957 129.983 221.683 129.301 223.494 129.128C229.415 128.73 234.821 133.793 237.139 139.019C239.339 143.997 239.564 149.609 239.489 154.436C239.242 169.897 234.929 183.315 230.359 197.517C228.89 202.075 227.377 206.795 226.015 211.558C223.408 220.664 214.89 244.404 210.224 246.392C209.454 246.686 208.633 246.825 207.811 246.801ZM200.912 227.298C201.025 227.298 201.136 227.333 201.228 227.399C201.32 227.464 201.39 227.557 201.427 227.664C201.461 227.774 201.459 227.892 201.423 228.002C201.386 228.112 201.317 228.208 201.224 228.277C196.933 231.286 190.067 236.877 189.96 239.156C189.949 239.245 189.961 239.336 189.995 239.418C190.029 239.501 190.083 239.574 190.153 239.629C193.124 242.156 206.094 246.994 209.784 245.424C213.303 243.919 221.413 223.674 224.952 211.289L225.478 211.44L224.952 211.289C226.326 206.505 227.849 201.774 229.319 197.216C233.857 183.088 238.158 169.746 238.394 154.436C238.459 149.728 238.255 144.266 236.141 139.481C234.028 134.697 228.954 129.805 223.548 130.225C221.937 130.386 220.404 131.001 219.127 131.998C213.763 135.848 211.962 142.954 211.05 147.975C209.408 157.059 209.011 166.725 208.625 176.057L208.464 179.745C208.057 188.937 207.65 197.947 207.07 207.032C207.07 207.386 207.07 208.106 207.07 209.085C207.07 215.998 206.856 220.17 205.418 221.019C205.343 221.065 205.258 221.091 205.171 221.094C201.374 221.256 194.937 222.083 193.843 223.664C193.777 223.75 193.735 223.852 193.72 223.959C193.705 224.067 193.718 224.175 193.757 224.276C194.733 227.266 200.773 227.298 200.923 227.298H200.912Z" fill="black"/>
<path d="M207.692 163.575C207.618 163.59 207.542 163.59 207.467 163.575L176.454 148.19C176.388 148.167 176.327 148.131 176.275 148.083C176.224 148.035 176.183 147.977 176.156 147.912C176.129 147.847 176.116 147.777 176.118 147.707C176.12 147.637 176.137 147.568 176.168 147.504C176.199 147.441 176.243 147.385 176.297 147.34C176.351 147.295 176.414 147.262 176.481 147.244C176.549 147.225 176.62 147.221 176.689 147.233C176.759 147.244 176.824 147.269 176.882 147.308L207.907 162.693C208.023 162.751 208.112 162.852 208.154 162.975C208.196 163.098 208.188 163.232 208.132 163.349C208.085 163.421 208.019 163.48 207.942 163.52C207.865 163.559 207.779 163.578 207.692 163.575Z" fill="black"/>
<defs>
<linearGradient id="paint0_linear" x1="109.933" y1="24.3234" x2="169.273" y2="30.2901" gradientUnits="userSpaceOnUse">
<stop stop-color="#00DADA"/>
<stop offset="1" stop-color="#005CFF"/>
</linearGradient>
</defs>
</svg>
