<svg width="1600" height="335" viewBox="0 0 1600 335" fill="none" xmlns="http://www.w3.org/2000/svg">
<path fill-rule="evenodd" clip-rule="evenodd" d="M102.676 45.3073C72.6434 37.665 37.1951 22.001 0 0V335H1600V333.306C1585.55 326.447 1570.99 318.803 1556.09 310.983L1556.09 310.982C1508.56 286.041 1457.63 259.311 1396.21 250.546C1333.75 241.633 1285.42 256.934 1228.06 275.094C1162.21 295.943 1084.45 320.56 959.742 316.634C772.719 310.745 665.362 243.851 552.874 173.76L552.864 173.754C525.012 156.4 496.846 138.85 467.078 121.981C372.867 68.5946 305.48 65.314 235.582 61.911C194.191 59.8959 151.919 57.8379 102.676 45.3073Z" fill="#193040"/>
</svg>
