<svg width="1613" height="351" viewBox="0 0 1613 351" fill="none" xmlns="http://www.w3.org/2000/svg">
<path fill-rule="evenodd" clip-rule="evenodd" d="M1613 0H0V0.130859C37.1144 22.063 72.4818 37.6802 102.455 45.3071C151.698 57.8379 193.97 59.896 235.361 61.9111C305.259 65.314 372.646 68.5947 466.857 121.981C507.326 144.914 544.835 171.581 582.617 198.442C684.876 271.143 789.138 345.269 959.521 350.634C1086.29 354.625 1164.54 319.086 1231.09 288.862C1287.04 263.454 1334.72 241.802 1395.99 250.546C1457.41 259.312 1508.35 286.042 1555.87 310.983C1575.32 321.193 1594.2 331.103 1613 339.358V0Z" fill="#193040"/>
</svg>
