<svg width="91" height="98" viewBox="0 0 91 98" fill="none" xmlns="http://www.w3.org/2000/svg">
<path d="M55.2502 34.0878C55.2502 34.9848 55.9765 35.7128 56.8752 35.7128H73.1251C74.0238 35.7128 74.7501 34.9848 74.7501 34.0878C74.7501 33.1909 74.0238 32.4629 73.1251 32.4629H56.8752C55.9765 32.4627 55.2502 33.1907 55.2502 34.0878Z" fill="url(#paint0_linear)"/>
<path d="M65.0002 43.8378C65.0002 44.7348 65.7265 45.4628 66.6252 45.4628H76.3752C77.2738 45.4628 78.0001 44.7348 78.0001 43.8378C78.0001 42.9409 77.2738 42.2129 76.3752 42.2129H66.6252C65.7265 42.2127 65.0002 42.9407 65.0002 43.8378Z" fill="url(#paint1_linear)"/>
<path d="M63.375 25.9628C64.2737 25.9628 64.9999 25.2348 64.9999 24.3378C64.9999 23.4409 64.2737 22.7129 63.375 22.7129H60.1249C59.2263 22.7129 58.5 23.4409 58.5 24.3378C58.5 25.2348 59.2263 25.9628 60.1249 25.9628H63.375Z" fill="url(#paint2_linear)"/>
<path d="M43.8752 42.2129C42.9765 42.2129 42.2502 42.9409 42.2502 43.8378C42.2502 44.7348 42.9765 45.4628 43.8752 45.4628H60.1251C61.0238 45.4628 61.7501 44.7348 61.7501 43.8378C61.7501 42.9409 61.0238 42.2129 60.1251 42.2129H43.8752Z" fill="url(#paint3_linear)"/>
<path d="M52 87.7131H21.125C18.4373 87.7131 16.25 85.5258 16.25 82.8381V8.08783C16.25 7.1909 15.5237 6.46289 14.6251 6.46289C10.145 6.46289 6.5 10.1077 6.5 14.588C6.5 15.4849 7.2263 16.2129 8.12494 16.2129C9.02358 16.2129 9.74988 15.4849 9.74988 14.588C9.74988 12.4689 11.1084 10.6619 12.9999 9.9908V82.8381C12.9999 87.3181 16.6448 90.9631 21.125 90.9631H52C52.8986 90.9631 53.6249 90.2351 53.6249 89.3382C53.6249 88.4413 52.8986 87.7131 52 87.7131Z" fill="url(#paint4_linear)"/>
<path d="M27.6252 35.7128H50.3753C51.2739 35.7128 52.0002 34.9848 52.0002 34.0878C52.0002 33.1909 51.2739 32.4629 50.3753 32.4629H27.6252C26.7265 32.4629 26.0002 33.1909 26.0002 34.0878C26.0002 34.9848 26.7265 35.7128 27.6252 35.7128Z" fill="url(#paint5_linear)"/>
<path d="M27.6252 25.9628H34.1251C35.0238 25.9628 35.7501 25.2348 35.7501 24.3378C35.7501 23.4409 35.0238 22.7129 34.1251 22.7129H27.6252C26.7265 22.7129 26.0002 23.4409 26.0002 24.3378C26.0002 25.2348 26.7265 25.9628 27.6252 25.9628Z" fill="url(#paint6_linear)"/>
<path d="M53.625 22.7129H40.6249C39.7263 22.7129 39 23.4409 39 24.3378C39 25.2348 39.7263 25.9628 40.6249 25.9628H53.625C54.5237 25.9628 55.25 25.2348 55.25 24.3378C55.2501 23.4409 54.5237 22.7129 53.625 22.7129Z" fill="url(#paint7_linear)"/>
<path d="M76.3752 0H14.625C6.57955 0 0.0308497 6.5308 0 14.5681V14.5875V14.6054V14.625V14.6444C0.0211377 19.8266 2.81779 24.6544 7.3108 27.2545C8.08756 27.703 9.08046 27.4381 9.53045 26.6631C9.98215 25.8863 9.71402 24.8919 8.93897 24.4432C5.43563 22.4136 3.25654 18.6469 3.25007 14.6056C3.26149 8.34274 8.35911 3.25007 14.625 3.25007H76.3752C82.646 3.25007 87.7501 8.35264 87.7501 14.625V82.8751C87.7501 83.6989 87.5193 84.5261 87.0855 85.2639C86.6321 86.0374 86.8888 87.0335 87.6623 87.4885C87.9223 87.6412 88.2051 87.7128 88.4846 87.7128C89.042 87.7128 89.5847 87.4268 89.8869 86.9117C90.615 85.675 91 84.2792 91 82.8751V14.625C91.0002 6.56012 84.4401 0 76.3752 0Z" fill="url(#paint8_linear)"/>
<path d="M81.25 74.7129C81.25 69.3357 76.8772 64.9629 71.5 64.9629C66.1228 64.9629 61.75 69.3357 61.75 74.7129C61.75 80.0901 66.1228 84.4629 71.5 84.4629C76.8772 84.4629 81.25 80.0901 81.25 74.7129ZM71.5 81.2129C67.9152 81.2129 65.0001 78.2976 65.0001 74.7129C65.0001 71.1283 67.9154 68.213 71.5 68.213C75.0849 68.213 78 71.1283 78 74.7129C78 78.2976 75.0849 81.2129 71.5 81.2129Z" fill="url(#paint9_linear)"/>
<path d="M68.5671 86.0901C67.792 85.6417 66.7974 85.9081 66.3472 86.6848L62.8486 92.7477L62.293 91.9093C62.0119 91.482 61.5455 91.2121 61.0352 91.183L60.0309 91.1228L63.5881 84.9641C64.0365 84.1873 63.7701 83.1929 62.9934 82.7443C62.2166 82.2941 61.2222 82.5607 60.772 83.339L55.902 91.7745C55.6209 92.262 55.6127 92.8616 55.8791 93.3571C56.1455 93.8526 56.6494 94.1762 57.2133 94.2085L60.0293 94.3774L61.5844 96.7321C61.8851 97.1888 62.3952 97.4617 62.9397 97.4617H62.9901C63.5508 97.4438 64.0659 97.1366 64.3487 96.6491L69.1635 88.3096C69.612 87.5332 69.3455 86.5386 68.5671 86.0901Z" fill="url(#paint10_linear)"/>
<path d="M82.2706 83.4151C81.8204 82.6369 80.8243 82.3703 80.0508 82.8204C79.2725 83.2689 79.0059 84.2635 79.4543 85.0401L82.9693 91.1224L81.965 91.1826C81.4548 91.2134 80.9884 91.4833 80.7056 91.9089L80.1532 92.7474L76.6725 86.7153C76.2208 85.9385 75.2262 85.6721 74.4512 86.1206C73.6744 86.569 73.408 87.5637 73.8565 88.3404L78.6534 96.6491C78.9362 97.1366 79.4513 97.4437 80.0119 97.4616H80.0624C80.6051 97.4616 81.117 97.1886 81.4192 96.7321L82.9727 94.3791L85.7873 94.2085C86.3511 94.176 86.8548 93.8526 87.1214 93.3571C87.388 92.8616 87.3781 92.2619 87.0988 91.7744L82.2706 83.4151Z" fill="url(#paint11_linear)"/>
<path d="M27.6252 45.4628H37.3752C38.2738 45.4628 39.0001 44.7348 39.0001 43.8378C39.0001 42.9409 38.2738 42.2129 37.3752 42.2129H27.6252C26.7265 42.2129 26.0002 42.9409 26.0002 43.8378C26.0002 44.7348 26.7265 45.4628 27.6252 45.4628Z" fill="url(#paint12_linear)"/>
<path d="M27.6252 55.2128H47.1252C48.0238 55.2128 48.7501 54.4848 48.7501 53.5878C48.7501 52.6909 48.0238 51.9629 47.1252 51.9629H27.6252C26.7265 51.9629 26.0002 52.6909 26.0002 53.5878C26.0002 54.4848 26.7265 55.2128 27.6252 55.2128Z" fill="url(#paint13_linear)"/>
<path d="M27.7974 75.4391C28.1971 76.2417 29.1738 76.5668 29.9764 76.1671C30.7791 75.7657 31.1059 74.7891 30.7027 73.9863C29.094 70.7688 28.7333 67.8828 29.7342 66.2626C30.2672 65.3998 31.1967 64.9626 32.5 64.9626C33.2751 64.9626 33.5643 65.229 33.7464 65.4891C34.9569 67.2344 33.8066 72.5497 32.6025 75.7672C32.3343 76.4838 32.6025 77.2899 33.2459 77.7042C33.8862 78.1154 34.7328 78.0261 35.274 77.4866C35.9679 76.7944 36.7203 76.1037 37.3752 75.5431V76.3377C37.3752 76.9941 37.7702 77.5873 38.3778 77.8375C38.9855 78.091 39.6827 77.9512 40.149 77.4866C40.8917 76.7456 41.7528 76.0191 42.4776 75.496C42.4582 75.5366 42.4386 75.5756 42.4191 75.6129C42.1704 76.1166 42.198 76.7148 42.494 77.1924C42.7914 77.6702 43.313 77.9627 43.8752 77.9627H50.3751C51.2737 77.9627 52 77.2346 52 76.3377C52 75.4408 51.2737 74.7128 50.3751 74.7128H46.1453C46.2769 73.9393 46.2445 73.1528 45.8528 72.519C45.4384 71.8479 44.7169 71.4627 43.8752 71.4627C42.8708 71.4627 41.6896 72.0736 40.6106 72.8309C40.5278 72.1224 40.1085 71.5391 39.4715 71.2759C39.0377 71.0971 38.4786 70.8632 37.1218 71.6773C37.6563 68.8774 37.8124 65.6502 36.4181 63.6385C35.8087 62.7593 34.6355 61.7129 32.5002 61.7129C30.0659 61.7129 28.1013 62.722 26.9688 64.5551C25.3486 67.1777 25.6491 71.1443 27.7974 75.4391Z" fill="url(#paint14_linear)"/>
<path d="M71.5001 53.5878C71.5001 52.6909 70.7738 51.9629 69.8751 51.9629H53.6252C52.7265 51.9629 52.0002 52.6909 52.0002 53.5878C52.0002 54.4848 52.7265 55.2128 53.6252 55.2128H69.8751C70.7738 55.2128 71.5001 54.4848 71.5001 53.5878Z" fill="url(#paint15_linear)"/>
<defs>
<linearGradient id="paint0_linear" x1="55.2502" y1="32.4629" x2="73.8046" y2="38.5804" gradientUnits="userSpaceOnUse">
<stop stop-color="#00DADA"/>
<stop offset="1" stop-color="#005CFF"/>
</linearGradient>
<linearGradient id="paint1_linear" x1="65.0002" y1="42.2129" x2="78.0824" y2="45.0884" gradientUnits="userSpaceOnUse">
<stop stop-color="#00DADA"/>
<stop offset="1" stop-color="#005CFF"/>
</linearGradient>
<linearGradient id="paint2_linear" x1="58.5" y1="22.7129" x2="65.2753" y2="23.4575" gradientUnits="userSpaceOnUse">
<stop stop-color="#00DADA"/>
<stop offset="1" stop-color="#005CFF"/>
</linearGradient>
<linearGradient id="paint3_linear" x1="42.2502" y1="42.2129" x2="60.8046" y2="48.3304" gradientUnits="userSpaceOnUse">
<stop stop-color="#00DADA"/>
<stop offset="1" stop-color="#005CFF"/>
</linearGradient>
<linearGradient id="paint4_linear" x1="6.5" y1="6.46289" x2="56.1678" y2="7.98496" gradientUnits="userSpaceOnUse">
<stop stop-color="#00DADA"/>
<stop offset="1" stop-color="#005CFF"/>
</linearGradient>
<linearGradient id="paint5_linear" x1="26.0002" y1="32.4629" x2="48.9865" y2="42.568" gradientUnits="userSpaceOnUse">
<stop stop-color="#00DADA"/>
<stop offset="1" stop-color="#005CFF"/>
</linearGradient>
<linearGradient id="paint6_linear" x1="26.0002" y1="22.7129" x2="36.0137" y2="24.3636" gradientUnits="userSpaceOnUse">
<stop stop-color="#00DADA"/>
<stop offset="1" stop-color="#005CFF"/>
</linearGradient>
<linearGradient id="paint7_linear" x1="39" y1="22.7129" x2="54.9396" y2="27.0924" gradientUnits="userSpaceOnUse">
<stop stop-color="#00DADA"/>
<stop offset="1" stop-color="#005CFF"/>
</linearGradient>
<linearGradient id="paint8_linear" x1="0" y1="0" x2="95.6894" y2="5.45518" gradientUnits="userSpaceOnUse">
<stop stop-color="#00DADA"/>
<stop offset="1" stop-color="#005CFF"/>
</linearGradient>
<linearGradient id="paint9_linear" x1="61.75" y1="64.9629" x2="82.2596" y2="66.0899" gradientUnits="userSpaceOnUse">
<stop stop-color="#00DADA"/>
<stop offset="1" stop-color="#005CFF"/>
</linearGradient>
<linearGradient id="paint10_linear" x1="55.6851" y1="82.5254" x2="70.0972" y2="83.2516" gradientUnits="userSpaceOnUse">
<stop stop-color="#00DADA"/>
<stop offset="1" stop-color="#005CFF"/>
</linearGradient>
<linearGradient id="paint11_linear" x1="73.6387" y1="82.6016" x2="88.0297" y2="83.3294" gradientUnits="userSpaceOnUse">
<stop stop-color="#00DADA"/>
<stop offset="1" stop-color="#005CFF"/>
</linearGradient>
<linearGradient id="paint12_linear" x1="26.0002" y1="42.2129" x2="39.0824" y2="45.0884" gradientUnits="userSpaceOnUse">
<stop stop-color="#00DADA"/>
<stop offset="1" stop-color="#005CFF"/>
</linearGradient>
<linearGradient id="paint13_linear" x1="26.0002" y1="51.9629" x2="46.9068" y2="60.0048" gradientUnits="userSpaceOnUse">
<stop stop-color="#00DADA"/>
<stop offset="1" stop-color="#005CFF"/>
</linearGradient>
<linearGradient id="paint14_linear" x1="25.9382" y1="61.7129" x2="53.2202" y2="64.1173" gradientUnits="userSpaceOnUse">
<stop stop-color="#00DADA"/>
<stop offset="1" stop-color="#005CFF"/>
</linearGradient>
<linearGradient id="paint15_linear" x1="52.0002" y1="51.9629" x2="70.5546" y2="58.0804" gradientUnits="userSpaceOnUse">
<stop stop-color="#00DADA"/>
<stop offset="1" stop-color="#005CFF"/>
</linearGradient>
</defs>
</svg>
