<svg width="26" height="26" viewBox="0 0 26 26" fill="none" xmlns="http://www.w3.org/2000/svg">
<path fill-rule="evenodd" clip-rule="evenodd" d="M14.1818 7.09091V2.42855C19.4999 3.01644 23.6364 7.52516 23.6364 13C23.6364 18.8743 18.8743 23.6364 13 23.6364C7.1257 23.6364 2.36364 18.8743 2.36364 13C2.36364 10.1326 3.50192 7.44861 5.49309 5.46485L3.82486 3.79039C1.39294 6.21327 0 9.49777 0 13C0 20.1797 5.8203 26 13 26C20.1797 26 26 20.1797 26 13C26 5.8203 20.1797 0 13 0H11.8182V7.09091H14.1818ZM13 10.6364C12.7883 10.6364 12.583 10.6642 12.3878 10.7164L7.92659 6.25525L6.25525 7.92659L10.7164 12.3878C10.6642 12.583 10.6364 12.7883 10.6364 13C10.6364 14.3054 11.6946 15.3636 13 15.3636C14.3054 15.3636 15.3636 14.3054 15.3636 13C15.3636 11.6946 14.3054 10.6364 13 10.6364Z" fill="url(#paint0_linear)"/>
<defs>
<linearGradient id="paint0_linear" x1="0" y1="0" x2="27.3461" y2="1.50267" gradientUnits="userSpaceOnUse">
<stop stop-color="#00DADA"/>
<stop offset="1" stop-color="#005CFF"/>
</linearGradient>
</defs>
</svg>
