<svg width="26" height="26" viewBox="0 0 26 26" fill="none" xmlns="http://www.w3.org/2000/svg">
<path fill-rule="evenodd" clip-rule="evenodd" d="M0 23.4C0 24.8359 1.16406 26 2.6 26H20.0385L26 20.0385V2.6C26 1.16406 24.8359 0 23.4 0H2.6C1.16406 0 0 1.16406 0 2.6V23.4ZM2.6 2.6H23.4V16.9H19.5C18.0641 16.9 16.9 18.0641 16.9 19.5V23.4H2.6V2.6ZM19.5 19.5H22.8615L19.5 22.8615V19.5ZM6.5 16.9V19.5H14.3V16.9H6.5ZM6.5 14.3V11.7H19.5V14.3H6.5ZM6.5 6.5V9.1H19.5V6.5H6.5Z" fill="url(#paint0_linear)"/>
<defs>
<linearGradient id="paint0_linear" x1="0" y1="0" x2="27.3461" y2="1.50267" gradientUnits="userSpaceOnUse">
<stop stop-color="#00DADA"/>
<stop offset="1" stop-color="#005CFF"/>
</linearGradient>
</defs>
</svg>
