<svg width="27" height="27" viewBox="0 0 27 27" fill="none" xmlns="http://www.w3.org/2000/svg">
<path fill-rule="evenodd" clip-rule="evenodd" d="M0.208374 13.5C0.208374 20.8408 6.15926 26.7917 13.5 26.7917C20.8408 26.7917 26.7917 20.8408 26.7917 13.5C26.7917 6.15923 20.8408 0.208344 13.5 0.208344C6.15926 0.208344 0.208374 6.15923 0.208374 13.5ZM24.375 13.5C24.375 19.5061 19.5061 24.375 13.5 24.375C7.49394 24.375 2.62504 19.5061 2.62504 13.5C2.62504 7.49391 7.49394 2.62501 13.5 2.62501C19.5061 2.62501 24.375 7.49391 24.375 13.5ZM8.16126 20.6758L9.18088 14.731L4.86171 10.5208L10.8307 9.6535L13.5 4.24472L16.1694 9.6535L22.1384 10.5208L17.8192 14.731L18.8388 20.6758L13.5 17.869L8.16126 20.6758ZM15.6292 16.2581L13.5001 15.1387L11.3709 16.2581L11.7776 13.8873L10.0551 12.2083L12.4355 11.8624L13.5001 9.70531L14.5646 11.8624L16.9451 12.2083L15.2226 13.8873L15.6292 16.2581Z" fill="url(#paint0_linear)"/>
<defs>
<linearGradient id="paint0_linear" x1="0.208374" y1="0.208344" x2="28.168" y2="1.74472" gradientUnits="userSpaceOnUse">
<stop stop-color="#00DADA"/>
<stop offset="1" stop-color="#005CFF"/>
</linearGradient>
</defs>
</svg>
