<svg width="94" height="94" viewBox="0 0 94 94" fill="none" xmlns="http://www.w3.org/2000/svg">
<path d="M92.4839 45.4839H90.9677V36.1263C90.9677 32.9546 89.7336 29.9739 87.4913 27.7345C85.2489 25.4922 82.2682 24.2581 79.098 24.2581H77.3226V22.6176C80.9416 20.5163 83.3871 16.6077 83.3871 12.129C83.3871 5.44139 77.9457 0 71.2581 0C64.5704 0 59.129 5.44139 59.129 12.129C59.129 16.6062 61.5745 20.5163 65.1935 22.6176V24.2581H63.4182C60.2479 24.2581 57.2672 25.4922 55.0249 27.7345C52.7825 29.9754 51.5484 32.9546 51.5484 36.1263V45.4839H48.5161V40.9355C48.5161 40.0971 47.8369 39.4194 47 39.4194H42.4516V38.8993C42.4516 34.4783 43.9435 30.2892 46.6771 26.8946C47.2411 27.1448 47.8612 27.2903 48.5161 27.2903C51.0238 27.2903 53.0645 25.2496 53.0645 22.7419C53.0645 20.2343 51.0238 18.1935 48.5161 18.1935C46.0085 18.1935 43.9677 20.2343 43.9677 22.7419C43.9677 23.4818 44.1618 24.1686 44.4756 24.7872C41.2023 28.7549 39.4194 33.6899 39.4194 38.8993V39.4194H34.871C34.0341 39.4194 33.3548 40.0971 33.3548 40.9355V45.4839H31.8387C31.0018 45.4839 30.3226 46.1616 30.3226 47V53.0645C30.3226 53.9029 31.0018 54.5806 31.8387 54.5806H33.3548V63.6774C29.1749 63.6774 25.7742 67.0781 25.7742 71.2581C25.7742 73.5095 26.7809 75.5123 28.344 76.9026C25.9698 77.9851 24.0003 79.8045 22.7419 82.0772C21.4835 79.806 19.5141 77.9866 17.1398 76.9026C18.703 75.5123 19.7097 73.5095 19.7097 71.2581C19.7097 67.0781 16.309 63.6774 12.129 63.6774C7.94906 63.6774 4.54839 67.0781 4.54839 71.2581C4.54839 73.5095 5.5551 75.5123 7.11823 76.9026C2.92613 78.8145 0 83.0354 0 87.9355V92.4839C0 93.3223 0.679226 94 1.51613 94H65.1935C66.0305 94 66.7097 93.3223 66.7097 92.4839V90.9677H89.4516C90.2885 90.9677 90.9677 90.29 90.9677 89.4516V54.5806H92.4839C93.3208 54.5806 94 53.9029 94 53.0645V47C94 46.1616 93.3208 45.4839 92.4839 45.4839ZM48.5161 21.2258C49.3515 21.2258 50.0323 21.905 50.0323 22.7419C50.0323 23.5788 49.3515 24.2581 48.5161 24.2581C47.6807 24.2581 47 23.5788 47 22.7419C47 21.905 47.6807 21.2258 48.5161 21.2258ZM87.9355 36.1263V45.4839H84.9032V39.4194H81.871V45.4839H72.7742V34.2918L76.6449 36.2264C76.8571 36.334 77.0906 36.3871 77.3226 36.3871C77.5197 36.3871 77.7168 36.3492 77.9033 36.2719C78.3096 36.1036 78.6219 35.767 78.7614 35.3516L81.3494 27.589C82.8474 27.9817 84.224 28.7549 85.349 29.8799C87.0167 31.5476 87.9355 33.7657 87.9355 36.1263V36.1263ZM65.9516 27.2903L68.9551 31.2944L66.079 32.7332L64.2657 27.2903H65.9516ZM76.5645 27.2903H78.252L76.4387 32.7332L73.5626 31.2944L76.5645 27.2903ZM71.2581 3.03226C75.7155 3.03226 79.427 6.25706 80.2002 10.4946C77.3286 10.1308 74.6709 8.84813 72.5923 6.76952L72.333 6.50874C71.7645 5.93716 70.7547 5.93716 70.1862 6.50874L69.9284 6.768C67.8483 8.84813 65.1905 10.1308 62.319 10.4931C63.0892 6.25706 66.8006 3.03226 71.2581 3.03226ZM62.275 13.5648C65.6075 13.2343 68.7246 11.8865 71.2581 9.6729C73.7915 11.8849 76.9072 13.2343 80.2411 13.5648C79.5513 17.9009 75.7852 21.2258 71.2581 21.2258C66.7309 21.2258 62.9648 17.9009 62.275 13.5648ZM71.2581 24.2581C72.3072 24.2581 73.3185 24.111 74.2903 23.8593V25.2693L71.2581 29.3113L68.2258 25.2693V23.8593C69.1976 24.111 70.2089 24.2581 71.2581 24.2581ZM54.5806 36.1263C54.5806 33.7657 55.4994 31.5461 57.1687 29.8784C58.2936 28.7549 59.6703 27.9802 61.1682 27.5875L63.7563 35.3501C63.8957 35.7655 64.2081 36.1021 64.6144 36.2704C64.7994 36.3492 64.9965 36.3871 65.1935 36.3871C65.4255 36.3871 65.659 36.334 65.8713 36.2279L69.7419 34.2918V45.4839H60.6452V39.4194H57.6129V45.4839H54.5806V36.1263ZM36.3871 42.4516H45.4839V45.4839H36.3871V42.4516ZM28.8065 71.2581C28.8065 68.7504 30.8472 66.7097 33.3548 66.7097C35.8625 66.7097 37.9032 68.7504 37.9032 71.2581C37.9032 73.7657 35.8625 75.8065 33.3548 75.8065C30.8472 75.8065 28.8065 73.7657 28.8065 71.2581ZM7.58065 71.2581C7.58065 68.7504 9.62135 66.7097 12.129 66.7097C14.6367 66.7097 16.6774 68.7504 16.6774 71.2581C16.6774 73.7657 14.6367 75.8065 12.129 75.8065C9.62135 75.8065 7.58065 73.7657 7.58065 71.2581ZM3.03226 87.9355C3.03226 82.9186 7.11216 78.8387 12.129 78.8387C17.1459 78.8387 21.2258 82.9186 21.2258 87.9355V90.9677H3.03226V87.9355ZM24.2581 87.9355C24.2581 82.9186 28.338 78.8387 33.3548 78.8387C38.3717 78.8387 42.4516 82.9186 42.4516 87.9355V90.9677H24.2581V87.9355ZM63.6774 90.9677H45.4839V87.9355C45.4839 82.9186 49.5638 78.8387 54.5806 78.8387C59.5975 78.8387 63.6774 82.9186 63.6774 87.9355V90.9677ZM50.0323 71.2581C50.0323 68.7504 52.073 66.7097 54.5806 66.7097C57.0883 66.7097 59.129 68.7504 59.129 71.2581C59.129 73.7657 57.0883 75.8065 54.5806 75.8065C52.073 75.8065 50.0323 73.7657 50.0323 71.2581ZM87.9355 87.9355H66.7097C66.7097 83.0354 63.7835 78.8145 59.5915 76.9026C61.1546 75.5123 62.1613 73.5095 62.1613 71.2581C62.1613 67.0781 58.7606 63.6774 54.5806 63.6774C50.4007 63.6774 47 67.0781 47 71.2581C47 73.5095 48.0067 75.5123 49.5698 76.9026C47.1956 77.9851 45.2261 79.8045 43.9677 82.0772C42.7094 79.806 40.7399 77.9866 38.3656 76.9026C39.9288 75.5123 40.9355 73.5095 40.9355 71.2581C40.9355 68.1576 39.06 65.4937 36.3871 64.3203V54.5806H87.9355V87.9355ZM90.9677 51.5484H33.3548V48.5161H90.9677V51.5484Z" fill="url(#paint0_linear)"/>
<defs>
<linearGradient id="paint0_linear" x1="0" y1="0" x2="98.8668" y2="5.43272" gradientUnits="userSpaceOnUse">
<stop stop-color="#00DADA"/>
<stop offset="1" stop-color="#005CFF"/>
</linearGradient>
</defs>
</svg>
