<svg width="95" height="88" viewBox="0 0 95 88" fill="none" xmlns="http://www.w3.org/2000/svg">
<path d="M94.141 64.3659V36.0646C94.141 32.6509 91.3636 29.8738 87.9501 29.8738H49.1734V29.1466C49.1734 28.1917 48.8356 27.315 48.2743 26.6276C48.6907 26.1179 48.9813 25.5074 49.1056 24.8459C50.6833 23.9157 51.6891 22.2119 51.6891 20.3416C51.6891 19.4583 51.4617 18.5951 51.0354 17.8259C51.4615 17.0568 51.6891 16.1937 51.6891 15.3102C51.6891 13.4476 50.6912 11.759 49.144 10.8282C49.1637 10.6458 49.1734 10.4627 49.1734 10.2788C49.1734 7.62946 47.1998 5.43223 44.6454 5.08049C43.7129 3.51337 42.0152 2.5157 40.1522 2.5157C39.913 2.5157 39.6714 2.53408 39.4294 2.57086C38.3889 1.72837 37.0892 1.25785 35.7499 1.25785C35.5709 1.25785 35.3917 1.26686 35.21 1.28488C34.0914 0.451766 32.7449 0 31.3477 0C29.9504 0 28.604 0.451766 27.4851 1.28488C27.3033 1.26686 27.124 1.25785 26.9453 1.25785C25.6025 1.25785 24.3235 1.70961 23.2848 2.54144C21.628 2.70674 20.1533 3.65936 19.3077 5.08067C16.7534 5.43223 14.7798 7.62946 14.7798 10.2788C14.7798 10.4625 14.7895 10.6458 14.8092 10.8282C13.2621 11.759 12.2641 13.4476 12.2641 15.3102C12.2641 16.1937 12.4915 17.0568 12.9177 17.8259C12.4915 18.5951 12.2641 19.4583 12.2641 20.3416C12.2641 22.2119 13.2696 23.9157 14.8478 24.8459C14.9171 25.2151 15.0398 25.5677 15.2056 25.8965C14.1884 26.6204 13.5219 27.8058 13.5219 29.1464V31.6621C13.5219 33.8619 15.3115 35.6518 17.5117 35.6518H18.1668L18.274 36.3215C18.5224 37.8745 19.3246 39.2844 20.533 40.2914L21.0692 40.7382V44.8983C21.0692 45.3583 20.7735 45.7586 20.3337 45.8937L9.30892 49.2859C6.56229 50.1312 4.71679 52.6298 4.71679 55.5036V73.7997C4.71679 75.6176 5.34673 77.2905 6.39736 78.6149H3.04634C1.36652 78.6149 0 79.9814 0 81.6612V84.8058C0 86.4856 1.36652 87.8521 3.04634 87.8521H91.0946C92.7745 87.8521 94.141 86.4856 94.141 84.8058V81.6612C94.141 79.9814 92.7745 78.6149 91.0946 78.6149H75.0899L74.0154 70.5568H87.9501C91.3636 70.5568 94.141 67.7797 94.141 64.3659ZM17.5113 32.7039C16.9371 32.7039 16.4697 32.2367 16.4697 31.6623V29.1466C16.4697 28.766 16.6771 28.4359 16.9827 28.2541L17.6948 32.7039H17.5113ZM17.7288 24.1589C17.7347 24.1142 17.7402 24.0698 17.7443 24.0245C17.8055 23.3508 17.4001 22.7218 16.7613 22.4991C15.8346 22.1763 15.212 21.3093 15.212 20.3418C15.212 19.6289 15.5386 19.1169 15.8124 18.8128C16.3173 18.2519 16.3173 17.4003 15.8122 16.8395C15.5382 16.5353 15.2119 16.0233 15.2119 15.3104C15.2119 14.2833 15.912 13.3765 16.9149 13.1051C17.3212 12.9949 17.6614 12.7166 17.8489 12.3396C18.0368 11.9629 18.0545 11.5236 17.8976 11.1329C17.7846 10.8521 17.7274 10.5648 17.7274 10.2792C17.7274 9.02926 18.7298 8.00897 19.9731 7.98029C20.0358 7.98874 20.0989 7.99573 20.1631 7.99959C20.8232 8.03747 21.4259 7.63608 21.6429 7.01313C21.9604 6.10151 22.8044 5.48445 23.7528 5.46441C23.7813 5.46643 23.8099 5.46772 23.8388 5.46808C24.2373 5.47286 24.6149 5.32319 24.897 5.04647C25.4497 4.50443 26.1771 4.20582 26.9449 4.20582C27.1437 4.20582 27.3544 4.23156 27.589 4.28433C28.0654 4.39153 28.565 4.25565 28.9215 3.92101C29.5899 3.29383 30.4513 2.94834 31.3475 2.94834C32.2437 2.94834 33.1051 3.29383 33.7733 3.92119C34.1296 4.25583 34.629 4.3919 35.1058 4.28452C35.3404 4.23156 35.5511 4.20601 35.7499 4.20601C36.573 4.20601 37.3396 4.55131 37.9083 5.17812C38.3021 5.61224 38.9157 5.77165 39.471 5.58447C39.7119 5.50339 39.9349 5.46385 40.1524 5.46385C41.1199 5.46385 41.9871 6.08643 42.3099 7.01295C42.5269 7.63572 43.1302 8.03876 43.7897 7.99941C43.8498 7.99591 43.909 7.9893 43.9793 7.9801C45.2226 8.0086 46.2252 9.02908 46.2252 10.279C46.2252 10.5646 46.1681 10.852 46.0552 11.1325C45.8981 11.5233 45.9158 11.9625 46.1037 12.3395C46.2916 12.7164 46.6316 12.9949 47.0381 13.1049C48.0406 13.3763 48.7409 14.2831 48.7409 15.3102C48.7409 16.0231 48.4144 16.5352 48.1406 16.8393C47.6355 17.3999 47.6355 18.2518 48.1406 18.8126C48.4146 19.1167 48.7409 19.6288 48.7409 20.3416C48.7409 21.3091 48.1184 22.1763 47.1917 22.499C46.5529 22.7216 46.1475 23.3506 46.2087 24.0243C46.2127 24.0696 46.2183 24.1144 46.2245 24.1591C46.205 24.6067 45.8917 24.9948 45.4491 25.1125C45.4019 25.125 43.9922 25.1568 43.9922 25.1568L43.1445 20.071C43.0191 19.3188 42.3392 18.7865 41.5805 18.8435C41.5121 18.8486 41.4452 18.8569 41.3779 18.8661L41.3693 18.8672C40.6139 18.8538 39.9152 18.47 39.494 17.8346C39.2208 17.4229 38.7598 17.1752 38.2656 17.1752C37.7715 17.1752 37.3102 17.4229 37.0371 17.8344C36.6082 18.4812 35.892 18.8674 35.1208 18.8674C34.3499 18.8674 33.6337 18.4812 33.2046 17.8344C32.9313 17.4227 32.4704 17.175 31.9761 17.175C31.4821 17.175 31.0207 17.4227 30.7477 17.8342C30.3187 18.4811 29.6026 18.8672 28.8314 18.8672C28.0604 18.8672 27.3443 18.4811 26.9151 17.8342C26.6419 17.4225 26.1809 17.1748 25.6867 17.1748C25.1926 17.1748 24.7313 17.4225 24.4583 17.834C24.0368 18.4695 23.3381 18.8532 22.583 18.8666L22.5743 18.8655C22.5074 18.8563 22.4399 18.8481 22.3715 18.8429C21.6131 18.785 20.9331 19.3184 20.8077 20.0704L19.9603 25.1568C19.9603 25.1568 18.5507 25.1252 18.5035 25.1127C18.0613 24.995 17.7478 24.6065 17.7288 24.1589ZM46.2254 29.1466V29.8738H45.4532L45.7124 28.2541C46.018 28.4359 46.2254 28.766 46.2254 29.1466ZM19.9443 28.1049H20.1438C21.4846 28.1049 22.6177 27.1448 22.8386 25.8222L23.5215 21.7239C24.3106 21.5746 25.0501 21.2461 25.6872 20.7678C26.5821 21.4399 27.6797 21.8157 28.8318 21.8157C29.9837 21.8157 31.0814 21.4397 31.9763 20.7678C32.8712 21.4399 33.9687 21.8157 35.1208 21.8157C36.2728 21.8157 37.3705 21.4397 38.2654 20.7678C38.9023 21.2463 39.642 21.5745 40.4312 21.7239L41.1141 25.8224C41.2749 26.7877 41.9233 27.5577 42.7825 27.9045L42.4675 29.8738H40.7811C37.3674 29.8738 34.5902 32.6511 34.5902 36.0646V42.6067C34.3249 42.7102 34.0413 42.7665 33.7547 42.7665H28.9401C28.4032 42.7665 27.8804 42.5773 27.468 42.2334L22.4195 38.0263C21.7587 37.4756 21.3202 36.7049 21.1843 35.8556L19.9443 28.1049ZM21.2005 48.7115C22.8853 48.1932 24.017 46.6606 24.017 44.8983V43.1949L25.581 44.4983C26.5222 45.2827 27.7151 45.7146 28.9404 45.7146H33.7551C34.0355 45.7146 34.3149 45.6907 34.5906 45.6459V55.1306C33.7256 55.2718 32.8464 55.345 31.9638 55.345C27.0466 55.345 22.4094 53.0951 19.3563 49.2791L21.2005 48.7115ZM7.66495 55.5035C7.66495 53.9319 8.67421 52.5656 10.1761 52.1033L16.3627 50.1999C19.9399 55.269 25.7634 58.2928 31.9638 58.2928C32.8444 58.2928 33.7223 58.2308 34.5906 58.1111V64.3659C34.5906 67.7797 37.3677 70.5568 40.7814 70.5568H47.1689V78.5165C47.1689 78.5498 47.1716 78.5822 47.1738 78.6147H39.1108V76.9441C39.1108 73.5304 36.3335 70.7532 32.9199 70.7532H17.1969C17.1427 70.7532 17.0987 70.7092 17.0987 70.655V61.2212C17.0987 60.4072 16.4388 59.7472 15.6246 59.7472C14.8105 59.7472 14.1506 60.4071 14.1506 61.2212V70.655C14.1506 72.3348 15.5171 73.7014 17.1969 73.7014H26.7289V78.6147H12.4801C9.82505 78.6147 7.66495 76.4546 7.66495 73.7995V55.5035ZM36.1626 76.9442V78.6149H29.677V73.7015H32.9199C34.7079 73.7013 36.1626 75.1561 36.1626 76.9442ZM91.0946 81.5629C91.1489 81.5629 91.1928 81.6068 91.1928 81.661V84.8056C91.1928 84.8598 91.1489 84.9038 91.0946 84.9038H3.04634C2.9921 84.9038 2.94816 84.8598 2.94816 84.8056V81.661C2.94816 81.6068 2.9921 81.5629 3.04634 81.5629H91.0946ZM50.1119 78.6149C50.1141 78.5823 50.1168 78.5498 50.1168 78.5167V70.557H54.7158L53.6412 78.6151H50.1119V78.6149ZM56.6155 78.6149L59.1737 59.4283C59.284 58.6017 59.9958 57.9785 60.8298 57.9785H67.9018C68.7356 57.9785 69.4475 58.6017 69.5577 59.4283L72.116 78.6149H56.6155ZM73.7995 67.6088C73.74 67.6088 73.6819 67.6134 73.624 67.6202L72.4797 59.0387C72.1751 56.7538 70.2069 55.0305 67.9018 55.0305H60.8298C58.5246 55.0305 56.5563 56.7538 56.2516 59.0387L55.1074 67.6202C55.0499 67.6134 54.9914 67.6088 54.9318 67.6088H40.7812C38.9931 67.6088 37.5384 66.1541 37.5384 64.3659V36.0646C37.5384 34.2765 38.9931 32.8217 40.7812 32.8217H87.9501C89.7382 32.8217 91.193 34.2765 91.193 36.0646V64.3659C91.193 66.1541 89.7382 67.6088 87.9501 67.6088H73.7995V67.6088Z" fill="url(#paint0_linear)"/>
<defs>
<linearGradient id="paint0_linear" x1="0" y1="0" x2="98.9709" y2="5.82775" gradientUnits="userSpaceOnUse">
<stop stop-color="#00DADA"/>
<stop offset="1" stop-color="#005CFF"/>
</linearGradient>
</defs>
</svg>
