<svg width="91" height="91" viewBox="0 0 91 91" fill="none" xmlns="http://www.w3.org/2000/svg">
<path d="M9.04989 79.2231C9.25304 79.2231 9.45779 79.1822 9.65507 79.0957C14.4932 76.989 22.6635 75.8926 33.9475 75.8348L35.0425 78.0279C35.4186 78.7772 36.3302 79.0834 37.0779 78.7057C37.827 78.3311 38.132 77.4211 37.7558 76.6719L36.2406 73.6385C35.9827 73.1243 35.458 72.7998 34.8832 72.7998C22.5239 72.7998 13.8743 73.9494 8.4431 76.314C7.67565 76.6492 7.32533 77.5425 7.65894 78.3113C7.90794 78.8819 8.46461 79.2231 9.04989 79.2231Z" fill="url(#paint0_linear)"/>
<path d="M87.9666 81.8996H84.9332V74.3162C84.9332 73.9143 84.7724 73.5276 84.4889 73.2439L75.3768 64.1333C75.6619 63.5402 75.8334 62.8836 75.8334 62.1828C75.8334 59.6743 73.7919 57.6328 71.2834 57.6328C68.7748 57.6328 66.7334 59.6743 66.7334 62.1828C66.7334 64.6914 68.7748 66.7328 71.2834 66.7328C71.984 66.7328 72.6393 66.5615 73.2322 66.2778L81.9 74.944V81.8996H3.03339C1.36038 81.8996 0 83.26 0 84.933V89.483C0 90.3201 0.679478 90.9996 1.51661 90.9996C2.35374 90.9996 3.03321 90.3201 3.03321 89.483V84.933H87.9666V89.483C87.9666 90.3201 88.6445 90.9996 89.4832 90.9996C90.3219 90.9996 90.9998 90.3201 90.9998 89.483V84.933C91 83.26 89.638 81.8996 87.9666 81.8996ZM71.2834 63.6996C70.4463 63.6996 69.7668 63.0187 69.7668 62.183C69.7668 61.3473 70.4463 60.6664 71.2834 60.6664C72.1205 60.6664 72.8 61.3473 72.8 62.183C72.8 63.0187 72.1205 63.6996 71.2834 63.6996Z" fill="url(#paint1_linear)"/>
<path d="M21.6533 45.3665C22.759 48.2451 26.4171 57.5271 29.0714 61.5084L29.311 61.8708C31.2585 64.8236 34.5161 69.7664 45.5 69.7664C56.4822 69.7664 59.7415 64.8236 61.6889 61.8708L61.9285 61.5084C64.5826 57.5271 68.2393 48.2451 69.3466 45.3665C71.3274 44.8737 72.8 43.0809 72.8 40.95V34.8834C72.8 32.9057 71.532 31.219 69.7666 30.5927V22.75C69.7666 16.7621 66.6134 5.70119 54.9503 4.63336C54.9275 3.91744 54.691 3.34123 54.427 2.91502C52.9362 0.505121 48.7502 0 45.5 0C18.5124 0 18.2 25.5255 18.2 25.7834C18.2 26.6205 18.8778 27.2986 19.7135 27.2986H19.7166C20.5523 27.2986 21.2301 26.6221 21.2332 25.785C21.2362 24.8569 21.5774 3.03339 45.4998 3.03339C49.7889 3.03339 51.5074 3.96152 51.847 4.51054C51.8941 4.58786 52.023 4.79563 51.7256 5.38873C51.4905 5.85884 51.5163 6.4171 51.7923 6.86446C52.0699 7.31039 52.5567 7.58339 53.083 7.58339C66.5298 7.58339 66.7314 22.1327 66.733 22.75V31.85C66.733 32.6871 67.4109 33.3666 68.2496 33.3666C69.0867 33.3666 69.7662 34.0475 69.7662 34.8832V40.95C69.7662 41.7857 69.0867 42.4666 68.2496 42.4666C67.6172 42.4666 67.0515 42.8594 66.8284 43.4509C66.7845 43.5707 62.3058 55.4736 59.4043 59.8248L59.1556 60.2009C57.3387 62.9583 54.8482 66.7332 45.4996 66.7332C36.1493 66.7332 33.6605 62.9583 31.8436 60.2009L31.5949 59.8248C28.6936 55.4736 24.2148 43.5707 24.1693 43.4509C23.9479 42.8594 23.3822 42.4666 22.7498 42.4666C21.9141 42.4666 21.2332 41.7857 21.2332 40.95V34.8834C21.2332 34.4723 21.397 34.0992 21.6638 33.8262C22.2144 35.0624 23.3383 36.1741 25.2265 36.3621L30.4165 40.254C30.8216 43.2083 33.3347 45.5 36.4 45.5H39.4333C42.779 45.5 45.5 42.7791 45.5 39.4334C45.5 42.7791 48.2209 45.5 51.5666 45.5H54.6C57.6636 45.5 60.1798 43.2083 60.5832 40.2524L66.1266 36.0968C66.797 35.5947 66.9335 34.6438 66.43 33.9734C65.9279 33.303 64.977 33.1651 64.3066 33.67L60.4407 36.5699C59.8629 34.7211 58.155 33.3668 56.1166 33.3668H50.05C47.5414 33.3668 45.5 35.4082 45.5 37.9168C45.5 35.4082 43.4585 33.3668 40.95 33.3668H34.8833C32.8465 33.3668 31.1387 34.7211 30.5594 36.5699L27.6656 34.3996C28.8592 31.515 29.9406 27.2485 30.247 24.2531C35.0275 24.1681 48.8581 23.5843 55.0111 19.744C56.4064 25.1311 60.8852 29.6646 61.1111 29.8891C61.704 30.482 62.6627 30.482 63.2556 29.8891C63.8485 29.296 63.8485 28.3374 63.2556 27.7445C63.1995 27.6883 57.6333 22.06 57.6333 16.6834C57.6333 16.0025 57.1783 15.4033 56.5216 15.2213C55.8679 15.0393 55.1657 15.3184 54.817 15.9022C52.6086 19.5801 38.2838 21.2334 28.8167 21.2334C27.9796 21.2334 27.3001 21.9129 27.3001 22.75C27.3001 25.2116 26.1369 30.1286 24.8993 33.1544C24.4155 32.8633 24.279 32.3203 24.2669 31.85C24.2669 31.0129 23.5874 30.3334 22.7503 30.3334C20.2418 30.3334 18.2003 32.3748 18.2003 34.8834V40.95C18.2 43.0809 19.6727 44.8737 21.6533 45.3665ZM48.5333 37.9166C48.5333 37.0809 49.2128 36.4 50.05 36.4H56.1166C56.9537 36.4 57.6332 37.0809 57.6332 37.9166V39.4332C57.6332 41.106 56.2728 42.4666 54.5998 42.4666H51.5664C49.8935 42.4666 48.533 41.1062 48.533 39.4332V37.9166H48.5333ZM33.3666 37.9166C33.3666 37.0809 34.0475 36.4 34.8832 36.4H40.95C41.7857 36.4 42.4666 37.0809 42.4666 37.9166V39.4332C42.4666 41.106 41.1062 42.4666 39.4332 42.4666H36.4C34.7271 42.4666 33.3666 41.1062 33.3666 39.4332V37.9166Z" fill="url(#paint2_linear)"/>
<path d="M53.0817 54.6043C53.0833 53.7686 52.4068 53.0877 51.5711 53.0831C51.5423 53.0831 48.8305 53.0527 46.1778 51.7257C45.7516 51.5133 45.248 51.5133 44.8218 51.7257C42.1692 53.0528 39.4559 53.0831 39.4331 53.0831C38.596 53.0831 37.9165 53.7625 37.9165 54.5997C37.9165 55.4368 38.596 56.1163 39.4331 56.1163C39.562 56.1163 42.427 56.0996 45.4997 54.7559C48.571 56.0996 51.4375 56.1163 51.5663 56.1163C52.4022 56.1163 53.0787 55.4398 53.0817 54.6043Z" fill="url(#paint3_linear)"/>
<path d="M56.1121 72.8623C55.5449 72.8653 55.0247 73.1838 54.7652 73.6903L53.2486 76.6599C52.8679 77.406 53.1652 78.3207 53.9099 78.7014C54.1298 78.8135 54.3665 78.8667 54.5985 78.8667C55.1505 78.8667 55.6828 78.5649 55.9514 78.04L57.045 75.8955C65.3351 75.9182 72.0115 76.5385 76.9041 77.7398C77.7201 77.9416 78.5391 77.4427 78.7378 76.6297C78.938 75.8153 78.4421 74.9947 77.6277 74.7946C72.3161 73.4886 65.112 72.8091 56.1121 72.8623Z" fill="url(#paint4_linear)"/>
<path d="M43.9834 74.3164V77.3498C43.9834 78.1869 44.6629 78.8664 45.5 78.8664C46.3371 78.8664 47.0166 78.1869 47.0166 77.3498V74.3164C47.0166 73.4793 46.3371 72.7998 45.5 72.7998C44.6629 72.7998 43.9834 73.4793 43.9834 74.3164Z" fill="url(#paint5_linear)"/>
<path d="M43.9834 57.6328C43.1463 57.6328 42.4668 58.3123 42.4668 59.1494C42.4668 59.9865 43.1463 60.666 43.9834 60.666H47.0168C47.8555 60.666 48.5334 59.9865 48.5334 59.1494C48.5334 58.3123 47.8555 57.6328 47.0168 57.6328H43.9834Z" fill="url(#paint6_linear)"/>
<defs>
<linearGradient id="paint0_linear" x1="7.53271" y1="72.7998" x2="37.558" y2="80.6043" gradientUnits="userSpaceOnUse">
<stop stop-color="#00DADA"/>
<stop offset="1" stop-color="#005CFF"/>
</linearGradient>
<linearGradient id="paint1_linear" x1="0" y1="57.6328" x2="93.8916" y2="71.7036" gradientUnits="userSpaceOnUse">
<stop stop-color="#00DADA"/>
<stop offset="1" stop-color="#005CFF"/>
</linearGradient>
<linearGradient id="paint2_linear" x1="18.2" y1="0" x2="75.6939" y2="2.47249" gradientUnits="userSpaceOnUse">
<stop stop-color="#00DADA"/>
<stop offset="1" stop-color="#005CFF"/>
</linearGradient>
<linearGradient id="paint3_linear" x1="37.9165" y1="51.5664" x2="53.3958" y2="54.4015" gradientUnits="userSpaceOnUse">
<stop stop-color="#00DADA"/>
<stop offset="1" stop-color="#005CFF"/>
</linearGradient>
<linearGradient id="paint4_linear" x1="53.0828" y1="72.8594" x2="78.7746" y2="78.899" gradientUnits="userSpaceOnUse">
<stop stop-color="#00DADA"/>
<stop offset="1" stop-color="#005CFF"/>
</linearGradient>
<linearGradient id="paint5_linear" x1="43.9834" y1="72.7998" x2="47.1809" y2="72.8877" gradientUnits="userSpaceOnUse">
<stop stop-color="#00DADA"/>
<stop offset="1" stop-color="#005CFF"/>
</linearGradient>
<linearGradient id="paint6_linear" x1="42.4668" y1="57.6328" x2="48.7904" y2="58.3278" gradientUnits="userSpaceOnUse">
<stop stop-color="#00DADA"/>
<stop offset="1" stop-color="#005CFF"/>
</linearGradient>
</defs>
</svg>
