<svg width="88" height="88" viewBox="0 0 88 88" fill="none" xmlns="http://www.w3.org/2000/svg">
<path d="M81.4052 46.0485C81.1364 44.6477 79.9113 43.6348 78.4849 43.634H75.6122L75.4009 42.3679C75.1902 41.0963 74.1883 40.1029 72.915 39.9028C72.6323 39.8582 72.3467 39.8284 72.0655 39.7898C72.5527 37.5154 72.1479 35.1407 70.9348 33.1561C71.5758 31.4936 71.4561 29.6337 70.6075 28.067C69.7589 26.5002 68.2665 25.384 66.5238 25.0125C65.4097 19.0498 60.2224 14.7155 54.1566 14.679C54.0079 14.679 53.8755 14.6983 53.7341 14.7028C52.7649 13.1806 51.167 12.1704 49.3762 11.9477C47.5855 11.725 45.7888 12.313 44.4762 13.5513C42.8227 12.4765 40.8933 11.9034 38.9212 11.9014C35.7435 11.9144 32.7487 13.3893 30.8013 15.9004C28.639 15.2698 26.3073 15.657 24.4648 16.9525C22.6222 18.248 21.469 20.3112 21.3307 22.5593C19.0594 23.514 17.5816 25.7369 17.5802 28.2006C17.5848 28.6277 17.6347 29.0531 17.7289 29.4696C15.7204 32.4976 15.1956 36.2738 16.3022 39.7347C15.9035 39.7898 15.4959 39.8388 15.1121 39.8954C13.8321 40.0885 12.8214 41.0825 12.6068 42.359L12.3956 43.6295H9.51539C8.09144 43.6305 6.86779 44.6402 6.59653 46.0381L0.0819158 79.4844C-0.172502 80.7943 0.172502 82.1493 1.02236 83.178C1.87221 84.2067 3.13776 84.8011 4.4721 84.7985H35.4965C36.7283 86.8307 40.4713 87.7738 44.0001 87.7738C47.4918 87.7738 51.1991 86.853 52.4666 84.7985H83.5282C84.8622 84.8011 86.1275 84.2068 86.9772 83.1784C87.827 82.1501 88.1723 80.7955 87.9184 79.4859L81.4052 46.0485ZM22.079 30.8933C20.871 30.1671 20.2946 28.7253 20.6688 27.3664C21.0429 26.0076 22.2762 25.0641 23.6857 25.0586C24.6721 25.0557 25.6004 25.5246 26.1835 26.3202C26.5003 26.747 27.0207 26.9723 27.5487 26.9114C28.0767 26.8505 28.5321 26.5125 28.7433 26.0247C28.9545 25.537 28.8895 24.9736 28.5728 24.5468C27.5626 23.1967 26.0317 22.333 24.3537 22.1665C24.7972 20.083 26.6345 18.5915 28.7647 18.5856C28.9462 18.5949 29.127 18.6147 29.3062 18.6452C29.1865 18.9502 29.0822 19.261 28.9938 19.5765C28.8086 20.364 29.2867 21.1551 30.07 21.3574C30.8532 21.5597 31.6546 21.099 31.8739 20.3203C32.0431 19.6664 32.303 19.0395 32.6461 18.4577C33.9657 16.2469 36.3465 14.8883 38.9212 14.8768C40.3224 14.883 41.6916 15.2965 42.8621 16.067C42.6391 16.6935 42.521 17.3524 42.5124 18.0173C42.5124 18.839 43.1785 19.505 44.0001 19.505C44.8218 19.505 45.4878 18.839 45.4878 18.0173C45.4878 16.289 46.8889 14.888 48.6172 14.888C50.3455 14.888 51.7466 16.289 51.7466 18.0173C51.7466 18.839 52.4126 19.505 53.2343 19.505C54.0559 19.505 54.722 18.839 54.722 18.0173C54.722 17.9028 54.6937 17.7942 54.6877 17.6796C58.9475 17.9425 62.5296 20.9705 63.4979 25.127C62.8039 25.3291 62.1519 25.6541 61.5728 26.0866C61.1476 26.4055 60.9248 26.927 60.9884 27.4547C61.052 27.9824 61.3922 28.4361 61.881 28.6449C62.3698 28.8536 62.9328 28.7858 63.358 28.4669C64.5469 27.5867 66.1891 27.6569 67.2985 28.6353C68.4078 29.6138 68.6827 31.2344 67.958 32.5239C67.6341 33.0933 67.142 33.5485 66.5491 33.8271C65.9274 34.1281 65.5947 34.8175 65.7458 35.4915C65.8969 36.1656 66.4921 36.6469 67.1829 36.6537C67.401 36.654 67.6165 36.6057 67.8137 36.5124C68.2079 36.3213 68.5805 36.0884 68.925 35.8176C69.694 38.0039 69.2117 40.4354 67.6664 42.1626L67.6307 42.1998C65.6925 44.2994 62.6008 44.8668 60.0434 43.5923C59.793 43.46 59.5523 43.3099 59.3234 43.143C60.4192 41.6068 60.5705 39.5889 59.7161 37.9063C59.477 37.4314 59.0026 37.1202 58.4717 37.0899C57.9409 37.0596 57.4342 37.3148 57.1425 37.7594C56.8508 38.2039 56.8185 38.7704 57.0576 39.2453C57.5468 40.2285 57.2417 41.4218 56.3406 42.0496C55.8114 42.4019 55.1576 42.5133 54.5416 42.3562C53.9256 42.1991 53.4051 41.7881 53.1093 41.2254C52.8714 40.75 52.398 40.4375 51.8674 40.4058C51.3367 40.3741 50.8294 40.6278 50.5366 41.0715C50.2438 41.5152 50.21 42.0814 50.4478 42.5569C51.3203 44.3181 53.118 45.4304 55.0835 45.4251C55.7234 45.4208 56.3567 45.2962 56.9505 45.0577C57.4819 45.5229 58.0673 45.9225 58.6941 46.2478C60.8144 47.3469 63.2799 47.5748 65.5658 46.8831C64.0956 48.8905 61.8953 50.2396 59.4394 50.6395C58.6754 50.7639 58.1344 51.4534 58.1954 52.2251C58.2564 52.9967 58.8989 53.5927 59.673 53.5956C59.7522 53.5955 59.8313 53.5896 59.9095 53.5777C60.8154 53.4209 61.7008 53.1624 62.5487 52.8071C63.007 53.6174 63.379 54.4735 63.6585 55.3615C63.7097 55.5165 63.7358 55.6787 63.7359 55.842C63.7355 56.485 63.3515 57.0657 62.76 57.3178C62.0757 57.5824 61.2987 57.3736 60.8394 56.8015C59.6872 55.4486 58.1785 54.446 56.4849 53.908C53.27 52.8309 52.0292 51.8683 51.5026 50.821C52.2745 50.7247 53.0372 50.5655 53.7832 50.3449C54.2913 50.1887 54.6775 49.7732 54.7962 49.255C54.915 48.7369 54.7482 48.1947 54.3588 47.8328C53.9695 47.4709 53.4166 47.3442 52.9085 47.5005C52.0737 47.7566 51.212 47.9148 50.3407 47.9721C48.6621 48.1033 46.9757 47.8488 45.4105 47.2282C44.8228 46.999 44.1545 47.1654 43.7428 47.6433C41.5767 50.1314 37.8696 50.5543 35.1988 48.6179C32.5281 46.6816 31.7774 43.0267 33.4688 40.1944C33.7427 39.737 33.7519 39.1683 33.4928 38.7023C33.2337 38.2363 32.7458 37.944 32.2127 37.9354C31.6796 37.9268 31.1824 38.2032 30.9084 38.6606C30.5535 39.2647 30.268 39.907 30.0575 40.5753C28.8859 40.5136 27.9622 39.5554 27.9435 38.3824V38.3452C27.9427 37.9526 27.7851 37.5767 27.5057 37.3009C27.2263 37.0252 26.8483 36.8725 26.4558 36.8768C25.6306 36.885 24.9664 37.5572 24.9681 38.3824C24.9747 41.0208 26.9643 43.2321 29.5874 43.5164C29.5927 44.0151 29.638 44.5126 29.7227 45.0041C26.401 45.7229 22.9558 44.5289 20.7912 41.9088C18.6266 39.2887 18.1042 35.68 19.4368 32.5536C19.7696 32.8903 20.1412 33.1865 20.5437 33.4358C21.2464 33.8475 22.1496 33.6175 22.5699 32.9199C22.9902 32.2222 22.7714 31.3163 22.079 30.8874V30.8933ZM15.5331 42.844C16.2189 42.7428 16.9271 42.6536 17.6308 42.5613C20.3814 46.9569 25.6422 49.0912 30.6778 47.8545C32.0309 50.4226 34.5033 52.2134 37.3651 52.6985C40.227 53.1835 43.1514 52.3073 45.2751 50.3286C46.2861 50.6301 47.3274 50.8187 48.3799 50.8909C49.0985 53.6164 51.1753 55.2677 55.5387 56.7301C56.715 57.0989 57.7643 57.7901 58.5676 58.7251C59.4607 59.7871 60.7744 60.4042 62.1619 60.4137C62.7687 60.4135 63.3693 60.291 63.9278 60.0536C65.6142 59.3329 66.7081 57.6759 66.7083 55.842C66.7097 55.3637 66.6333 54.8884 66.4822 54.4346C66.1476 53.3835 65.707 52.3691 65.1671 51.4072C67.6968 49.5886 69.4591 46.8934 70.1107 43.8467C70.4275 43.4703 70.714 43.0693 70.9676 42.6476C71.466 42.7116 71.9643 42.7681 72.4657 42.8514L77.8363 75.1552C67.3384 71.6498 55.9857 71.6498 45.4878 75.1552V56.5323C45.4878 55.7106 44.8218 55.0446 44.0001 55.0446C43.1785 55.0446 42.5124 55.7106 42.5124 56.5323V75.1612C32.0157 71.6525 20.6633 71.6483 10.164 75.1493L15.5331 42.844ZM3.31319 81.2756C3.03208 80.936 2.91749 80.4886 3.00077 80.0557L9.51539 46.6093H11.8957L7.22731 74.6658C7.06311 75.687 7.43913 76.7204 8.22119 77.3974C9.00325 78.0743 10.0799 78.2982 11.0671 77.9893C18.998 75.4198 27.4472 74.8837 35.6393 76.4302L35.196 81.8231H4.4721C4.02329 81.8234 3.59798 81.6225 3.31319 81.2756ZM44.0001 84.7985C40.4163 84.7985 38.3603 83.7392 38.0583 83.2676L38.5701 77.0937C40.2059 77.501 41.8067 78.0378 43.3575 78.6989C43.558 78.7955 43.7775 78.8464 44.0001 78.8477C44.2233 78.8473 44.4436 78.7965 44.6443 78.6989C46.1941 78.0339 47.7945 77.4936 49.4302 77.0833L49.942 83.2661C49.64 83.7392 47.584 84.7985 44.0001 84.7985V84.7985ZM84.6871 81.2756C84.4023 81.6225 83.977 81.8234 83.5282 81.8231H52.8088L52.3625 76.4198C60.559 74.8765 69.012 75.4172 76.9451 77.9923C77.932 78.2971 79.0064 78.07 79.7854 77.3918C80.5645 76.7136 80.9375 75.6808 80.7715 74.6613L76.1076 46.6108H78.4879L85.004 80.0542C85.0865 80.4882 84.9702 80.9364 84.6871 81.2756V81.2756Z" fill="url(#paint0_linear)"/>
<path d="M39.0699 33.748C38.4609 34.2991 38.4136 35.2393 38.9643 35.8487C40.2263 37.2421 41.8942 38.2037 43.7323 38.5979C42.8998 39.7711 41.5498 40.4672 40.1113 40.465C39.2896 40.465 38.6236 41.131 38.6236 41.9527C38.6236 42.7743 39.2896 43.4404 40.1113 43.4404C43.191 43.4527 45.9544 41.5505 47.0424 38.6693C50.7417 38.0563 53.6703 35.2089 54.3872 31.5284C54.498 31.002 54.3159 30.4567 53.911 30.1025C53.5062 29.7482 52.9416 29.6402 52.4345 29.8198C51.9275 29.9995 51.5569 30.4389 51.4654 30.969C51.1737 32.5034 50.2883 33.8608 49.0017 34.7463C46.5266 36.4133 43.207 36.0349 41.1705 33.8537C40.6195 33.2447 39.6792 33.1974 39.0699 33.748V33.748Z" fill="url(#paint1_linear)"/>
<path d="M33.8837 32.1338C34.7053 32.1338 35.3714 31.4678 35.3714 30.6461C35.3714 29.6203 35.7789 28.6364 36.5043 27.911C37.2297 27.1856 38.2135 26.7781 39.2394 26.7781C40.061 26.7781 40.7271 26.1121 40.7271 25.2904C40.7271 24.4688 40.061 23.8027 39.2394 23.8027C35.4616 23.8068 32.4001 26.8683 32.396 30.6461C32.396 31.0407 32.5527 31.4191 32.8317 31.6981C33.1107 31.9771 33.4891 32.1338 33.8837 32.1338V32.1338Z" fill="url(#paint2_linear)"/>
<path d="M45.4878 2.97539V1.48769C45.4878 0.666063 44.8218 0 44.0001 0C43.1785 0 42.5125 0.666063 42.5125 1.48769V2.97539C42.5125 3.79702 43.1785 4.46308 44.0001 4.46308C44.8218 4.46308 45.4878 3.79702 45.4878 2.97539Z" fill="url(#paint3_linear)"/>
<path d="M68.4131 10.6759L66.9254 12.1636C66.5387 12.5371 66.3836 13.0902 66.5197 13.6104C66.6559 14.1305 67.0621 14.5367 67.5822 14.6729C68.1024 14.809 68.6555 14.6539 69.029 14.2672L70.5167 12.7795C70.9034 12.406 71.0585 11.8528 70.9224 11.3327C70.7862 10.8126 70.38 10.4063 69.8599 10.2702C69.3398 10.1341 68.7866 10.2892 68.4131 10.6759Z" fill="url(#paint4_linear)"/>
<path d="M20.023 14.7031C20.6246 14.703 21.1669 14.3405 21.3972 13.7847C21.6274 13.2288 21.5001 12.5891 21.0748 12.1636L19.5871 10.6759C19.2136 10.2892 18.6605 10.1341 18.1403 10.2702C17.6202 10.4063 17.214 10.8126 17.0778 11.3327C16.9417 11.8528 17.0968 12.406 17.4835 12.7795L18.9712 14.2672C19.2501 14.5462 19.6285 14.703 20.023 14.7031Z" fill="url(#paint5_linear)"/>
<path d="M31.4751 8.44319C31.6706 8.44277 31.8641 8.40437 32.0449 8.33013C32.4096 8.17908 32.6992 7.88934 32.8502 7.52466C33.0011 7.15999 33.001 6.75028 32.8498 6.38571L31.1404 2.26182C30.9446 1.75954 30.4924 1.40249 29.9584 1.32854C29.4244 1.2546 28.8921 1.47532 28.5672 1.90549C28.2423 2.33567 28.1755 2.90796 28.3926 3.4014L30.1005 7.52528C30.3309 8.08107 30.8735 8.44334 31.4751 8.44319V8.44319Z" fill="url(#paint6_linear)"/>
<path d="M58.8027 1.45713C58.0439 1.14323 57.1743 1.50346 56.8598 2.26197L55.1504 6.38586C54.9987 6.7506 54.9984 7.16068 55.1493 7.52571C55.3003 7.89074 55.5903 8.18073 55.9553 8.33176C56.1361 8.40601 56.3296 8.44441 56.525 8.44483C57.1267 8.44498 57.6692 8.08271 57.8997 7.52692L59.6076 3.40303C59.7592 3.0383 59.7596 2.62821 59.6086 2.26318C59.4577 1.89816 59.1677 1.60816 58.8027 1.45713V1.45713Z" fill="url(#paint7_linear)"/>
<path d="M74.2375 26.1565C74.4331 26.1561 74.6267 26.1172 74.8073 26.0419L78.9297 24.3341C79.4208 24.1308 79.7661 23.6809 79.8356 23.154C79.9051 22.627 79.6882 22.103 79.2666 21.7793C78.845 21.4557 78.2827 21.3815 77.7916 21.5848L73.6677 23.2927C73.0096 23.563 72.635 24.2614 72.7739 24.9591C72.9127 25.6569 73.5261 26.1587 74.2375 26.1565Z" fill="url(#paint8_linear)"/>
<path d="M13.1929 26.0423C13.9521 26.357 14.8226 25.9967 15.1373 25.2375C15.452 24.4783 15.0916 23.6078 14.3324 23.2931L10.2086 21.5852C9.44937 21.2709 8.57916 21.6316 8.26488 22.3908C7.95061 23.15 8.31128 24.0202 9.07047 24.3345L13.1929 26.0423Z" fill="url(#paint9_linear)"/>
<defs>
<linearGradient id="paint0_linear" x1="0" y1="11.9014" x2="92.46" y2="17.7941" gradientUnits="userSpaceOnUse">
<stop stop-color="#00DADA"/>
<stop offset="1" stop-color="#005CFF"/>
</linearGradient>
<linearGradient id="paint1_linear" x1="38.5803" y1="29.7344" x2="55.2223" y2="30.7912" gradientUnits="userSpaceOnUse">
<stop stop-color="#00DADA"/>
<stop offset="1" stop-color="#005CFF"/>
</linearGradient>
<linearGradient id="paint2_linear" x1="32.396" y1="23.8027" x2="41.1584" y2="24.2842" gradientUnits="userSpaceOnUse">
<stop stop-color="#00DADA"/>
<stop offset="1" stop-color="#005CFF"/>
</linearGradient>
<linearGradient id="paint3_linear" x1="42.5125" y1="0" x2="45.6471" y2="0.114833" gradientUnits="userSpaceOnUse">
<stop stop-color="#00DADA"/>
<stop offset="1" stop-color="#005CFF"/>
</linearGradient>
<linearGradient id="paint4_linear" x1="66.4712" y1="10.2217" x2="71.2039" y2="10.4817" gradientUnits="userSpaceOnUse">
<stop stop-color="#00DADA"/>
<stop offset="1" stop-color="#005CFF"/>
</linearGradient>
<linearGradient id="paint5_linear" x1="17.0293" y1="10.2217" x2="21.7424" y2="10.4806" gradientUnits="userSpaceOnUse">
<stop stop-color="#00DADA"/>
<stop offset="1" stop-color="#005CFF"/>
</linearGradient>
<linearGradient id="paint6_linear" x1="28.2666" y1="1.31445" x2="33.2149" y2="1.4936" gradientUnits="userSpaceOnUse">
<stop stop-color="#00DADA"/>
<stop offset="1" stop-color="#005CFF"/>
</linearGradient>
<linearGradient id="paint7_linear" x1="55.0364" y1="1.34375" x2="59.9726" y2="1.52271" gradientUnits="userSpaceOnUse">
<stop stop-color="#00DADA"/>
<stop offset="1" stop-color="#005CFF"/>
</linearGradient>
<linearGradient id="paint8_linear" x1="72.7451" y1="21.4717" x2="80.1871" y2="22.0917" gradientUnits="userSpaceOnUse">
<stop stop-color="#00DADA"/>
<stop offset="1" stop-color="#005CFF"/>
</linearGradient>
<linearGradient id="paint9_linear" x1="8.15137" y1="21.4717" x2="15.5896" y2="22.0912" gradientUnits="userSpaceOnUse">
<stop stop-color="#00DADA"/>
<stop offset="1" stop-color="#005CFF"/>
</linearGradient>
</defs>
</svg>
