<svg width="250" height="281" viewBox="0 0 250 281" fill="none" xmlns="http://www.w3.org/2000/svg">
<path d="M55.5156 93.1093C55.5156 93.1093 51.8191 85.8499 52.3981 82.8996C52.9774 79.949 53.9262 71.0849 53.9262 71.0849L29.6399 73.3441L37.452 101.578" fill="#FFF4CB"/>
<path d="M37.4765 102.22H37.6491C37.8096 102.174 37.9458 102.067 38.0287 101.922C38.1116 101.776 38.1346 101.604 38.0927 101.443L30.4901 73.9242L53.2115 71.8133C52.9404 74.0355 52.1888 80.455 51.7698 82.813C51.2154 85.9365 54.7888 93.1093 54.9489 93.4178C55.0254 93.5671 55.1573 93.6805 55.3162 93.7336C55.4751 93.7865 55.6485 93.7752 55.7992 93.7018C55.8742 93.6651 55.9409 93.6136 55.9959 93.5509C56.0508 93.4879 56.0927 93.4147 56.119 93.3353C56.1455 93.2561 56.1559 93.1723 56.1496 93.089C56.1433 93.0058 56.1206 92.9244 56.0826 92.8499C55.0968 90.8748 52.6202 85.282 53.0146 82.9735C53.5321 80.0353 54.5178 71.4799 54.5547 71.1095C54.5657 71.0155 54.5561 70.9205 54.5263 70.8309C54.4965 70.7413 54.4472 70.6594 54.3821 70.5909C54.3146 70.5244 54.2331 70.4731 54.1439 70.4411C54.0545 70.4093 53.9593 70.3973 53.8646 70.4058L29.64 72.6896C29.5476 72.7003 29.4581 72.7299 29.3775 72.7767C29.297 72.8233 29.227 72.8863 29.1718 72.9613C29.119 73.038 29.084 73.1252 29.0692 73.2169C29.0542 73.309 29.0599 73.4029 29.0853 73.4922L36.8852 101.739C36.9174 101.873 36.9929 101.993 37.0999 102.079C37.2065 102.167 37.3389 102.216 37.4765 102.22Z" fill="#202020"/>
<path d="M225.335 128.664C225.335 128.664 225.113 114.294 225.335 111.06C225.557 107.825 220.715 89.8251 221.873 86.9981C223.031 84.171 226.259 83.0723 227.418 86.4056C228.576 89.7389 230.658 97.1462 230.658 97.1462C230.658 97.1462 243.374 89.2943 245.925 94.6769C248.476 100.06 250.854 110.072 248.168 112.627C246.534 114.15 244.448 115.096 242.229 115.319L242.918 133.553L225.335 128.664Z" fill="#FFF4CB"/>
<path d="M242.918 134.232C243.061 134.23 243.199 134.183 243.313 134.096C243.391 134.036 243.454 133.957 243.494 133.866C243.535 133.776 243.553 133.677 243.547 133.578L242.881 115.936C245.021 115.593 247.01 114.622 248.599 113.146C251.827 110.109 248.771 99.3065 246.504 94.4547C246.271 93.9521 245.929 93.5083 245.503 93.1557C245.076 92.8032 244.576 92.5509 244.04 92.4177C240.109 91.1831 233.246 94.8868 230.991 96.1214C230.424 94.109 228.896 88.8004 227.972 86.1338C227.814 85.4739 227.453 84.8803 226.94 84.4371C226.427 83.9941 225.788 83.7237 225.113 83.6648C224.239 83.73 223.404 84.0535 222.713 84.594C222.023 85.1345 221.507 85.8678 221.232 86.7017C220.542 88.4053 221.515 93.677 223.105 101.516C223.851 104.614 224.369 107.762 224.657 110.936C224.423 114.17 224.657 128.01 224.657 128.602C224.655 128.74 224.699 128.874 224.782 128.983C224.864 129.093 224.981 129.172 225.113 129.208L242.696 134.146C242.76 134.195 242.838 134.225 242.918 134.232ZM242.302 93.4919C242.781 93.4869 243.258 93.5494 243.719 93.677C244.075 93.7694 244.406 93.9403 244.687 94.1775C244.969 94.4145 245.194 94.7117 245.346 95.0473C247.81 100.418 250.102 110.022 247.736 112.257C246.205 113.661 244.258 114.528 242.191 114.726C242.024 114.736 241.866 114.811 241.753 114.936C241.64 115.06 241.581 115.225 241.588 115.393L242.253 132.751L225.963 128.183C225.963 125.714 225.766 113.948 225.963 111.097C225.701 107.804 225.174 104.538 224.386 101.331C223.314 95.9978 221.848 88.7017 222.439 87.2326C222.625 86.6414 222.975 86.1158 223.449 85.7177C223.922 85.3197 224.5 85.0655 225.113 84.9858C226.062 84.9858 226.555 85.887 226.801 86.6154C227.947 89.8868 230.017 97.2448 230.03 97.3188C230.058 97.413 230.107 97.4999 230.173 97.5725C230.239 97.6451 230.321 97.702 230.412 97.7387C230.499 97.7842 230.596 97.8078 230.695 97.8078C230.794 97.8078 230.891 97.7842 230.979 97.7387C231.065 97.6398 237.879 93.4423 242.302 93.4423V93.4919Z" fill="#202020"/>
<path d="M176.005 215.122L193.169 280.764L150.215 277.923L140.703 245.517L125.707 276.713H87.226L110.712 187.159L176.005 215.122Z" fill="black"/>
<path d="M115.301 206.466L178.98 218.367L163.147 124.134C163.147 124.134 130.728 117.615 122.892 117.615C116.287 117.566 115.301 206.466 115.301 206.466Z" fill="white"/>
<path d="M178.98 218.935C179.141 218.936 179.296 218.874 179.411 218.762C179.482 218.692 179.536 218.607 179.568 218.513C179.6 218.418 179.61 218.318 179.596 218.219L163.763 123.973C163.738 123.851 163.679 123.739 163.591 123.652C163.503 123.564 163.392 123.504 163.27 123.479C161.951 123.208 130.703 116.949 122.891 116.949C121.487 116.949 118.184 117.023 116.016 161.985C114.956 183.96 114.697 206.232 114.685 206.429C114.685 206.575 114.735 206.716 114.828 206.828C114.919 206.941 115.048 207.018 115.19 207.046L178.882 218.898L178.98 218.935ZM162.617 124.603L178.229 217.552L115.917 205.947C116.484 156.689 119.54 118.183 122.891 118.183C130.099 118.183 158.809 123.837 162.617 124.603Z" fill="#202020"/>
<path d="M137.16 134.418L142.002 139.134L138.084 141.85C138.084 141.85 142.212 172.615 156.727 176.985C171.242 181.355 176.885 179.849 176.885 179.849L184.895 190.281C184.895 190.281 172.45 193.849 171.562 194.145C170.675 194.442 144.307 188.281 140.154 171.923C137.678 162.274 136.054 152.426 135.299 142.491L132.675 139.183L137.16 134.418Z" fill="#202020"/>
<path d="M155.323 164.923C155.418 164.922 155.512 164.899 155.598 164.857C155.683 164.814 155.757 164.752 155.816 164.676L168.113 147.997C168.207 147.887 168.259 147.747 168.259 147.602C168.259 147.457 168.207 147.317 168.113 147.207L160.461 139.281L170.059 136.812C170.162 136.787 170.257 136.735 170.332 136.661C170.408 136.587 170.463 136.495 170.491 136.392C170.519 136.289 170.521 136.18 170.495 136.077C170.469 135.973 170.417 135.877 170.343 135.8L159.118 123.738C159.005 123.619 158.849 123.549 158.685 123.544C158.521 123.54 158.362 123.601 158.243 123.714C158.123 123.827 158.054 123.982 158.049 124.147C158.045 124.311 158.105 124.471 158.218 124.59L168.741 135.886L159.118 138.355C159.015 138.385 158.922 138.44 158.846 138.515C158.771 138.591 158.716 138.685 158.686 138.787C158.656 138.89 158.654 139 158.68 139.104C158.706 139.208 158.759 139.303 158.834 139.38L166.868 147.689L154.904 163.997C154.811 164.129 154.773 164.291 154.798 164.451C154.823 164.61 154.91 164.753 155.039 164.849C155.126 164.897 155.223 164.923 155.323 164.923Z" fill="#202020"/>
<path d="M124.518 163.121C124.6 163.132 124.683 163.132 124.764 163.121C124.913 163.053 125.029 162.93 125.089 162.778C125.149 162.626 125.148 162.457 125.085 162.306L116.053 141.195L125.319 136.541C125.466 136.456 125.576 136.32 125.627 136.158C125.651 136.076 125.658 135.99 125.647 135.905C125.636 135.82 125.609 135.738 125.566 135.664L118.641 124.393L127.734 120.183C127.881 120.111 127.995 119.985 128.053 119.831C128.11 119.677 128.106 119.507 128.042 119.356C128.008 119.282 127.959 119.215 127.899 119.16C127.838 119.105 127.768 119.062 127.691 119.035C127.614 119.007 127.533 118.995 127.451 119C127.37 119.004 127.29 119.024 127.216 119.06L117.495 123.566C117.415 123.602 117.344 123.654 117.286 123.72C117.229 123.786 117.186 123.864 117.162 123.948C117.138 124.033 117.131 124.121 117.142 124.208C117.152 124.295 117.18 124.379 117.224 124.455L124.198 135.652L115.018 140.269C114.878 140.339 114.769 140.459 114.714 140.606C114.659 140.753 114.662 140.915 114.722 141.059L123.988 162.701C124.028 162.814 124.098 162.914 124.192 162.988C124.286 163.063 124.399 163.109 124.518 163.121Z" fill="#202020"/>
<path d="M48.2337 0.566666L33.5337 30.4058L0.672095 35.1959L24.4525 58.4178L18.8337 91.2198L48.2337 75.7387L77.6335 91.2198L72.0147 58.4178L95.7959 35.1959L62.9334 30.4058L48.2337 0.566666Z" fill="#FFE700"/>
<path d="M18.8337 91.8378C18.933 91.8383 19.0306 91.8129 19.117 91.7635L48.2334 76.3934L77.3498 91.7266C77.4447 91.7899 77.5563 91.8235 77.6701 91.8235C77.7842 91.8235 77.8958 91.7899 77.9907 91.7266C78.085 91.66 78.1586 91.5677 78.2024 91.4603C78.2461 91.3532 78.2582 91.2357 78.2371 91.1217L72.6799 58.653L96.1777 35.6531C96.2614 35.5745 96.3208 35.4734 96.3492 35.3619C96.3777 35.2501 96.3735 35.1329 96.3377 35.0236C96.3013 34.9154 96.2363 34.8192 96.1493 34.7452C96.0626 34.6713 95.9573 34.6225 95.8448 34.6039L63.2907 29.8631L48.7386 0.320277C48.6823 0.222878 48.6016 0.142013 48.5042 0.0858011C48.4069 0.029589 48.2964 0 48.1842 0C48.0718 0 47.9616 0.029589 47.8642 0.0858011C47.7668 0.142013 47.6859 0.222878 47.6298 0.320277L33.0778 29.8631L0.524389 34.6039C0.412249 34.6225 0.30558 34.6713 0.218055 34.7452C0.133266 34.8192 0.0676384 34.9154 0.0293464 35.0236C-0.00621044 35.1329 -0.00895626 35.2501 0.0183951 35.3619C0.0484817 35.4734 0.105921 35.5745 0.19071 35.6531L23.787 58.6407L18.2298 91.1094C18.2087 91.2233 18.2207 91.3409 18.2645 91.448C18.3083 91.5554 18.3819 91.6477 18.4762 91.7142C18.5774 91.7962 18.7038 91.8397 18.8337 91.8378ZM48.2334 75.159C48.1404 75.1349 48.0431 75.1349 47.9501 75.159L19.6099 90.0723L25.0192 58.5048C25.0351 58.4051 25.028 58.3032 24.9979 58.2068C24.9681 58.1104 24.9161 58.0222 24.8466 57.9493L1.99042 35.6531L33.6199 31.0484C33.7194 31.0317 33.8141 30.9917 33.8953 30.9317C33.9768 30.8717 34.0427 30.7931 34.0881 30.7027L48.2334 1.96223L62.3788 30.715C62.4242 30.8054 62.4901 30.8841 62.5716 30.9441C62.6531 31.0043 62.7475 31.044 62.847 31.0608L94.4773 35.6531L71.5341 57.9739C71.4644 58.0468 71.4127 58.135 71.3826 58.2314C71.3528 58.3279 71.3454 58.4298 71.3615 58.5295L76.7708 90.0969L48.4306 75.1836C48.3669 75.1639 48.3002 75.1554 48.2334 75.159Z" fill="#202020"/>
<path d="M161.015 93.1091C162.001 88.6401 163.332 84.2203 163.726 79.6647C164.12 75.1094 163.504 70.2823 160.929 66.5167C158.157 62.4673 154.62 62.9366 150.357 62.381C144.701 61.6403 139.649 58.8009 134.4 56.7513C133.402 56.3563 131.849 56.27 131.665 57.3318C131.635 57.6638 131.699 57.9975 131.849 58.2947C132.527 59.9747 133.472 61.5337 134.647 62.9119C130.541 61.9778 126.602 60.4207 122.965 58.2947C122.578 60.309 122.649 62.3846 123.171 64.3679C123.694 66.351 124.655 68.191 125.984 69.7514L119.047 66.2699C118.531 69.2016 119.148 72.2207 120.773 74.7132C122.398 77.2058 124.908 78.9851 127.796 79.6894" fill="black"/>
<path d="M161.015 93.7385C161.159 93.7416 161.3 93.6936 161.412 93.6035C161.525 93.5131 161.602 93.3863 161.631 93.2446C161.89 92.0842 162.173 90.9238 162.457 89.7511C163.341 86.4622 163.975 83.1111 164.354 79.7263C164.687 75.9486 164.453 70.5414 161.446 66.1463C158.982 62.5661 155.877 62.2697 152.562 61.9736L150.431 61.7512C146.423 61.0255 142.537 59.7413 138.885 57.9366C137.493 57.3317 136.064 56.7019 134.634 56.1587C134.191 55.9664 133.713 55.8672 133.229 55.8672C132.746 55.8672 132.268 55.9664 131.825 56.1587C131.617 56.2683 131.438 56.4247 131.301 56.6154C131.165 56.8057 131.074 57.0257 131.036 57.2575C130.978 57.7062 131.056 58.1617 131.258 58.5661C131.728 59.7339 132.323 60.8472 133.032 61.8871C129.618 60.9387 126.341 59.5484 123.286 57.7514C123.197 57.7026 123.097 57.6772 122.996 57.6772C122.895 57.6772 122.795 57.7026 122.707 57.7514C122.615 57.7941 122.536 57.8577 122.473 57.9368C122.411 58.0163 122.369 58.1092 122.349 58.208C121.692 61.592 122.278 65.0998 124.001 68.0847L119.343 65.7512C119.254 65.7085 119.157 65.6863 119.059 65.6863C118.961 65.6863 118.864 65.7085 118.776 65.7512C118.688 65.7934 118.611 65.8556 118.551 65.9326C118.491 66.0098 118.45 66.1 118.431 66.1956C117.879 69.293 118.527 72.485 120.245 75.1189C121.963 77.7531 124.619 79.6307 127.672 80.3684C127.754 80.3865 127.839 80.3878 127.921 80.3728C128.003 80.3574 128.082 80.3259 128.152 80.2799C128.222 80.2339 128.282 80.1744 128.329 80.1049C128.375 80.0353 128.408 79.9569 128.424 79.8745C128.453 79.7079 128.417 79.5364 128.323 79.3959C128.228 79.2556 128.084 79.1573 127.919 79.1214C125.18 78.4968 122.801 76.8099 121.302 74.4302C119.902 72.3036 119.296 69.7508 119.589 67.2204L125.75 70.3192C125.881 70.3789 126.029 70.3926 126.169 70.3581C126.309 70.3233 126.434 70.2425 126.522 70.128C126.61 70.0137 126.658 69.8729 126.656 69.7283C126.655 69.5837 126.605 69.4439 126.514 69.3314C125.348 67.9592 124.479 66.3602 123.959 64.6352C123.44 62.9102 123.282 61.0959 123.495 59.3068C126.973 61.2354 130.707 62.6568 134.585 63.529C134.715 63.5573 134.851 63.5438 134.973 63.4912C135.095 63.4384 135.198 63.3488 135.267 63.2346C135.337 63.1206 135.369 62.9877 135.359 62.8546C135.349 62.7215 135.298 62.5949 135.213 62.4919C134.075 61.1721 133.16 59.675 132.502 58.0598C132.411 57.8673 132.365 57.6561 132.367 57.4427C132.371 57.3977 132.387 57.355 132.413 57.318C132.439 57.2813 132.474 57.252 132.515 57.2328C133.084 57.06 133.697 57.0994 134.24 57.344C135.645 57.887 137.074 58.5784 138.442 59.1093C142.209 60.9578 146.215 62.2708 150.344 63.0105C151.096 63.1094 151.823 63.171 152.525 63.245C155.778 63.5414 158.354 63.7759 160.473 66.8747C163.258 70.9487 163.48 76.0475 163.171 79.6153C162.791 82.9492 162.165 86.2501 161.299 89.4917C161.015 90.7263 160.732 91.8374 160.46 93.0101C160.428 93.1753 160.461 93.3471 160.553 93.4879C160.645 93.6287 160.789 93.7276 160.954 93.7632L161.015 93.7385Z" fill="#202020"/>
<path d="M130.679 112.196L129.213 121.776C129.213 121.776 130.716 135.714 141.226 133.27C151.737 130.825 155.926 121.331 155.926 121.331L157.269 96.0228C157.269 96.0228 149.519 91.7885 151.971 74.8873C143.357 78.5052 133.928 79.7294 124.678 78.4304C124.678 78.4304 120.982 95.8376 122.115 103.986C122.305 106.163 123.278 108.196 124.854 109.707C126.43 111.217 128.5 112.102 130.679 112.196Z" fill="#FFF4CB"/>
<path d="M138.897 134.232C139.727 134.223 140.553 134.124 141.362 133.936C144.629 133.107 147.677 131.573 150.291 129.44C152.904 127.308 155.021 124.629 156.493 121.591C156.51 121.518 156.51 121.441 156.493 121.368L157.934 96.1463C157.943 96.0258 157.916 95.9053 157.857 95.8001C157.798 95.6946 157.709 95.6091 157.602 95.5538C157.528 95.5538 150.295 91.2576 152.673 75.0724C152.686 74.9579 152.669 74.8418 152.623 74.7358C152.578 74.6298 152.506 74.5374 152.414 74.4676C152.323 74.3953 152.213 74.3512 152.097 74.3402C151.981 74.3292 151.865 74.352 151.761 74.406C143.251 77.9436 133.954 79.1454 124.826 77.8874C124.667 77.8685 124.507 77.9099 124.376 78.0036C124.247 78.0973 124.156 78.2364 124.123 78.3934C123.976 79.0972 120.365 95.9981 121.561 104.171C121.769 106.365 122.724 108.421 124.265 109.994C125.806 111.567 127.84 112.562 130.026 112.813L128.658 121.714C128.652 121.771 128.652 121.829 128.658 121.887C128.658 122.183 129.533 129.467 134.104 132.714C135.502 133.713 137.18 134.244 138.897 134.232ZM155.322 121.208C154.842 122.22 150.603 130.479 141.115 132.689C140.05 132.997 138.93 133.066 137.836 132.891C136.741 132.716 135.698 132.302 134.782 131.677C130.913 128.936 129.976 122.603 129.853 121.8L131.307 112.307C131.321 112.217 131.316 112.124 131.29 112.037C131.264 111.949 131.22 111.869 131.159 111.801C131.104 111.729 131.034 111.671 130.952 111.633C130.87 111.594 130.781 111.575 130.691 111.578C128.66 111.494 126.73 110.668 125.266 109.255C123.802 107.843 122.904 105.942 122.744 103.912C121.708 96.7884 124.542 82.2206 125.208 79.2207C134.011 80.2896 142.941 79.1835 151.219 75.9984C149.457 90.4057 155.137 95.3809 156.641 96.4304L155.322 121.208Z" fill="#202020"/>
<path d="M136.113 88.6649C136.113 88.6649 131.184 97.8375 132.626 99.2204C134.067 100.603 137.899 99.2204 137.899 99.2204" fill="#FFF4CB"/>
<path d="M134.721 100.455C135.862 100.429 136.993 100.225 138.072 99.8498C138.155 99.8284 138.232 99.7903 138.299 99.7375C138.366 99.6846 138.422 99.6183 138.462 99.543C138.503 99.4676 138.527 99.3844 138.533 99.2992C138.54 99.214 138.529 99.1282 138.501 99.0474C138.472 98.9666 138.427 98.8926 138.369 98.8302C138.311 98.7677 138.24 98.7181 138.162 98.6844C138.083 98.6508 137.998 98.6338 137.913 98.6346C137.828 98.6354 137.743 98.654 137.665 98.6894C136.778 99.0102 133.969 99.7016 133.02 98.788C132.416 98.2324 134.142 93.5659 136.63 88.9856C136.669 88.9144 136.694 88.8361 136.703 88.7552C136.711 88.6744 136.704 88.5928 136.681 88.5147C136.658 88.4366 136.62 88.3641 136.569 88.3008C136.518 88.2375 136.455 88.1849 136.384 88.1463C136.313 88.1071 136.235 88.0824 136.154 88.0737C136.073 88.0649 135.992 88.0723 135.914 88.0953C135.836 88.1181 135.763 88.1564 135.7 88.2074C135.637 88.2586 135.585 88.3216 135.546 88.3931C133.969 91.2821 130.507 98.1585 132.195 99.7016C132.916 100.255 133.815 100.523 134.721 100.455Z" fill="#202020"/>
<path d="M144.982 89.3976C144.411 89.3735 143.992 88.2936 144.047 86.9856C144.102 85.6778 144.609 84.6368 145.18 84.6609C145.752 84.685 146.17 85.7649 146.115 87.0729C146.06 88.3807 145.553 89.4214 144.982 89.3976Z" fill="#202020"/>
<path d="M128.485 89.3936C127.914 89.3694 127.495 88.2896 127.55 86.9815C127.605 85.6737 128.113 84.633 128.684 84.6569C129.255 84.681 129.674 85.7608 129.619 87.0689C129.564 88.3767 129.056 89.4177 128.485 89.3936Z" fill="#202020"/>
<path d="M150.554 91.7013C151.492 90.1146 152.721 88.7197 154.177 87.5903C154.925 86.9131 155.862 86.4822 156.863 86.3556C157.684 86.3644 158.487 86.6038 159.179 87.0471C160.215 87.6544 161.11 88.4743 161.807 89.4531C162.503 90.4319 162.985 91.5473 163.221 92.7261C163.451 93.8183 163.409 94.9505 163.098 96.0224C162.502 97.6838 161.342 99.0823 159.82 99.9729C158.311 100.846 156.707 101.542 155.039 102.047" fill="#FFF4CB"/>
<path d="M155.039 102.726H155.248C156.97 102.207 158.625 101.486 160.177 100.578C161.824 99.6135 163.077 98.0959 163.714 96.294C164.061 95.119 164.111 93.8762 163.861 92.6766C163.609 91.3981 163.09 90.1876 162.338 89.1239C161.586 88.0602 160.619 87.1674 159.5 86.5039C158.708 85.9971 157.789 85.7273 156.85 85.7262C155.721 85.8456 154.656 86.3064 153.794 87.0471C152.28 88.2295 151.001 89.6871 150.024 91.3433C149.938 91.4893 149.913 91.6633 149.955 91.8274C149.996 91.9917 150.101 92.1328 150.246 92.2199C150.393 92.3048 150.568 92.3281 150.731 92.284C150.896 92.2402 151.036 92.1325 151.121 91.9854C152.008 90.4664 153.179 89.1335 154.571 88.0596C155.226 87.4854 156.036 87.12 156.899 87.0102C157.599 87.02 158.282 87.2252 158.871 87.6027C159.819 88.173 160.637 88.9354 161.274 89.841C161.91 90.7467 162.351 91.7756 162.568 92.8618C162.768 93.8523 162.73 94.8766 162.456 95.8496C161.906 97.3634 160.842 98.6353 159.45 99.4421C157.981 100.293 156.418 100.968 154.792 101.454C154.714 101.481 154.641 101.523 154.578 101.577C154.516 101.632 154.465 101.699 154.428 101.773C154.392 101.848 154.37 101.929 154.365 102.012C154.36 102.095 154.371 102.178 154.398 102.257C154.433 102.398 154.516 102.523 154.633 102.609C154.75 102.694 154.894 102.736 155.039 102.726Z" fill="#202020"/>
<path d="M130.678 112.196C136.72 113.129 142.901 112.109 148.323 109.282C148.323 109.282 139.328 123.134 129.298 121.183L130.678 112.196Z" fill="#202020"/>
<path d="M131.32 122.072C140.734 122.072 148.57 110.244 148.878 109.726C148.951 109.611 148.984 109.475 148.973 109.339C148.962 109.203 148.907 109.075 148.817 108.973C148.727 108.87 148.605 108.801 148.471 108.776C148.337 108.751 148.198 108.773 148.078 108.837C142.771 111.586 136.734 112.584 130.827 111.689C130.66 111.659 130.488 111.695 130.346 111.788C130.277 111.837 130.219 111.899 130.174 111.971C130.13 112.043 130.1 112.124 130.088 112.208L128.708 121.183C128.679 121.34 128.713 121.502 128.803 121.634C128.893 121.766 129.032 121.856 129.188 121.886C129.891 122.016 130.605 122.078 131.32 122.072ZM146.463 110.961C143.691 114.504 137.086 121.726 130.039 120.837L131.271 113.072C136.44 113.706 141.684 112.947 146.463 110.874V110.961Z" fill="#202020"/>
<path d="M144.061 95.3682C145.713 95.3682 147.328 94.8773 148.702 93.9577C150.076 93.0378 151.146 91.7305 151.779 90.2011C152.411 88.6717 152.577 86.9886 152.254 85.365C151.932 83.7414 151.136 82.2498 149.968 81.0792C148.799 79.9087 147.311 79.1115 145.69 78.7885C144.07 78.4656 142.39 78.6313 140.863 79.2646C139.337 79.8983 138.032 80.971 137.114 82.3476C136.196 83.7241 135.706 85.3425 135.706 86.998C135.71 89.2169 136.591 91.344 138.157 92.9129C139.723 94.482 141.846 95.3649 144.061 95.3682ZM144.061 79.8991C145.462 79.8991 146.832 80.3155 147.997 81.0957C149.162 81.8756 150.07 82.9842 150.606 84.2813C151.143 85.5784 151.283 87.0059 151.009 88.3827C150.736 89.7598 150.061 91.0246 149.07 92.0173C148.08 93.0101 146.817 93.6862 145.443 93.9601C144.068 94.2341 142.644 94.0935 141.349 93.5563C140.055 93.0189 138.948 92.1091 138.17 90.9416C137.391 89.7743 136.975 88.4019 136.975 86.998C136.979 85.1163 137.726 83.3126 139.054 81.9818C140.382 80.6513 142.183 79.9024 144.061 79.8991Z" fill="#202020"/>
<path d="M127.401 95.3682C129.054 95.3682 130.669 94.8773 132.043 93.9577C133.417 93.0378 134.487 91.7305 135.12 90.2011C135.752 88.6717 135.917 86.9886 135.595 85.365C135.273 83.7414 134.477 82.2498 133.309 81.0792C132.14 79.9087 130.652 79.1115 129.031 78.7885C127.411 78.4656 125.731 78.6313 124.205 79.2646C122.678 79.8983 121.373 80.971 120.455 82.3476C119.537 83.7241 119.047 85.3425 119.047 86.998C119.05 89.2169 119.932 91.344 121.498 92.9129C123.064 94.482 125.187 95.3649 127.401 95.3682ZM127.401 79.8991C128.803 79.8991 130.173 80.3155 131.338 81.0957C132.503 81.8756 133.411 82.9842 133.947 84.2813C134.483 85.5784 134.624 87.0059 134.35 88.3827C134.077 89.7598 133.402 91.0246 132.411 92.0173C131.42 93.0101 130.158 93.6862 128.784 93.9601C127.409 94.2341 125.985 94.0935 124.69 93.5563C123.395 93.0189 122.289 92.1091 121.51 90.9416C120.732 89.7743 120.317 88.4019 120.317 86.998C120.32 85.1163 121.067 83.3126 122.395 81.9818C123.723 80.6513 125.523 79.9024 127.401 79.8991Z" fill="#202020"/>
<path d="M136.063 105.566C139.957 105.566 143.715 103.195 147.252 98.5905C147.313 98.5278 147.36 98.453 147.391 98.3705C147.421 98.2883 147.433 98.2007 147.427 98.1133C147.42 98.0259 147.395 97.9407 147.354 97.8637C147.312 97.7868 147.254 97.7194 147.185 97.6665C147.115 97.6134 147.035 97.5758 146.95 97.5564C146.864 97.5367 146.776 97.5356 146.69 97.5528C146.604 97.5703 146.523 97.6057 146.452 97.6569C146.381 97.7079 146.322 97.7736 146.278 97.8498C142.988 102.121 139.55 104.306 136.063 104.331C131.246 104.331 127.906 100.158 127.87 100.121C127.766 100.003 127.622 99.9287 127.466 99.9136C127.31 99.8983 127.154 99.9432 127.03 100.039C126.905 100.135 126.823 100.275 126.798 100.43C126.773 100.586 126.808 100.744 126.896 100.874C127.069 101.084 130.679 105.566 136.063 105.566Z" fill="#202020"/>
<path fill-rule="evenodd" clip-rule="evenodd" d="M104.803 115.368C104.803 115.368 81.6994 123.146 75.7726 121.405C69.8458 119.664 57.8569 91.2076 57.8569 91.2076L33.5705 94.2325C33.5705 94.2325 43.699 154.429 62.9702 157.664C78.7734 160.316 98.8435 155.007 105.556 153.01C102.155 169.223 87.4785 208.7 87.4785 208.7C87.4785 213.083 131.627 239.317 134.449 231.453C121.364 162.318 130.383 117.59 130.691 117.566L130.66 117.558C129.876 117.357 114.708 113.479 104.803 115.368L104.803 115.368L104.803 115.368ZM150.738 131.115L150.738 131.115L150.738 131.114C151.498 126.957 153.125 118.06 152.365 117.565C152.365 117.565 171.489 117.195 183.355 130.886C183.432 130.976 183.503 131.079 183.57 131.196C193.818 141.239 216.175 162.662 218.176 157.677C220.603 151.627 222.328 123.862 222.328 123.862L244.508 127.158C244.508 127.158 257.298 189.676 235.057 196.565C218.23 201.777 194.765 184.262 184.339 175.426C186.097 181.027 190.046 190.227 193.151 197.46L193.152 197.461L193.152 197.462C194.442 200.466 195.586 203.131 196.367 205.058C198.153 209.404 200.063 213.762 202.059 218.046C202.237 218.426 202.435 218.827 202.64 219.243C204.06 222.117 205.839 225.715 203.686 228.465C202.116 230.099 200.095 231.226 197.882 231.7C191.713 233.588 185.352 234.776 178.919 235.243C172.906 235.675 167.262 234.687 164.391 228.934C161.52 223.181 158.785 217.329 156.431 211.342C151.2 198.394 148.461 184.57 148.361 170.602C148.321 158.084 148.995 145.574 150.382 133.133C150.413 132.887 150.549 132.147 150.738 131.115Z" fill="#244156"/>
<path d="M197.216 207.663C197.325 207.664 197.432 207.634 197.524 207.577C197.595 207.537 197.656 207.484 197.706 207.42C197.755 207.356 197.792 207.283 197.812 207.204C197.833 207.126 197.838 207.044 197.827 206.964C197.815 206.884 197.788 206.807 197.746 206.738C197.611 206.491 183.416 181.108 178.808 140.788C178.783 140.626 178.698 140.48 178.57 140.379C178.442 140.278 178.28 140.23 178.117 140.244C177.956 140.263 177.808 140.345 177.707 140.472C177.605 140.599 177.558 140.762 177.575 140.924C182.22 181.516 196.539 207.096 196.686 207.355C196.74 207.448 196.817 207.526 196.91 207.58C197.003 207.634 197.109 207.663 197.216 207.663Z" fill="#202020"/>
<path d="M67.7144 158.306C84.2872 158.306 115.116 151.355 115.424 151.281C115.504 151.264 115.579 151.231 115.646 151.184C115.712 151.137 115.769 151.078 115.813 151.009C115.856 150.94 115.886 150.863 115.899 150.782C115.913 150.702 115.911 150.62 115.893 150.541C115.877 150.46 115.845 150.384 115.798 150.317C115.752 150.25 115.692 150.193 115.623 150.15C115.553 150.107 115.476 150.079 115.395 150.068C115.314 150.056 115.232 150.062 115.153 150.084C114.845 150.146 84.1518 157.071 67.7267 157.071H66.4946C66.3321 157.071 66.1759 157.134 66.0586 157.247C65.9415 157.36 65.8726 157.513 65.866 157.676C65.8644 157.757 65.8789 157.838 65.9084 157.913C65.9377 157.989 65.9817 158.058 66.0378 158.116C66.0939 158.175 66.1609 158.222 66.235 158.254C66.3091 158.287 66.389 158.304 66.47 158.306H67.7144Z" fill="#202020"/>
<path d="M235.303 94.7259C235.303 94.7259 231.41 98.8865 233.32 106.183C235.23 113.479 238.446 114.825 243.904 111.578" fill="#FFF4CB"/>
<path d="M239.111 113.899C240.947 113.776 242.718 113.162 244.237 112.121C244.308 112.078 244.37 112.021 244.419 111.954C244.469 111.888 244.504 111.811 244.524 111.731C244.545 111.65 244.548 111.566 244.536 111.483C244.524 111.401 244.495 111.322 244.452 111.251C244.41 111.179 244.353 111.117 244.286 111.068C244.219 111.018 244.143 110.982 244.063 110.962C243.982 110.942 243.898 110.938 243.816 110.951C243.734 110.963 243.655 110.992 243.584 111.035C241.119 112.529 239.222 112.961 237.792 112.38C236.141 111.714 234.884 109.64 233.948 106.022C232.161 99.183 235.636 95.3312 235.784 95.1706C235.902 95.0504 235.968 94.8888 235.968 94.72C235.968 94.5513 235.902 94.3896 235.784 94.2694C235.727 94.2097 235.658 94.162 235.581 94.1297C235.505 94.0973 235.423 94.0804 235.34 94.0804C235.258 94.0804 235.176 94.0973 235.099 94.1297C235.023 94.162 234.954 94.2097 234.897 94.2694C234.724 94.4546 230.781 98.7754 232.753 106.319C233.825 110.405 235.217 112.701 237.349 113.541C237.909 113.77 238.506 113.891 239.111 113.899Z" fill="#202020"/>
<path d="M52.3982 82.8994C52.3982 82.8994 59.5076 70.9121 57.7702 69.6897C56.0329 68.4677 51.9915 73.1343 49.7612 76.2947C49.7612 76.2947 42.9226 77.5291 44.0686 85.1588" fill="#FFF4CB"/>
<path d="M44.0687 85.8007H44.1674C44.3335 85.7736 44.4822 85.6819 44.5813 85.5454C44.6805 85.4093 44.7221 85.2392 44.6972 85.0723C43.6499 78.1343 49.626 76.9739 49.8724 76.9366C50.036 76.9054 50.1815 76.8128 50.2791 76.6775C53.2115 72.5171 56.44 69.5665 57.4009 70.2207C57.8568 71.048 55.3186 76.7268 51.8439 82.5663C51.7618 82.711 51.7391 82.8822 51.7804 83.0433C51.8217 83.2046 51.924 83.3432 52.0657 83.4303C52.1374 83.4747 52.217 83.5043 52.3004 83.5169C52.3835 83.5298 52.4683 83.5257 52.5501 83.5049C52.6316 83.4843 52.7082 83.4473 52.7752 83.3964C52.8425 83.3454 52.8986 83.2813 52.9404 83.2082C56.3167 77.5045 59.964 70.4429 58.1279 69.1589C55.6635 67.406 50.9689 73.48 49.3795 75.7146C48.0609 76.0603 42.3436 77.9861 43.4404 85.2452C43.4612 85.3981 43.5359 85.5383 43.6513 85.6402C43.7667 85.7424 43.915 85.7994 44.0687 85.8007Z" fill="#202020"/>
</svg>
