<svg width="126" height="278" viewBox="0 0 126 278" fill="none" xmlns="http://www.w3.org/2000/svg">
<circle cx="123.564" cy="275.431" r="2.07091" transform="rotate(-180 123.564 275.431)" fill="#00D2D8"/>
<circle cx="93.1911" cy="275.431" r="2.07091" transform="rotate(-180 93.1911 275.431)" fill="#00D2D8"/>
<circle cx="62.8175" cy="275.431" r="2.07091" transform="rotate(-180 62.8175 275.431)" fill="#00D2D8"/>
<circle cx="32.4442" cy="275.431" r="2.07091" transform="rotate(-180 32.4442 275.431)" fill="#00D2D8"/>
<circle cx="2.07093" cy="275.431" r="2.07091" transform="rotate(-180 2.07093 275.431)" fill="#00D2D8"/>
<circle cx="123.564" cy="245.058" r="2.07091" transform="rotate(-180 123.564 245.058)" fill="#00D2D8"/>
<circle cx="93.1911" cy="245.058" r="2.07091" transform="rotate(-180 93.1911 245.058)" fill="#00D2D8"/>
<circle cx="62.8175" cy="245.058" r="2.07091" transform="rotate(-180 62.8175 245.058)" fill="#00D2D8"/>
<circle cx="32.4442" cy="245.058" r="2.07091" transform="rotate(-180 32.4442 245.058)" fill="#00D2D8"/>
<circle cx="2.07093" cy="245.058" r="2.07091" transform="rotate(-180 2.07093 245.058)" fill="#00D2D8"/>
<circle cx="123.564" cy="214.684" r="2.07091" transform="rotate(-180 123.564 214.684)" fill="#00D2D8"/>
<circle cx="93.1911" cy="214.684" r="2.07091" transform="rotate(-180 93.1911 214.684)" fill="#00D2D8"/>
<circle cx="62.8175" cy="214.684" r="2.07091" transform="rotate(-180 62.8175 214.684)" fill="#00D2D8"/>
<circle cx="32.4442" cy="214.684" r="2.07091" transform="rotate(-180 32.4442 214.684)" fill="#00D2D8"/>
<circle cx="2.07093" cy="214.684" r="2.07091" transform="rotate(-180 2.07093 214.684)" fill="#00D2D8"/>
<circle cx="123.564" cy="184.311" r="2.07091" transform="rotate(-180 123.564 184.311)" fill="#00D2D8"/>
<circle cx="93.1911" cy="184.311" r="2.07091" transform="rotate(-180 93.1911 184.311)" fill="#00D2D8"/>
<circle cx="62.8175" cy="184.311" r="2.07091" transform="rotate(-180 62.8175 184.311)" fill="#00D2D8"/>
<circle cx="32.4442" cy="184.311" r="2.07091" transform="rotate(-180 32.4442 184.311)" fill="#00D2D8"/>
<circle cx="2.07093" cy="184.311" r="2.07091" transform="rotate(-180 2.07093 184.311)" fill="#00D2D8"/>
<circle cx="123.564" cy="153.937" r="2.07091" transform="rotate(-180 123.564 153.937)" fill="#00D2D8"/>
<circle cx="93.1911" cy="153.937" r="2.07091" transform="rotate(-180 93.1911 153.937)" fill="#00D2D8"/>
<circle cx="62.8175" cy="153.937" r="2.07091" transform="rotate(-180 62.8175 153.937)" fill="#00D2D8"/>
<circle cx="32.4442" cy="153.937" r="2.07091" transform="rotate(-180 32.4442 153.937)" fill="#00D2D8"/>
<circle cx="2.07093" cy="153.937" r="2.07091" transform="rotate(-180 2.07093 153.937)" fill="#00D2D8"/>
<circle cx="123.564" cy="123.564" r="2.07091" transform="rotate(-180 123.564 123.564)" fill="#00D2D8"/>
<circle cx="93.1911" cy="123.564" r="2.07091" transform="rotate(-180 93.1911 123.564)" fill="#00D2D8"/>
<circle cx="62.8175" cy="123.564" r="2.07091" transform="rotate(-180 62.8175 123.564)" fill="#00D2D8"/>
<circle cx="32.4442" cy="123.564" r="2.07091" transform="rotate(-180 32.4442 123.564)" fill="#00D2D8"/>
<circle cx="2.07093" cy="123.564" r="2.07091" transform="rotate(-180 2.07093 123.564)" fill="#00D2D8"/>
<circle cx="123.564" cy="93.1905" r="2.07091" transform="rotate(-180 123.564 93.1905)" fill="#00D2D8"/>
<circle cx="93.1911" cy="93.1905" r="2.07091" transform="rotate(-180 93.1911 93.1905)" fill="#00D2D8"/>
<circle cx="62.8175" cy="93.1906" r="2.07091" transform="rotate(-180 62.8175 93.1906)" fill="#00D2D8"/>
<circle cx="32.4442" cy="93.1906" r="2.07091" transform="rotate(-180 32.4442 93.1906)" fill="#00D2D8"/>
<circle cx="2.07093" cy="93.1906" r="2.07091" transform="rotate(-180 2.07093 93.1906)" fill="#00D2D8"/>
<circle cx="123.564" cy="62.8173" r="2.07091" transform="rotate(-180 123.564 62.8173)" fill="#00D2D8"/>
<circle cx="93.1911" cy="62.8173" r="2.07091" transform="rotate(-180 93.1911 62.8173)" fill="#00D2D8"/>
<circle cx="62.8175" cy="62.8173" r="2.07091" transform="rotate(-180 62.8175 62.8173)" fill="#00D2D8"/>
<circle cx="32.4442" cy="62.8173" r="2.07091" transform="rotate(-180 32.4442 62.8173)" fill="#00D2D8"/>
<circle cx="2.07093" cy="62.8173" r="2.07091" transform="rotate(-180 2.07093 62.8173)" fill="#00D2D8"/>
<circle cx="123.564" cy="32.4441" r="2.07091" transform="rotate(-180 123.564 32.4441)" fill="#00D2D8"/>
<circle cx="93.1911" cy="32.4441" r="2.07091" transform="rotate(-180 93.1911 32.4441)" fill="#00D2D8"/>
<circle cx="62.8175" cy="32.4441" r="2.07091" transform="rotate(-180 62.8175 32.4441)" fill="#00D2D8"/>
<circle cx="32.4442" cy="32.4441" r="2.07091" transform="rotate(-180 32.4442 32.4441)" fill="#00D2D8"/>
<circle cx="2.07093" cy="32.4441" r="2.07091" transform="rotate(-180 2.07093 32.4441)" fill="#00D2D8"/>
<circle cx="123.564" cy="2.07093" r="2.07091" transform="rotate(-180 123.564 2.07093)" fill="#00D2D8"/>
<circle cx="93.1911" cy="2.07093" r="2.07091" transform="rotate(-180 93.1911 2.07093)" fill="#00D2D8"/>
<circle cx="62.8175" cy="2.07093" r="2.07091" transform="rotate(-180 62.8175 2.07093)" fill="#00D2D8"/>
<circle cx="32.4442" cy="2.07093" r="2.07091" transform="rotate(-180 32.4442 2.07093)" fill="#00D2D8"/>
<circle cx="2.07093" cy="2.07093" r="2.07091" transform="rotate(-180 2.07093 2.07093)" fill="#00D2D8"/>
</svg>
