<svg width="1600" height="768" viewBox="0 0 1600 768" fill="none" xmlns="http://www.w3.org/2000/svg">
<path d="M0 100.9C0 100.9 487.428 128.525 800 128.525C1112.57 128.525 1600 100.9 1600 100.9V656.9C1600 656.9 1112.57 619.276 800 619.276C487.428 619.276 0 656.9 0 656.9L0 100.9Z" fill="#005CFF"/>
<circle cx="1504.48" cy="275.431" r="2.07091" transform="rotate(-180 1504.48 275.431)" fill="#00D2D8"/>
<circle cx="1474.1" cy="275.431" r="2.07091" transform="rotate(-180 1474.1 275.431)" fill="#00D2D8"/>
<circle cx="1443.73" cy="275.431" r="2.07091" transform="rotate(-180 1443.73 275.431)" fill="#00D2D8"/>
<circle cx="1413.36" cy="275.431" r="2.07091" transform="rotate(-180 1413.36 275.431)" fill="#00D2D8"/>
<circle cx="1382.98" cy="275.431" r="2.07091" transform="rotate(-180 1382.98 275.431)" fill="#00D2D8"/>
<circle cx="1504.48" cy="245.058" r="2.07091" transform="rotate(-180 1504.48 245.058)" fill="#00D2D8"/>
<circle cx="1474.1" cy="245.058" r="2.07091" transform="rotate(-180 1474.1 245.058)" fill="#00D2D8"/>
<circle cx="1443.73" cy="245.058" r="2.07091" transform="rotate(-180 1443.73 245.058)" fill="#00D2D8"/>
<circle cx="1413.36" cy="245.058" r="2.07091" transform="rotate(-180 1413.36 245.058)" fill="#00D2D8"/>
<circle cx="1382.98" cy="245.058" r="2.07091" transform="rotate(-180 1382.98 245.058)" fill="#00D2D8"/>
<circle cx="1504.48" cy="214.684" r="2.07091" transform="rotate(-180 1504.48 214.684)" fill="#00D2D8"/>
<circle cx="1474.1" cy="214.684" r="2.07091" transform="rotate(-180 1474.1 214.684)" fill="#00D2D8"/>
<circle cx="1443.73" cy="214.684" r="2.07091" transform="rotate(-180 1443.73 214.684)" fill="#00D2D8"/>
<circle cx="1413.36" cy="214.684" r="2.07091" transform="rotate(-180 1413.36 214.684)" fill="#00D2D8"/>
<circle cx="1382.98" cy="214.684" r="2.07091" transform="rotate(-180 1382.98 214.684)" fill="#00D2D8"/>
<circle cx="1504.48" cy="184.31" r="2.07091" transform="rotate(-180 1504.48 184.31)" fill="#00D2D8"/>
<circle cx="1474.1" cy="184.31" r="2.07091" transform="rotate(-180 1474.1 184.31)" fill="#00D2D8"/>
<circle cx="1443.73" cy="184.31" r="2.07091" transform="rotate(-180 1443.73 184.31)" fill="#00D2D8"/>
<circle cx="1413.36" cy="184.31" r="2.07091" transform="rotate(-180 1413.36 184.31)" fill="#00D2D8"/>
<circle cx="1382.98" cy="184.31" r="2.07091" transform="rotate(-180 1382.98 184.31)" fill="#00D2D8"/>
<circle cx="1504.48" cy="153.937" r="2.07091" transform="rotate(-180 1504.48 153.937)" fill="#00D2D8"/>
<circle cx="1474.1" cy="153.937" r="2.07091" transform="rotate(-180 1474.1 153.937)" fill="#00D2D8"/>
<circle cx="1443.73" cy="153.937" r="2.07091" transform="rotate(-180 1443.73 153.937)" fill="#00D2D8"/>
<circle cx="1413.36" cy="153.937" r="2.07091" transform="rotate(-180 1413.36 153.937)" fill="#00D2D8"/>
<circle cx="1382.98" cy="153.937" r="2.07091" transform="rotate(-180 1382.98 153.937)" fill="#00D2D8"/>
<circle cx="1504.48" cy="123.563" r="2.07091" transform="rotate(-180 1504.48 123.563)" fill="#00D2D8"/>
<circle cx="1474.1" cy="123.563" r="2.07091" transform="rotate(-180 1474.1 123.563)" fill="#00D2D8"/>
<circle cx="1443.73" cy="123.563" r="2.07091" transform="rotate(-180 1443.73 123.563)" fill="#00D2D8"/>
<circle cx="1413.36" cy="123.563" r="2.07091" transform="rotate(-180 1413.36 123.563)" fill="#00D2D8"/>
<circle cx="1382.98" cy="123.563" r="2.07091" transform="rotate(-180 1382.98 123.563)" fill="#00D2D8"/>
<circle cx="1504.48" cy="93.1903" r="2.07091" transform="rotate(-180 1504.48 93.1903)" fill="#00D2D8"/>
<circle cx="1474.1" cy="93.1903" r="2.07091" transform="rotate(-180 1474.1 93.1903)" fill="#00D2D8"/>
<circle cx="1443.73" cy="93.1903" r="2.07091" transform="rotate(-180 1443.73 93.1903)" fill="#00D2D8"/>
<circle cx="1413.36" cy="93.1903" r="2.07091" transform="rotate(-180 1413.36 93.1903)" fill="#00D2D8"/>
<circle cx="1382.98" cy="93.1903" r="2.07091" transform="rotate(-180 1382.98 93.1903)" fill="#00D2D8"/>
<circle cx="1504.48" cy="62.8173" r="2.07091" transform="rotate(-180 1504.48 62.8173)" fill="#00D2D8"/>
<circle cx="1474.1" cy="62.8173" r="2.07091" transform="rotate(-180 1474.1 62.8173)" fill="#00D2D8"/>
<circle cx="1443.73" cy="62.8173" r="2.07091" transform="rotate(-180 1443.73 62.8173)" fill="#00D2D8"/>
<circle cx="1413.36" cy="62.8173" r="2.07091" transform="rotate(-180 1413.36 62.8173)" fill="#00D2D8"/>
<circle cx="1382.98" cy="62.8173" r="2.07091" transform="rotate(-180 1382.98 62.8173)" fill="#00D2D8"/>
<circle cx="1504.48" cy="32.4437" r="2.07091" transform="rotate(-180 1504.48 32.4437)" fill="#00D2D8"/>
<circle cx="1474.1" cy="32.4437" r="2.07091" transform="rotate(-180 1474.1 32.4437)" fill="#00D2D8"/>
<circle cx="1443.73" cy="32.4437" r="2.07091" transform="rotate(-180 1443.73 32.4437)" fill="#00D2D8"/>
<circle cx="1413.36" cy="32.4437" r="2.07091" transform="rotate(-180 1413.36 32.4437)" fill="#00D2D8"/>
<circle cx="1382.98" cy="32.4437" r="2.07091" transform="rotate(-180 1382.98 32.4437)" fill="#00D2D8"/>
<circle cx="1504.48" cy="2.07069" r="2.07091" transform="rotate(-180 1504.48 2.07069)" fill="#00D2D8"/>
<circle cx="1474.1" cy="2.07069" r="2.07091" transform="rotate(-180 1474.1 2.07069)" fill="#00D2D8"/>
<circle cx="1443.73" cy="2.07069" r="2.07091" transform="rotate(-180 1443.73 2.07069)" fill="#00D2D8"/>
<circle cx="1413.36" cy="2.07069" r="2.07091" transform="rotate(-180 1413.36 2.07069)" fill="#00D2D8"/>
<circle cx="1382.98" cy="2.07069" r="2.07091" transform="rotate(-180 1382.98 2.07069)" fill="#00D2D8"/>
<circle cx="137.083" cy="111.984" r="26.0833" stroke="#FFE700" stroke-width="2"/>
<path fill-rule="evenodd" clip-rule="evenodd" d="M0 767.765C52.6467 759.809 93 714.367 93 659.5C93 604.634 52.6467 559.192 0 551.235V552.247C52.0922 560.195 92 605.187 92 659.5C92 713.814 52.0922 758.806 0 766.754V767.765Z" fill="#00D2D8"/>
</svg>
