<svg width="1600" height="981" viewBox="0 0 1600 981" fill="none" xmlns="http://www.w3.org/2000/svg">
<path fill-rule="evenodd" clip-rule="evenodd" d="M-2.61589e-05 681.518L-8.56743e-05 0.74115L1599.71 0.74101L1599.71 430.852L1600 431.09L1600 939.009C1570.61 959.34 1535.36 973.374 1494.13 979.222C1435.65 987.517 1384.15 960.489 1327.87 930.951C1280.35 906.009 1229.41 879.279 1167.99 870.513C1106.72 861.768 1059.04 883.421 1003.09 908.829C936.543 939.054 858.29 974.593 731.521 970.601C561.138 965.236 456.876 891.111 354.617 818.41C316.833 791.546 279.325 764.88 238.857 741.948C144.645 688.562 77.2588 685.281 7.3613 681.878C4.91111 681.759 2.45749 681.64 -2.61589e-05 681.518Z" fill="#193040"/>
</svg>
