<svg>
	<symbol xmlns="http://www.w3.org/2000/svg" viewBox="0 0 23 23" id="icon-whatsapp">
		<path d="M19.6489 3.34247C17.4868 1.18818 14.6114 0.00126343 11.5481 0C5.23585 0 0.098598 5.11253 0.096059 11.3963C0.0952127 13.405 0.622479 15.3658 1.62468 17.0942L0 23L6.0709 21.4151C7.74368 22.3232 9.62692 22.8018 11.5434 22.8023H11.5482C17.8598 22.8023 22.9976 17.6894 23 11.4054C23.0013 8.35996 21.8112 5.49661 19.6489 3.34247ZM11.5481 20.8776H11.5442C9.83625 20.8769 8.16121 20.4201 6.69959 19.5572L6.35217 19.3518L2.7496 20.2923L3.71118 16.7967L3.48478 16.4383C2.53195 14.9301 2.02881 13.1868 2.02965 11.397C2.03163 6.17409 6.30167 1.9249 11.5519 1.9249C14.0943 1.92574 16.4842 2.91234 18.2813 4.7029C20.0783 6.49346 21.0674 8.87347 21.0665 11.4047C21.0643 16.628 16.7945 20.8776 11.5481 20.8776V20.8776ZM16.7691 13.7829C16.4831 13.6402 15.0762 12.9515 14.8138 12.8564C14.5517 12.7613 14.3608 12.714 14.1702 12.999C13.9793 13.284 13.4311 13.9255 13.264 14.1154C13.097 14.3055 12.9303 14.3294 12.6441 14.1867C12.3579 14.0443 11.436 13.7434 10.3429 12.7733C9.49235 12.0181 8.91811 11.0856 8.7511 10.8006C8.58438 10.5154 8.74969 10.3761 8.87664 10.2194C9.1864 9.83663 9.49658 9.43528 9.59194 9.24534C9.68743 9.05527 9.63961 8.88892 9.56796 8.74643C9.49658 8.60394 8.92432 7.20224 8.68594 6.63187C8.45348 6.07681 8.21777 6.15177 8.04202 6.14307C7.87529 6.13478 7.68444 6.1331 7.49359 6.1331C7.30288 6.1331 6.99284 6.20427 6.73048 6.48953C6.46826 6.77464 5.72912 7.46349 5.72912 8.86519C5.72912 10.2669 6.75446 11.621 6.89749 11.8111C7.04052 12.0012 8.91529 14.8776 11.7856 16.1109C12.4683 16.4046 13.0013 16.5797 13.4169 16.7109C14.1025 16.9277 14.7261 16.8971 15.2192 16.8238C15.7691 16.742 16.912 16.1348 17.1507 15.4697C17.3891 14.8044 17.3891 14.2343 17.3174 14.1154C17.2461 13.9967 17.0552 13.9255 16.7691 13.7829V13.7829Z" />
	</symbol>
	<symbol xmlns="http://www.w3.org/2000/svg" viewBox="0 0 21 21" id="icon-telephone">
		<path d="M8.8614 6.33888C9.3795 5.64067 9.56529 4.90482 8.97932 4.25529C7.66437 2.41531 6.78003 1.27747 6.22533 0.729514C5.17077 -0.312219 3.436 -0.171309 2.52267 0.728624C2.03212 1.21199 1.86604 1.37797 1.36235 1.88959C-1.4433 4.69674 0.267729 10.631 4.81627 15.184C9.36378 19.736 15.2975 21.4479 18.109 18.6348C18.5738 18.1867 18.9673 17.793 19.2777 17.465C20.1727 16.5189 20.3086 14.8607 19.2718 13.7834C18.7402 13.2311 17.6552 12.3894 15.7378 11.0179C15.1506 10.4928 14.4543 10.6066 13.8159 11.0254C13.5089 11.2269 13.2854 11.4307 12.8634 11.853L12.0972 12.6197C11.9963 12.7207 10.6259 12.0344 9.2956 10.7028C7.9646 9.37051 7.27878 8.00004 7.37923 7.89959L8.146 7.1324C8.27988 6.99839 8.34388 6.93351 8.42596 6.84725C8.59697 6.66752 8.73856 6.50441 8.8614 6.33888ZM13.5106 14.0339L14.277 13.2671C14.5092 13.0346 14.6597 12.8917 14.7822 12.7932C16.4618 13.9994 17.4346 14.7578 17.8319 15.1707C18.0705 15.4185 18.0334 15.8708 17.8261 16.09C17.5391 16.3934 17.1662 16.7664 16.7086 17.2078C14.8906 19.0266 10.1008 17.6447 6.23001 13.7701C2.35803 9.89429 0.976766 5.10377 2.78108 3.29846C3.28274 2.78895 3.44168 2.63009 3.92524 2.15363C4.10654 1.97498 4.6004 1.93487 4.82096 2.15274C5.24802 2.57461 6.04022 3.58897 7.20559 5.21231C7.14526 5.28721 7.06991 5.37185 6.97821 5.46822C6.91091 5.53895 6.85484 5.59579 6.73226 5.71849L5.96624 6.48493C4.66309 7.78797 5.7729 10.0057 7.88186 12.1167C9.98936 14.2263 12.2079 15.3373 13.5106 14.0339ZM11.6599 0.0704155C15.9832 0.594453 19.4113 4.0225 19.9353 8.34582L17.9599 8.67506C17.5785 5.19269 14.8131 2.42728 11.3307 2.04585L11.6599 0.0704155V0.0704155ZM11.0012 4.02299C13.6427 4.25926 15.7465 6.36306 15.9828 9.00459L14.001 9.33488C13.9169 7.53399 12.4718 6.08887 10.6709 6.00477L11.0012 4.02299V4.02299Z" />
	</symbol>
	<symbol xmlns="http://www.w3.org/2000/svg" viewBox="0 0 31 8" id="icon-arrow">
		<path fill-rule="evenodd" clip-rule="evenodd" d="M27.1716 0.46444L30.3536 3.64642C30.5488 3.84168 30.5488 4.15826 30.3536 4.35353L27.1716 7.53551C26.9763 7.73077 26.6597 7.73077 26.4645 7.53551C26.2692 7.34025 26.2692 7.02366 26.4645 6.8284L28.7929 4.49997H0V3.49997H28.7929L26.4645 1.17155C26.2692 0.976284 26.2692 0.659702 26.4645 0.46444C26.6597 0.269178 26.9763 0.269178 27.1716 0.46444Z" />
	</symbol>
	<symbol xmlns="http://www.w3.org/2000/svg" viewBox="0 0 30 30" id="icon-close">
		<path fill-rule="evenodd" clip-rule="evenodd" d="M16.4142 15L22.7782 21.3639L21.364 22.7782L15 16.4142L8.63604 22.7782L7.22183 21.3639L13.5858 15L7.22183 8.63602L8.63604 7.22181L15 13.5858L21.364 7.22181L22.7782 8.63602L16.4142 15Z" />
	</symbol>
	<symbol xmlns="http://www.w3.org/2000/svg" viewBox="0 0 4590 1757" id="bg-top">
		<path fill-rule="evenodd" clip-rule="evenodd" d="M0 541.407C21.3742 533.121 44.0372 526.468 68.5278 522.957C124.459 514.941 167.977 534.791 219.042 558.085C279.788 585.795 351.216 618.377 466.927 614.717C622.449 609.799 717.617 541.841 810.957 475.188C845.443 450.562 879.681 426.114 916.62 405.09C1002.61 356.145 1064.12 353.137 1127.92 350.018C1165.7 348.17 1204.29 346.283 1249.24 334.795C1358.13 306.965 1545.02 163.093 1600 0H0V541.407Z" fill="#193040"/>
	</symbol>
</svg>
