<svg width="303" height="288" viewBox="0 0 303 288" fill="none" xmlns="http://www.w3.org/2000/svg">
<path d="M133.298 223.563L87.2886 197.009L133.298 170.469L179.321 197.009L133.298 223.563Z" fill="white"/>
<path d="M133.285 224.225C133.17 224.223 133.057 224.197 132.954 224.145L86.9045 197.592C86.8025 197.535 86.7177 197.45 86.6587 197.349C86.5996 197.247 86.5686 197.133 86.5686 197.015C86.5686 196.899 86.5996 196.784 86.6587 196.682C86.7177 196.581 86.8025 196.498 86.9045 196.439L132.914 169.952C133.015 169.894 133.129 169.863 133.246 169.863C133.362 169.863 133.476 169.894 133.577 169.952L179.666 196.506C179.768 196.564 179.853 196.647 179.911 196.748C179.971 196.85 180.001 196.965 180.001 197.082C180.001 197.2 179.971 197.313 179.911 197.415C179.853 197.516 179.768 197.601 179.666 197.658L133.643 224.211C133.528 224.248 133.403 224.252 133.285 224.225ZM88.6007 197.022L133.285 222.807L177.983 197.022L133.285 171.223L88.6007 197.022Z" fill="black"/>
<path d="M179.322 260.075L133.299 286.629V223.562L179.322 197.009V260.075Z" fill="white"/>
<path d="M133.285 287.29C133.169 287.285 133.056 287.253 132.954 287.197C132.853 287.14 132.77 287.057 132.713 286.956C132.655 286.857 132.623 286.743 132.623 286.628V223.562C132.623 223.446 132.655 223.332 132.713 223.233C132.77 223.132 132.853 223.05 132.954 222.992L178.99 196.505C179.091 196.446 179.205 196.416 179.322 196.416C179.438 196.416 179.552 196.446 179.653 196.505C179.754 196.566 179.836 196.652 179.894 196.754C179.952 196.856 179.983 196.971 179.984 197.087V260.074C179.983 260.19 179.952 260.303 179.894 260.403C179.836 260.503 179.752 260.587 179.653 260.644L133.63 287.197C133.525 287.258 133.406 287.29 133.285 287.29ZM133.948 223.946V285.476L178.646 259.69V198.16L133.948 223.946Z" fill="black"/>
<path d="M133.298 286.629L87.2886 260.075V197.009L133.298 223.562V286.629Z" fill="white"/>
<path d="M133.285 287.291C133.169 287.286 133.056 287.254 132.954 287.198L86.9046 260.645C86.8026 260.589 86.7178 260.507 86.6593 260.406C86.601 260.306 86.5712 260.192 86.5733 260.075V197.022C86.5716 196.906 86.601 196.79 86.6586 196.688C86.7161 196.586 86.7995 196.502 86.9005 196.442C87.0015 196.382 87.1165 196.351 87.2335 196.351C87.3507 196.351 87.4658 196.381 87.5672 196.439L133.63 222.993C133.732 223.048 133.817 223.131 133.875 223.231C133.933 223.332 133.964 223.446 133.961 223.562V286.629C133.964 286.745 133.933 286.859 133.875 286.96C133.817 287.06 133.732 287.143 133.63 287.198C133.525 287.259 133.406 287.291 133.285 287.291ZM87.9383 259.691L132.623 285.477V223.946L87.9383 198.161V259.691Z" fill="black"/>
<path d="M262.343 241.534L222.522 218.556L262.343 195.578L302.178 218.556L262.343 241.534Z" fill="white"/>
<path d="M262.343 242.196C262.228 242.195 262.115 242.168 262.012 242.116L222.257 219.125C222.155 219.07 222.07 218.988 222.011 218.887C221.951 218.786 221.919 218.672 221.919 218.556C221.919 218.439 221.951 218.325 222.011 218.225C222.07 218.125 222.155 218.042 222.257 217.986L262.012 195.009C262.113 194.95 262.227 194.92 262.343 194.92C262.46 194.92 262.574 194.95 262.675 195.009L302.509 217.986C302.611 218.042 302.697 218.125 302.757 218.225C302.817 218.325 302.847 218.439 302.847 218.556C302.847 218.672 302.817 218.786 302.757 218.887C302.697 218.988 302.611 219.07 302.509 219.125L262.675 242.116C262.573 242.171 262.459 242.198 262.343 242.196ZM223.914 218.556L262.343 240.779L300.853 218.556L262.343 196.346L223.914 218.556Z" fill="black"/>
<path d="M302.178 255.121L262.343 278.112V241.533L302.178 218.556V255.121Z" fill="white"/>
<path d="M262.343 278.776C262.228 278.77 262.114 278.739 262.012 278.683C261.911 278.626 261.829 278.542 261.771 278.442C261.712 278.343 261.682 278.229 261.681 278.113V241.534C261.682 241.419 261.712 241.305 261.771 241.206C261.829 241.105 261.911 241.023 262.012 240.965L301.846 217.987C301.947 217.929 302.061 217.898 302.178 217.898C302.294 217.898 302.408 217.929 302.509 217.987C302.61 218.045 302.692 218.128 302.75 218.228C302.808 218.328 302.84 218.441 302.84 218.557V255.136C302.838 255.251 302.805 255.363 302.748 255.463C302.689 255.562 302.607 255.646 302.509 255.705L262.675 278.683C262.574 278.741 262.46 278.773 262.343 278.776ZM263.006 241.918V276.961L301.581 254.778V219.709L263.006 241.918Z" fill="black"/>
<path d="M262.343 278.112L222.522 255.121V218.556L262.343 241.533V278.112Z" fill="white"/>
<path d="M262.343 278.776C262.228 278.77 262.114 278.739 262.012 278.683L222.257 255.705C222.158 255.648 222.074 255.565 222.016 255.464C221.958 255.365 221.927 255.251 221.926 255.136V218.557C221.924 218.44 221.954 218.326 222.012 218.226C222.07 218.125 222.155 218.043 222.257 217.987C222.358 217.929 222.472 217.898 222.588 217.898C222.705 217.898 222.819 217.929 222.92 217.987L262.675 240.965C262.777 241.021 262.862 241.103 262.92 241.203C262.978 241.304 263.009 241.418 263.006 241.534V278.113C263.009 278.23 262.978 278.344 262.92 278.444C262.862 278.545 262.777 278.627 262.675 278.683C262.574 278.741 262.46 278.773 262.343 278.776ZM223.185 254.778L261.615 276.988V241.918L223.185 219.709V254.778Z" fill="black"/>
<path d="M34.2029 161.198L0.662964 141.849L34.2029 122.487L67.7428 141.849L34.2029 161.198Z" fill="white"/>
<path d="M34.2026 161.86C34.0853 161.864 33.9695 161.832 33.8713 161.767L0.331397 142.418C0.229359 142.363 0.144549 142.281 0.0862422 142.18C0.0278024 142.079 -0.00201457 141.965 0.000105693 141.849C-0.00148451 141.731 0.0283328 141.616 0.0865075 141.512C0.144815 141.41 0.229359 141.326 0.331397 141.266L33.8978 121.917C33.9985 121.859 34.1128 121.829 34.2291 121.829C34.3455 121.829 34.4597 121.859 34.5604 121.917L68.1004 141.266C68.2007 141.327 68.2838 141.413 68.3417 141.515C68.3997 141.617 68.4306 141.732 68.4316 141.849C68.431 141.964 68.4 142.078 68.3419 142.177C68.2838 142.278 68.2005 142.361 68.1004 142.418L34.5604 161.767C34.4533 161.833 34.3285 161.867 34.2026 161.86ZM1.98785 141.849L34.2026 160.39L66.4174 141.849L34.2026 123.308L1.98785 141.849Z" fill="black"/>
<path d="M67.7426 172.376L34.2026 191.725V161.198L67.7426 141.849V172.376Z" fill="white"/>
<path d="M34.2027 192.387C34.0853 192.391 33.9696 192.359 33.8714 192.294C33.7694 192.238 33.6846 192.156 33.6261 192.056C33.5677 191.955 33.538 191.841 33.5401 191.725V161.264C33.538 161.148 33.5677 161.034 33.6261 160.933C33.6846 160.832 33.7694 160.75 33.8714 160.695L67.4114 141.332C67.5139 141.281 67.6274 141.253 67.7427 141.253C67.8578 141.253 67.9712 141.281 68.0739 141.332C68.1741 141.393 68.2572 141.479 68.3153 141.581C68.3732 141.683 68.4042 141.799 68.4052 141.915V172.442C68.4044 172.557 68.3736 172.671 68.3154 172.77C68.2573 172.871 68.174 172.954 68.0739 173.011L34.534 192.36C34.428 192.399 34.3135 192.408 34.2027 192.387ZM34.8653 161.582V190.572L67.0801 172.031V143.028L34.8653 161.582Z" fill="black"/>
<path d="M34.2029 191.725L0.662964 172.376V141.849L34.2029 161.198V191.725Z" fill="white"/>
<path d="M34.2026 192.387C34.0854 192.391 33.9695 192.359 33.8713 192.294L0.331397 172.945C0.229359 172.89 0.144549 172.808 0.0862422 172.707C0.0278024 172.606 -0.00201457 172.492 0.000105693 172.376V141.849C-0.00148451 141.731 0.0283328 141.616 0.0865076 141.513C0.144815 141.411 0.229359 141.326 0.331397 141.266C0.433965 141.215 0.547532 141.187 0.662688 141.187C0.777845 141.187 0.891412 141.215 0.99398 141.266L34.5339 160.629C34.6341 160.687 34.7173 160.769 34.7755 160.87C34.8335 160.969 34.8645 161.083 34.8652 161.198V191.659C34.8645 191.774 34.8335 191.888 34.7755 191.987C34.7173 192.088 34.6341 192.171 34.5339 192.228C34.442 192.313 34.3265 192.368 34.2026 192.387ZM1.32527 171.992L33.54 190.533V161.582L1.32527 143.041V171.992Z" fill="black"/>
<path d="M41.0935 66.8239L60.5469 55.6065L41.1068 44.3892L21.6533 55.6065L41.0935 66.8239Z" fill="white"/>
<path d="M41.0937 67.4859C40.9778 67.48 40.8646 67.4483 40.7624 67.3932L21.3223 56.1229C21.2202 56.0651 21.1354 55.9813 21.0764 55.8801C21.0175 55.7789 20.9863 55.6638 20.9863 55.5468C20.9863 55.4296 21.0175 55.3146 21.0764 55.2133C21.1354 55.1121 21.2202 55.0284 21.3223 54.9707L40.7624 43.7533C40.8632 43.6951 40.9774 43.6646 41.0937 43.6646C41.2099 43.6646 41.3243 43.6951 41.425 43.7533L60.8784 54.9707C60.9804 55.0284 61.0652 55.1121 61.1243 55.2133C61.1832 55.3146 61.2142 55.4296 61.2142 55.5468C61.2142 55.6638 61.1832 55.7789 61.1243 55.8801C61.0652 55.9813 60.9804 56.0651 60.8784 56.1229L41.425 67.3402C41.3295 67.4175 41.2151 67.4677 41.0937 67.4859ZM22.9787 55.5666L41.0937 66.0159L59.222 55.5666L41.0937 45.1041L22.9787 55.5666Z" fill="black"/>
<path d="M21.6533 78.0412L41.1068 89.2586V66.8238L21.6533 55.6064V78.0412Z" fill="white"/>
<path d="M41.0935 89.9208C40.9766 89.9216 40.8617 89.8895 40.7622 89.8281L21.322 78.6372C21.2218 78.5795 21.1386 78.4965 21.0804 78.3966C21.0224 78.2966 20.9914 78.1832 20.9907 78.0678V55.6065C20.9918 55.4892 21.0227 55.3741 21.0807 55.2721C21.1386 55.1701 21.2217 55.0847 21.322 55.0238C21.4227 54.9656 21.537 54.9351 21.6533 54.9351C21.7697 54.9351 21.8839 54.9656 21.9846 55.0238L41.4248 66.2412C41.5269 66.3001 41.6114 66.3851 41.6697 66.4875C41.7278 66.59 41.7577 66.706 41.7561 66.8239V89.2322C41.7582 89.3483 41.7284 89.4627 41.6701 89.5631C41.6116 89.6635 41.5268 89.746 41.4248 89.8016C41.3298 89.8753 41.2138 89.917 41.0935 89.9208ZM22.3159 77.6572L40.4309 88.1065V67.1947L22.3159 56.7455V77.6572Z" fill="black"/>
<path d="M41.1071 89.2586L60.5472 78.0412V55.6064L41.1071 66.8238V89.2586Z" fill="white"/>
<path d="M41.0939 89.9208C40.9768 89.9216 40.8621 89.8895 40.7626 89.8281C40.6624 89.7704 40.5792 89.6874 40.521 89.5875C40.4629 89.4875 40.4319 89.3741 40.4313 89.2587V66.8239C40.4322 66.7066 40.4632 66.5915 40.5211 66.4895C40.5792 66.3875 40.6623 66.3021 40.7626 66.2412L60.216 55.0238C60.3167 54.9656 60.4309 54.9351 60.5473 54.9351C60.6635 54.9351 60.7779 54.9656 60.8786 55.0238C60.9789 55.0847 61.062 55.1701 61.1199 55.2721C61.1779 55.3741 61.2088 55.4892 61.2099 55.6065V78.0413C61.2092 78.1568 61.1782 78.2701 61.12 78.3701C61.062 78.47 60.9786 78.553 60.8786 78.6108L41.4251 89.8281C41.3268 89.8924 41.2111 89.9248 41.0939 89.9208ZM41.7564 67.1947V88.1065L59.8847 77.6572V56.7455L41.7564 67.1947Z" fill="black"/>
<path d="M0.662964 19.3846C20.7657 33.0256 30.4262 9.71672 40.8552 24.6821V3.2803C22.2234 -6.37434 24.4364 15.0672 0.662964 19.3846Z" fill="#FFE700"/>
<path d="M40.855 56.2819C40.7662 56.2819 40.6784 56.2644 40.5964 56.2304C40.5145 56.1964 40.4399 56.1468 40.3772 56.084C40.3144 56.0212 40.2645 55.9468 40.2306 55.8648C40.1967 55.783 40.1792 55.695 40.1792 55.6064V0.499513C40.2203 0.355607 40.3072 0.229009 40.4267 0.138881C40.5464 0.0487524 40.692 0 40.8418 0C40.9915 0 41.1372 0.0487524 41.2567 0.138881C41.3763 0.229009 41.4633 0.355607 41.5044 0.499513V55.6064C41.5045 55.781 41.4369 55.9489 41.3159 56.0749C41.1948 56.2008 41.0297 56.275 40.855 56.2819Z" fill="black"/>
<path d="M125.758 32.536L110.678 23.8349L125.758 15.1338L140.839 23.8349L125.758 32.536Z" fill="white"/>
<path d="M125.758 33.1982C125.642 33.199 125.527 33.1668 125.427 33.1055L110.347 24.4044C110.245 24.3467 110.16 24.2628 110.101 24.1617C110.042 24.0605 110.011 23.9454 110.011 23.8283C110.011 23.7111 110.042 23.5962 110.101 23.495C110.16 23.3937 110.245 23.31 110.347 23.2522L125.427 14.5511C125.528 14.493 125.642 14.4624 125.758 14.4624C125.875 14.4624 125.989 14.493 126.09 14.5511L141.236 23.2522C141.338 23.31 141.423 23.3937 141.482 23.495C141.541 23.5962 141.572 23.7111 141.572 23.8283C141.572 23.9454 141.541 24.0605 141.482 24.1617C141.423 24.2628 141.338 24.3467 141.236 24.4044L126.156 33.1055C126.038 33.1822 125.898 33.215 125.758 33.1982ZM112.003 23.8349L125.758 31.7811L139.514 23.8349L125.758 15.8887L112.003 23.8349Z" fill="black"/>
<path d="M140.839 38.6811L125.758 47.3822V32.536L140.839 23.835V38.6811Z" fill="white"/>
<path d="M125.759 48.0441C125.642 48.0449 125.527 48.0127 125.427 47.9514C125.327 47.8935 125.244 47.8106 125.186 47.7108C125.128 47.6108 125.096 47.4974 125.096 47.3819V32.5358C125.097 32.4184 125.128 32.3033 125.186 32.2014C125.244 32.0994 125.327 32.0138 125.427 31.953L140.508 23.252C140.608 23.1934 140.724 23.1627 140.842 23.1631C140.958 23.1635 141.073 23.195 141.174 23.2542C141.275 23.3134 141.358 23.3983 141.417 23.5003C141.474 23.6022 141.503 23.7176 141.501 23.8347V38.6808C141.504 38.7968 141.474 38.9114 141.415 39.0118C141.357 39.1122 141.272 39.1947 141.17 39.2503L126.09 47.9514C125.99 48.014 125.875 48.0463 125.759 48.0441ZM126.421 32.9198V46.1635L140.176 38.2173V24.9736L126.421 32.9198Z" fill="black"/>
<path d="M125.758 47.3822L110.678 38.6811V23.835L125.758 32.536V47.3822Z" fill="white"/>
<path d="M125.758 48.044C125.642 48.0448 125.527 48.0126 125.427 47.9513L110.347 39.2502C110.247 39.1923 110.164 39.1094 110.105 39.0095C110.047 38.9095 110.016 38.7962 110.016 38.6807V23.8345C110.017 23.7172 110.048 23.6021 110.105 23.5001C110.164 23.3982 110.247 23.3126 110.347 23.2518C110.448 23.1937 110.562 23.1631 110.678 23.1631C110.795 23.1631 110.909 23.1937 111.009 23.2518L126.09 31.9529C126.192 32.0117 126.277 32.0967 126.335 32.1992C126.393 32.3016 126.422 32.4178 126.421 32.5356V47.3818C126.424 47.4978 126.393 47.6124 126.335 47.7127C126.277 47.8131 126.192 47.8956 126.09 47.9513C125.99 48.0139 125.875 48.0462 125.758 48.044ZM111.341 38.2966L125.096 46.2428V32.9992L111.341 25.053V38.2966Z" fill="black"/>
<path d="M167.024 43.74H166.891C166.377 43.7256 165.871 43.6092 165.403 43.3978C164.934 43.1864 164.513 42.8841 164.162 42.5084C163.454 41.747 163.074 40.739 163.102 39.7007C163.117 39.1859 163.235 38.6795 163.449 38.2109C163.663 37.7425 163.968 37.3215 164.347 36.9725C165.109 36.2658 166.118 35.8855 167.157 35.913C167.671 35.9298 168.178 36.0485 168.646 36.2623C169.115 36.4759 169.537 36.7803 169.886 37.1579C170.393 37.7232 170.727 38.4214 170.848 39.1703C170.97 39.9191 170.875 40.6871 170.574 41.3835C170.273 42.0799 169.779 42.6756 169.15 43.1004C168.52 43.525 167.783 43.7607 167.024 43.7798V43.74ZM167.024 37.2241C166.365 37.2294 165.732 37.4796 165.248 37.9261C164.751 38.3977 164.457 39.0432 164.427 39.7272C164.408 40.3983 164.644 41.0516 165.089 41.5548C165.317 41.8075 165.595 42.0108 165.906 42.152C166.216 42.2933 166.551 42.3694 166.891 42.3759C167.274 42.4717 167.675 42.4808 168.062 42.4025C168.449 42.3243 168.813 42.1605 169.128 41.9234C169.444 41.6862 169.702 41.3815 169.885 41.0317C170.068 40.6818 170.17 40.2956 170.183 39.9012C170.198 39.507 170.124 39.1144 169.967 38.7523C169.81 38.3904 169.574 38.068 169.275 37.8089C168.977 37.5498 168.626 37.3604 168.246 37.2546C167.865 37.1489 167.465 37.1294 167.077 37.1977L167.024 37.2241Z" fill="#202020"/>
<path d="M189.923 54.7192C191.394 54.7192 192.865 54.494 194.574 54.4146C196.284 54.3351 198.205 53.8186 198.298 52.2293C198.364 50.905 196.774 49.6998 197.185 48.4019C197.32 48.0593 197.517 47.745 197.768 47.4749C200.148 44.5305 201.289 40.7761 200.947 37.0063C200.606 33.2366 198.809 29.7476 195.939 27.2783C196.376 27.4505 196.867 27.0267 196.933 26.5631C196.954 26.0785 196.789 25.6046 196.469 25.2388C195.334 23.9061 193.839 22.9271 192.162 22.4179C186.867 20.5827 181.14 20.3888 175.73 21.8616C171.583 22.9211 166.547 26.0201 166.918 30.9865C166.96 31.8838 167.306 32.7401 167.899 33.4159C168.49 34.0919 169.294 34.5472 170.178 34.708C170.907 40.0054 173.57 43.7534 176.936 47.7265C179.192 50.4405 182.082 52.5559 185.351 53.8848C186.805 54.4621 188.359 54.7458 189.923 54.7192Z" fill="#2E485A"/>
<path d="M189.791 55.381C188.19 55.4016 186.601 55.1092 185.113 54.5201C181.736 53.1611 178.752 50.9805 176.433 48.1764C173.451 44.6801 170.483 40.7997 169.595 35.3168C168.671 35.0325 167.856 34.4731 167.26 33.7133C166.662 32.9535 166.313 32.0297 166.256 31.0656C165.885 26.0198 170.668 22.497 175.532 21.2388C181.07 19.7473 186.927 19.9503 192.348 21.8215C194.145 22.3759 195.745 23.4329 196.96 24.8676C197.169 25.1101 197.329 25.3919 197.429 25.6965C197.53 26.0011 197.568 26.3225 197.543 26.6422C197.502 26.9723 197.352 27.2795 197.119 27.5163C199.786 30.1752 201.377 33.7255 201.585 37.4851C201.793 41.2447 200.603 44.9484 198.245 47.8851C198.048 48.0959 197.887 48.3375 197.768 48.6002C197.636 49.0373 197.914 49.5405 198.232 50.1232C198.66 50.7589 198.898 51.5028 198.921 52.2687C198.828 53.8844 197.198 54.9174 194.561 55.0764L192.547 55.2221C191.633 55.3015 190.771 55.3677 189.897 55.381H189.751H189.791ZM183.297 21.6096C180.811 21.6172 178.337 21.933 175.929 22.5499C172.656 23.3843 167.236 26.0992 167.607 30.9994C167.638 31.7381 167.915 32.4452 168.396 33.0071C168.877 33.5692 169.533 33.9535 170.258 34.0984C170.407 34.1136 170.548 34.1776 170.658 34.2804C170.769 34.3833 170.842 34.5194 170.867 34.6679C171.53 39.5548 173.796 43.0246 177.493 47.3421C179.676 49.9788 182.481 52.0314 185.656 53.315C186.988 53.8414 188.411 54.1024 189.844 54.0831H189.976C190.798 54.0831 191.646 54.0036 192.534 53.9242L194.588 53.7785C195.091 53.7785 197.609 53.5534 197.689 52.2157C197.642 51.7024 197.465 51.2098 197.172 50.7854C196.901 50.4263 196.711 50.0137 196.613 49.5754C196.514 49.1369 196.51 48.6826 196.602 48.2426C196.745 47.8375 196.965 47.4642 197.251 47.1434C199.54 44.3289 200.644 40.7352 200.33 37.1219C200.016 33.5087 198.309 30.1591 195.568 27.7812C195.433 27.6874 195.339 27.5461 195.305 27.3856C195.27 27.2252 195.297 27.0575 195.381 26.9165C195.465 26.7753 195.599 26.6714 195.756 26.6254C195.914 26.5795 196.084 26.5949 196.231 26.6687C196.231 26.6687 196.31 26.5628 196.324 26.4701C196.317 26.169 196.199 25.8812 195.992 25.6622C194.952 24.4133 193.57 23.4931 192.017 23.0135C189.209 22.0236 186.247 21.5393 183.271 21.5831L183.297 21.6096Z" fill="#202020"/>
<path d="M168.495 42.4023C168.495 42.4023 164.52 48.5077 165.328 49.7658C166.136 51.024 168.932 50.1764 168.932 50.1764" fill="white"/>
<path d="M167.104 51.1168C166.665 51.1569 166.224 51.087 165.818 50.9136C165.414 50.7402 165.059 50.4687 164.785 50.1235C163.844 48.7197 166.362 44.4552 167.939 42.0316C168.035 41.8841 168.186 41.7809 168.36 41.7449C168.532 41.709 168.712 41.7429 168.859 41.8396C169.008 41.9362 169.11 42.0874 169.147 42.2601C169.183 42.4327 169.148 42.6125 169.052 42.76C167.13 45.6869 165.659 48.7992 165.898 49.3819C166.136 49.9646 168.018 49.7262 168.747 49.5143C168.914 49.4647 169.094 49.4825 169.248 49.5644C169.401 49.6462 169.517 49.7851 169.568 49.9514C169.619 50.1199 169.602 50.3014 169.519 50.4573C169.437 50.613 169.298 50.7309 169.131 50.7857C168.474 50.9875 167.791 51.0989 167.104 51.1168Z" fill="#202020"/>
<path d="M169.317 34.3501C166.759 36.4558 167.528 40.866 167.568 43.7398C167.568 47.7924 167.709 51.8361 167.992 55.871C168.137 58.4271 174.776 58.5198 175.943 57.6854L174.949 67.8168L188.942 62.4002L188.333 54.0302C186.786 53.9081 185.302 53.3627 184.045 52.454C182.787 51.5454 181.805 50.3083 181.204 48.8784C178.553 43.6604 178.911 32.3106 178.911 32.3106C178.911 32.3106 171.808 32.2841 169.317 34.3501Z" fill="#FFF4CB"/>
<path d="M174.949 68.4793C174.805 68.4783 174.666 68.4318 174.551 68.3468C174.46 68.2778 174.388 68.1871 174.342 68.0829C174.295 67.9786 174.275 67.8645 174.286 67.7509L175.187 58.6127C173.075 58.982 170.902 58.7621 168.906 57.977C168.474 57.8127 168.097 57.5307 167.819 57.1631C167.541 56.7956 167.37 56.3571 167.329 55.8978C167.09 51.9247 166.945 47.7927 166.905 43.7533C166.905 43.2766 166.905 42.7468 166.839 42.2038C166.693 39.3432 166.521 35.7939 168.906 33.8338C171.556 31.6486 178.58 31.6354 178.845 31.6486C179.025 31.6539 179.196 31.7301 179.322 31.8605C179.444 31.989 179.51 32.1601 179.507 32.3373C179.507 32.4433 179.216 43.5812 181.733 48.574C184.119 53.3418 188.147 53.408 188.266 53.3682C188.435 53.371 188.595 53.4363 188.718 53.5514C188.84 53.6665 188.916 53.8232 188.929 53.9907L189.539 62.3607C189.548 62.5019 189.512 62.6422 189.435 62.7614C189.358 62.8806 189.247 62.9721 189.115 63.0229L175.187 68.4263C175.113 68.4627 175.031 68.4808 174.949 68.4793ZM175.942 57.0235C176.063 57.0208 176.184 57.053 176.287 57.1162C176.394 57.181 176.482 57.2751 176.539 57.3877C176.594 57.5003 176.618 57.6266 176.605 57.7519L175.691 66.8106L188.147 61.9634L187.617 54.6529C186.063 54.4162 184.594 53.789 183.35 52.83C182.106 51.8709 181.125 50.6116 180.501 49.17C178.195 44.5612 178.102 35.5688 178.129 32.9862C175.863 32.9862 171.397 33.463 169.701 34.8668C167.832 36.4031 167.991 39.5948 168.124 42.1509C168.124 42.7203 168.124 43.2501 168.19 43.7533C168.19 47.7264 168.376 51.832 168.601 55.8448C168.601 56.2024 168.919 56.5202 169.462 56.7983C171.4 57.5648 173.533 57.6855 175.545 57.1427C175.662 57.0638 175.801 57.0223 175.942 57.0235Z" fill="#202020"/>
<path d="M168.071 52.8517C168.463 53.1141 168.909 53.2889 169.375 53.364C169.84 53.4392 170.317 53.4131 170.773 53.2874C171.228 53.1617 171.652 52.9394 172.012 52.6357C172.374 52.3319 172.665 51.9539 172.868 51.5273" fill="white"/>
<path d="M170.098 54.0701C169.276 54.0624 168.467 53.858 167.74 53.4741C167.664 53.4292 167.599 53.3699 167.548 53.2994C167.494 53.2291 167.457 53.1491 167.436 53.0641C167.415 52.9792 167.412 52.8909 167.426 52.8044C167.439 52.7179 167.469 52.635 167.514 52.5603C167.607 52.4113 167.756 52.3044 167.926 52.2623C168.097 52.2203 168.278 52.2464 168.429 52.3352C169.13 52.7397 169.954 52.8763 170.748 52.7192C171.092 52.5982 171.408 52.4075 171.674 52.159C171.94 51.9107 172.154 51.6099 172.298 51.2757C172.337 51.1971 172.39 51.1272 172.456 51.0697C172.521 51.0124 172.598 50.9687 172.68 50.9415C172.763 50.9144 172.851 50.9042 172.938 50.9115C173.024 50.9187 173.109 50.9435 173.186 50.9843C173.342 51.0636 173.46 51.2015 173.515 51.3678C173.57 51.534 173.556 51.7152 173.478 51.8716C173.254 52.374 172.925 52.8229 172.514 53.1883C172.102 53.5537 171.618 53.8272 171.092 53.9906C170.766 54.0627 170.432 54.0894 170.098 54.0701Z" fill="#202020"/>
<path d="M185.086 45.4351C184.938 45.4365 184.792 45.3876 184.674 45.2962C184.556 45.205 184.473 45.0765 184.437 44.9319C184.322 44.4795 184.171 44.0368 183.986 43.6075C181.787 43.2764 165.606 40.7072 163.672 40.4026C163.497 40.3733 163.34 40.2762 163.236 40.1325C163.132 39.9888 163.088 39.8099 163.115 39.6344C163.144 39.4629 163.24 39.3097 163.381 39.2081C163.523 39.1065 163.698 39.0646 163.87 39.0914L184.371 42.3229C184.662 42.3229 185.166 42.4024 185.696 44.6538C185.718 44.7381 185.722 44.8259 185.71 44.9123C185.699 44.9985 185.669 45.0815 185.626 45.1566C185.581 45.2317 185.522 45.2973 185.452 45.3496C185.383 45.4019 185.304 45.4401 185.219 45.4616L185.086 45.4351Z" fill="#202020"/>
<path d="M176.261 44.9586C176.373 43.9457 176.763 42.9834 177.387 42.1774C177.779 41.495 178.271 40.8746 178.845 40.3365C179.134 40.0697 179.48 39.8706 179.856 39.7538C180.231 39.6369 180.628 39.6052 181.018 39.6611C181.356 39.7453 181.671 39.8998 181.946 40.1142C182.22 40.3287 182.445 40.5985 182.608 40.906C182.933 41.5286 183.109 42.2173 183.125 42.9191C183.199 44.4396 182.871 45.9528 182.172 47.3059C181.474 48.6591 180.432 49.8046 179.15 50.6269L179.375 50.3885" fill="#FFF4CB"/>
<path d="M179.149 51.2889C179.053 51.2891 178.959 51.2677 178.871 51.2264C178.784 51.1852 178.707 51.1251 178.646 51.0505C178.54 50.9296 178.481 50.7743 178.481 50.6135C178.481 50.4526 178.54 50.2972 178.646 50.1765L178.858 49.9381C178.97 49.827 179.114 49.7529 179.269 49.7262C180.304 48.937 181.132 47.9094 181.684 46.731C182.236 45.5526 182.493 44.2583 182.436 42.9587C182.424 42.3604 182.278 41.7726 182.012 41.237C181.895 41.0103 181.733 40.8104 181.535 40.6507C181.336 40.491 181.105 40.3748 180.859 40.3099C180.567 40.2731 180.27 40.3016 179.991 40.3932C179.711 40.4847 179.455 40.6373 179.242 40.8397C178.723 41.3396 178.277 41.9103 177.917 42.5349C177.362 43.2392 177.009 44.0817 176.897 44.9717C176.897 45.0581 176.879 45.1435 176.846 45.2231C176.813 45.3027 176.764 45.3748 176.702 45.4354C176.641 45.4958 176.567 45.5433 176.487 45.5751C176.406 45.6069 176.32 45.6224 176.234 45.6206C176.146 45.6206 176.059 45.603 175.977 45.569C175.896 45.5348 175.823 45.4849 175.761 45.422C175.699 45.3591 175.651 45.2845 175.618 45.2027C175.586 45.1208 175.57 45.0333 175.571 44.9452C175.679 43.808 176.107 42.7244 176.804 41.8197C177.228 41.0789 177.765 40.4086 178.394 39.8332C178.758 39.4994 179.192 39.2522 179.665 39.1099C180.138 38.9678 180.636 38.9343 181.124 39.012C181.557 39.1122 181.965 39.3049 182.316 39.5769C182.669 39.8489 182.958 40.1938 183.165 40.588C183.534 41.297 183.738 42.0803 183.761 42.8792C183.836 44.5164 183.48 46.1447 182.729 47.6016C181.979 49.0587 180.859 50.2934 179.481 51.183C179.384 51.252 179.269 51.2889 179.149 51.2889Z" fill="#202020"/>
<path d="M170.255 39.2797C170.294 38.4835 170.072 37.8251 169.758 37.8094C169.444 37.7937 169.156 38.4264 169.116 39.2226C169.077 40.0189 169.299 40.6771 169.613 40.6929C169.927 40.7087 170.215 40.0759 170.255 39.2797Z" fill="#202020"/>
<path d="M191.699 64.8904L190.493 60.4272L172.656 61.5397L170.748 68.1615C177.902 69.2539 185.219 68.1113 191.699 64.8904Z" fill="white"/>
<path d="M175.783 69.2606C174.046 69.2763 172.312 69.1299 170.602 68.8236C170.513 68.8019 170.431 68.7625 170.358 68.7079C170.285 68.6533 170.224 68.5846 170.178 68.5058C170.132 68.4288 170.102 68.3433 170.091 68.2544C170.08 68.1655 170.087 68.0752 170.112 67.9893L172.02 61.3674C172.058 61.2362 172.137 61.1199 172.243 61.0345C172.35 60.9492 172.48 60.8989 172.616 60.8906L190.453 59.7782C190.607 59.7668 190.76 59.8096 190.886 59.899C191.012 59.9885 191.102 60.1191 191.142 60.2682L192.348 64.7313C192.385 64.8808 192.371 65.0387 192.304 65.1784C192.239 65.3181 192.129 65.4314 191.99 65.4994C186.943 67.963 181.401 69.2491 175.783 69.2606ZM171.583 67.6449C178.193 68.4395 184.891 67.3611 190.917 64.5327L190.002 61.129L173.16 62.1753L171.583 67.6449Z" fill="#202020"/>
<path d="M126.964 91.2844C126.964 91.2844 121.465 84.2388 121.014 82.782C120.564 81.3252 120.524 78.3454 119.371 76.2794C118.218 74.2133 115.276 72.4387 114.004 75.3523C114.004 75.3523 113.156 70.6111 110.029 73.326C108.653 74.429 107.649 75.9267 107.152 77.6174C106.654 79.308 106.687 81.1105 107.246 82.782C108.173 86.3843 121.955 104.409 121.955 104.409" fill="#FFF4CB"/>
<path d="M121.968 105.124C121.866 105.126 121.766 105.104 121.674 105.06C121.582 105.017 121.502 104.952 121.438 104.873C120.869 104.131 107.577 86.6891 106.623 83.0074C106.029 81.216 105.996 79.2863 106.529 77.4759C107.062 75.6655 108.135 74.0607 109.605 72.876C109.959 72.4783 110.416 72.1854 110.925 72.0289C111.434 71.8725 111.977 71.8586 112.494 71.9886C112.898 72.1703 113.261 72.4335 113.56 72.7617C113.859 73.0897 114.087 73.4758 114.229 73.8957C114.669 73.4815 115.243 73.2374 115.846 73.2071C116.715 73.2767 117.55 73.571 118.27 74.0609C118.991 74.5508 119.571 75.2196 119.954 76.0015C120.663 77.5274 121.111 79.1614 121.279 80.8354C121.36 81.4417 121.475 82.0431 121.624 82.6366C123.361 85.539 125.311 88.31 127.455 90.9271C127.563 91.0657 127.612 91.2421 127.592 91.4172C127.571 91.5923 127.481 91.7519 127.342 91.8608C127.203 91.9696 127.027 92.0189 126.852 91.9978C126.677 91.9766 126.516 91.8868 126.408 91.7482C125.48 90.5563 120.816 84.5304 120.365 83.0206C120.195 82.3709 120.063 81.712 119.967 81.0473C119.816 79.5257 119.414 78.0399 118.775 76.6504C118.507 76.085 118.103 75.5952 117.599 75.2253C117.094 74.8552 116.506 74.6167 115.886 74.5314C115.329 74.5314 114.905 74.9287 114.561 75.6704C114.504 75.8003 114.407 75.9086 114.284 75.9794C114.161 76.0501 114.018 76.0793 113.877 76.0631C113.736 76.0468 113.604 75.9856 113.501 75.8888C113.397 75.7918 113.327 75.6642 113.302 75.5247C113.209 75.0082 112.772 73.5117 111.977 73.2468C111.486 73.0614 110.85 73.4852 110.413 73.8692C109.126 74.8915 108.188 76.2873 107.727 77.8645C107.267 79.4416 107.307 81.1228 107.842 82.6763C108.571 85.5237 118.616 99.0852 122.419 104.065C122.521 104.207 122.565 104.382 122.54 104.555C122.514 104.728 122.424 104.884 122.286 104.992C122.194 105.064 122.085 105.11 121.968 105.124Z" fill="#202020"/>
<path d="M245.832 108.475C245.832 108.475 247.435 111.945 248.297 114.54C248.906 116.982 249.252 119.482 249.33 121.997C249.993 121.242 251.026 121.07 251.729 120.407C251.78 121.49 252.019 122.557 252.431 123.559C252.644 124.057 252.977 124.494 253.4 124.831C253.824 125.169 254.323 125.396 254.856 125.493C255.431 125.526 256.008 125.445 256.552 125.255C258.54 124.645 261.853 123.533 262.29 121.162C262.392 120.252 262.227 119.331 261.813 118.514C260.382 114.977 253.862 105.72 252.736 104.224" fill="#FFF4CB"/>
<path d="M255.201 126.181H254.843C254.2 126.067 253.595 125.795 253.082 125.391C252.569 124.986 252.163 124.462 251.901 123.864C251.568 123.143 251.354 122.374 251.265 121.586L250.973 121.732C250.574 121.907 250.21 122.154 249.9 122.46C249.813 122.558 249.699 122.629 249.571 122.662C249.443 122.695 249.309 122.689 249.184 122.645C249.058 122.603 248.947 122.523 248.868 122.417C248.787 122.311 248.74 122.183 248.734 122.049C248.656 119.598 248.322 117.161 247.74 114.779C246.892 112.249 245.315 108.819 245.302 108.779C245.265 108.701 245.242 108.616 245.238 108.53C245.234 108.443 245.246 108.357 245.276 108.275C245.306 108.194 245.352 108.119 245.41 108.055C245.47 107.992 245.54 107.941 245.62 107.905C245.699 107.867 245.785 107.845 245.873 107.841C245.96 107.836 246.048 107.849 246.13 107.879C246.213 107.908 246.289 107.954 246.354 108.013C246.419 108.072 246.47 108.143 246.508 108.223C246.574 108.369 248.138 111.759 248.986 114.355C249.557 116.443 249.895 118.589 249.993 120.752L250.377 120.553C250.72 120.398 251.041 120.198 251.331 119.957C251.423 119.873 251.535 119.815 251.656 119.789C251.778 119.764 251.904 119.771 252.02 119.811C252.136 119.855 252.238 119.931 252.312 120.029C252.387 120.127 252.432 120.244 252.444 120.368C252.501 121.372 252.72 122.36 253.094 123.294C253.258 123.691 253.516 124.041 253.846 124.316C254.176 124.591 254.569 124.781 254.989 124.87C255.476 124.892 255.963 124.815 256.42 124.645C258.686 123.957 261.336 122.924 261.72 121.056C261.799 120.258 261.648 119.454 261.283 118.739C259.958 115.56 254.207 107.243 252.285 104.594C252.234 104.524 252.198 104.444 252.177 104.359C252.157 104.275 252.153 104.187 252.166 104.101C252.194 103.927 252.289 103.771 252.431 103.667C252.574 103.564 252.752 103.521 252.925 103.548C253.099 103.575 253.255 103.671 253.359 103.813C253.438 103.919 260.912 114.315 262.516 118.249C262.979 119.197 263.154 120.261 263.019 121.308C262.463 124.195 258.514 125.4 256.817 125.917C256.294 126.081 255.749 126.17 255.201 126.181Z" fill="#202020"/>
<path d="M158.888 193.168C158.888 193.168 161.101 203.193 157.019 204.981C152.938 206.769 130.145 191.208 131.351 187.354C132.556 183.5 139.792 181.593 146.762 186.202C150.636 188.806 154.688 191.132 158.888 193.168Z" fill="url(#paint0_linear)"/>
<path d="M198.815 143.952C198.815 143.952 173.637 152.746 154.236 150.666L159.126 192.967C159.126 192.967 152.063 196.132 143.396 186.504C143.396 186.504 131.867 134.946 136.638 132.072C141.409 129.199 186.994 128.801 186.994 128.801L198.815 143.952Z" fill="black"/>
<path d="M156.092 194.281C153.07 194.281 148.286 193.062 142.84 187.103C142.762 187.016 142.706 186.912 142.681 186.798C140.746 178.11 131.311 134.631 136.227 131.665C141.144 128.698 185.007 128.301 186.875 128.288C186.979 128.279 187.081 128.298 187.175 128.342C187.267 128.386 187.347 128.454 187.405 128.539L199.332 143.703C199.397 143.784 199.442 143.879 199.463 143.981C199.483 144.083 199.479 144.189 199.451 144.288C199.422 144.389 199.37 144.48 199.299 144.556C199.227 144.631 199.138 144.688 199.04 144.723C198.788 144.816 174.233 153.291 154.992 151.543L159.789 193.036C159.801 193.173 159.77 193.312 159.701 193.433C159.632 193.554 159.529 193.65 159.404 193.711C158.347 194.114 157.222 194.307 156.092 194.281ZM144.006 186.334C151.043 194.055 156.794 193.128 158.411 192.652L153.587 150.881C153.572 150.783 153.582 150.681 153.614 150.587C153.645 150.493 153.7 150.407 153.773 150.338C153.841 150.265 153.926 150.208 154.02 150.174C154.114 150.139 154.216 150.128 154.316 150.139C171.344 151.967 193.117 145.266 197.728 143.756L186.637 129.599C173.769 129.718 140.72 130.526 136.969 132.777C133.975 134.591 139.275 165.131 144.006 186.348V186.334Z" fill="#202020"/>
<path d="M212.451 135.502C212.451 135.502 211.417 175.233 212.782 175.776C214.147 176.319 252.67 204.303 252.67 204.303L254.088 217.255C254.088 217.255 200.219 194.145 197.37 186.98C194.521 179.815 183.721 137.661 183.721 137.661L212.451 135.502Z" fill="black"/>
<path d="M254.088 218.026C254 218.046 253.91 218.046 253.823 218.026C251.61 217.086 199.676 194.731 196.761 187.394C193.925 180.269 183.509 139.717 183.085 138.008C183.059 137.914 183.055 137.816 183.072 137.72C183.089 137.624 183.129 137.533 183.186 137.455C183.243 137.375 183.317 137.31 183.403 137.264C183.489 137.218 183.585 137.192 183.682 137.187L212.411 135.042C212.503 135.036 212.594 135.05 212.68 135.081C212.766 135.113 212.844 135.162 212.911 135.226C212.977 135.289 213.029 135.366 213.063 135.451C213.099 135.534 213.116 135.626 213.113 135.717C212.742 150.007 212.451 173.183 213.246 175.448C216.426 177.355 249.224 201.128 253.001 203.909C253.076 203.962 253.14 204.031 253.186 204.111C253.232 204.191 253.259 204.281 253.266 204.372L254.684 217.325C254.696 217.441 254.679 217.558 254.632 217.664C254.586 217.771 254.512 217.864 254.419 217.934C254.318 217.993 254.204 218.025 254.088 218.026ZM184.556 138.379C186.04 144.127 195.383 180.335 197.98 186.851C200.193 192.4 237.735 209.577 253.306 216.318L252.047 204.783C236.741 193.685 213.75 177.117 212.517 176.534C212.053 176.335 210.768 175.806 211.775 136.366L184.556 138.379Z" fill="black"/>
<path fill-rule="evenodd" clip-rule="evenodd" d="M156.449 77.6701C156.449 77.6701 157.947 68.9425 183.31 64.3072C187.252 63.5396 191.277 63.4123 195.233 63.9168L195.224 63.7907C195.224 63.7907 195.776 63.9152 196.738 64.1399C198.409 64.4221 200.063 64.8181 201.69 65.327L201.691 65.3308C209.71 67.3113 222.832 70.8063 227.028 73.4189C233.216 77.2728 257.851 103.601 257.851 103.601L241.618 112.766C241.618 112.766 226.325 94.3438 221.82 91.6951C219.278 90.2008 211.785 90.2366 205.736 90.5516C208.603 108.805 212.277 131.499 214.412 139.306C214.412 139.306 183.827 150.51 168.482 131.956C168.482 131.956 166.21 120.258 163.602 107.696C156.21 114.848 146.189 123.284 138.427 125.149C124.42 128.513 114.905 98.7408 114.905 98.7408L126.527 85.6163C126.527 85.6163 136.969 101.403 139.421 102.833C141.872 104.263 156.449 77.6701 156.449 77.6701C156.449 77.67 156.449 77.6701 156.449 77.6701Z" fill="#244156"/>
<path d="M153.441 117.242C153.327 117.241 153.216 117.211 153.116 117.155C153.017 117.1 152.932 117.021 152.871 116.925C152.781 116.774 152.753 116.595 152.793 116.425C152.831 116.254 152.936 116.106 153.083 116.011C164.705 108.74 173.173 96.6618 173.252 96.5426C173.356 96.4085 173.508 96.3193 173.675 96.2938C173.843 96.2681 174.014 96.3077 174.153 96.4045C174.294 96.5014 174.391 96.6481 174.425 96.8141C174.46 96.9803 174.428 97.1533 174.339 97.2975C174.259 97.4167 165.646 109.707 153.786 117.163C153.68 117.22 153.56 117.248 153.441 117.242Z" fill="#202020"/>
<path d="M211.815 127.758C211.662 127.758 211.514 127.705 211.396 127.609C211.277 127.512 211.196 127.378 211.165 127.228C209.615 119.388 203.744 80.1471 203.691 79.7498C203.678 79.6644 203.682 79.5774 203.703 79.4935C203.725 79.4098 203.762 79.3312 203.813 79.262C203.866 79.193 203.931 79.135 204.006 79.0913C204.08 79.0477 204.162 79.0194 204.248 79.0081C204.334 78.9949 204.422 78.9989 204.506 79.0198C204.591 79.0406 204.671 79.0779 204.741 79.1296C204.811 79.1812 204.871 79.2463 204.916 79.3208C204.961 79.3955 204.99 79.4782 205.003 79.5644C205.003 79.9617 210.914 119.15 212.464 126.963C212.484 127.049 212.485 127.137 212.469 127.223C212.453 127.309 212.42 127.391 212.373 127.464C212.324 127.537 212.261 127.6 212.188 127.648C212.116 127.696 212.033 127.729 211.947 127.745L211.815 127.758Z" fill="#202020"/>
<path d="M245.832 211.935C242.943 202.518 246.057 198.148 249.449 197.963C252.842 197.777 255.002 197.247 257.679 206.478C260.355 215.709 260.594 230.317 255.307 231.111C250.019 231.906 248.721 221.364 245.832 211.935Z" fill="url(#paint1_linear)"/>
<defs>
<linearGradient id="paint0_linear" x1="131.304" y1="183.504" x2="160.883" y2="185.623" gradientUnits="userSpaceOnUse">
<stop stop-color="#00DADA"/>
<stop offset="1" stop-color="#005CFF"/>
</linearGradient>
<linearGradient id="paint1_linear" x1="244.691" y1="197.888" x2="260.34" y2="198.271" gradientUnits="userSpaceOnUse">
<stop stop-color="#00DADA"/>
<stop offset="1" stop-color="#005CFF"/>
</linearGradient>
</defs>
</svg>
