<svg width="340" height="239" viewBox="0 0 340 239" fill="none" xmlns="http://www.w3.org/2000/svg">
<path d="M334.664 224.507V238.464H41.0444L2.98086 190.019V173.287L334.664 224.507Z" fill="white"/>
<path d="M41.0447 239H334.664C334.807 239 334.943 238.943 335.043 238.843C335.144 238.742 335.201 238.606 335.201 238.464V224.507C335.202 224.378 335.157 224.253 335.074 224.155C334.991 224.056 334.875 223.991 334.748 223.971L3.06442 172.763C2.98606 172.751 2.90593 172.757 2.8297 172.78C2.75347 172.802 2.68327 172.841 2.6237 172.893C2.56413 172.943 2.51592 173.005 2.48295 173.075C2.44997 173.145 2.43296 173.221 2.43296 173.299V190.031C2.43083 190.152 2.47302 190.271 2.55209 190.364L40.6157 238.809C40.6689 238.871 40.7348 238.92 40.8089 238.953C40.883 238.986 40.9635 239.002 41.0447 239ZM334.116 237.916H41.295L3.50516 189.828V173.929L334.116 224.971V237.916Z" fill="#202020"/>
<path d="M272.273 95.2237C274.52 95.2964 276.747 94.7994 278.749 93.779C280.751 92.7586 282.462 91.248 283.722 89.3883C285.354 86.5972 286.377 83.4924 286.725 80.278C287.856 73.0256 288.905 65.904 287.82 58.6159C287.603 56.5364 286.997 54.5165 286.033 52.6614C285.548 51.731 284.855 50.925 284.008 50.3055C283.161 49.686 282.183 49.2695 281.149 49.0887C280.329 46.0204 278.386 43.3721 275.705 41.6694C271.681 38.9538 266.765 37.8958 261.98 38.7159C262.96 38.7234 263.922 38.4551 264.756 37.9419C265.164 37.6753 265.455 37.2635 265.57 36.79C265.685 36.3168 265.615 35.8174 265.376 35.3935C264.792 34.6074 263.636 34.6431 262.671 34.786C257.69 35.5108 252.903 37.2192 248.589 39.8115C248.851 38.0609 246.933 36.5961 245.158 36.6439C243.382 36.8665 241.718 37.6317 240.393 38.835C237.89 40.5409 235.755 42.732 234.114 45.2779C232.304 48.4337 232.566 53.3639 233.852 56.6863C234.206 57.7695 234.905 58.7066 235.842 59.3541C236.533 59.8663 237.462 60.0566 238.141 60.545C239.523 61.5215 239.154 60.9381 239.75 62.6766C241.036 66.4279 241.727 69.9889 243.729 73.5137C245.713 76.879 247.985 80.0668 250.519 83.0408C254.25 87.7172 259.079 91.399 264.577 93.7588C267.023 94.7431 269.637 95.2407 272.273 95.2237Z" fill="black"/>
<path d="M272.131 95.8193H272.285C274.626 95.8902 276.946 95.367 279.029 94.2987C281.113 93.2301 282.891 91.6515 284.199 89.7099C285.879 86.8465 286.934 83.6608 287.296 80.3614C288.345 73.7162 289.536 66.1778 288.392 58.5323C288.169 56.371 287.543 54.2707 286.546 52.3397C286.041 51.3948 285.341 50.5676 284.493 49.9126C283.645 49.2579 282.668 48.7901 281.626 48.5409C280.7 45.491 278.714 42.8721 276.026 41.1574C272.959 39.0988 269.377 37.9395 265.685 37.8108C265.947 37.4582 266.126 37.0513 266.21 36.62C266.254 36.3485 266.244 36.0709 266.181 35.803C266.117 35.5354 266.002 35.2827 265.84 35.06C264.959 33.8691 263.172 34.1311 262.576 34.2144C257.841 34.9236 253.278 36.498 249.114 38.8589C248.983 38.3563 248.729 37.8938 248.375 37.5131C247.967 37.0563 247.466 36.693 246.904 36.4484C246.343 36.2039 245.735 36.0833 245.123 36.0961C243.222 36.3197 241.439 37.1314 240.024 38.4183C237.444 40.1554 235.25 42.4053 233.578 45.0278C231.648 48.4098 231.97 53.5784 233.293 56.9367C233.685 58.1159 234.456 59.1327 235.485 59.8306C235.897 60.1152 236.34 60.3509 236.807 60.5331C237.157 60.6635 237.493 60.8312 237.808 61.0332L238.463 61.4738C238.797 61.6882 238.797 61.6882 238.975 62.2241L239.19 62.8674C239.559 63.9629 239.893 65.0347 240.214 66.1065C240.912 68.7811 241.915 71.3663 243.205 73.8115C245.215 77.2038 247.511 80.4189 250.067 83.422C253.861 88.1582 258.774 91.8783 264.363 94.2474C266.828 95.2628 269.465 95.7966 272.131 95.8193ZM265.161 39.0017C268.8 39.0205 272.352 40.1143 275.371 42.1459C277.942 43.7596 279.8 46.2942 280.565 49.2317C280.591 49.354 280.654 49.4656 280.746 49.5507C280.838 49.6361 280.953 49.691 281.077 49.7081C282.015 49.8686 282.903 50.2418 283.673 50.7993C284.444 51.3569 285.076 52.0835 285.521 52.9235C286.446 54.7463 287.023 56.7247 287.225 58.7588C288.333 66.2136 287.165 73.6566 286.129 80.1948C285.789 83.3259 284.799 86.352 283.222 89.0787C282.012 90.8515 280.375 92.2905 278.461 93.2627C276.547 94.235 274.419 94.7088 272.273 94.6401C269.711 94.6333 267.173 94.1279 264.804 93.1515C259.4 90.8615 254.651 87.2643 250.984 82.6837C248.475 79.7309 246.219 76.5719 244.241 73.2398C243.001 70.8662 242.03 68.3618 241.346 65.773C241.024 64.6892 240.691 63.6057 240.309 62.486L240.107 61.8668C239.833 61.0332 239.762 60.9024 239.106 60.4856L238.487 60.0688C238.113 59.8211 237.713 59.6134 237.295 59.4493C236.915 59.3015 236.552 59.114 236.211 58.8896C235.365 58.3193 234.735 57.48 234.424 56.5078C233.233 53.3998 232.899 48.66 234.639 45.6112C236.232 43.1287 238.316 40.9972 240.762 39.3473C241.992 38.2255 243.533 37.5032 245.182 37.2749C245.629 37.2593 246.074 37.3423 246.486 37.517C246.897 37.6918 247.266 37.9547 247.565 38.2872C247.751 38.4821 247.892 38.715 247.979 38.9702C248.065 39.2254 248.095 39.4962 248.065 39.7641C248.044 39.8765 248.057 39.9924 248.101 40.098C248.146 40.2033 248.22 40.2933 248.315 40.3567C248.41 40.4202 248.522 40.4542 248.637 40.4546C248.751 40.4553 248.863 40.4219 248.959 40.3596C253.208 37.8034 257.921 36.1117 262.826 35.3816C263.946 35.2146 264.649 35.3816 264.959 35.7626C265.091 35.9579 265.143 36.1971 265.102 36.4296C265.029 36.8479 264.798 37.2228 264.458 37.4773C264.154 37.6942 263.81 37.8481 263.445 37.9299C262.945 37.9299 262.433 38.049 261.932 38.1444C261.775 38.1649 261.631 38.2472 261.534 38.3733C261.437 38.4999 261.394 38.6594 261.414 38.8171C261.435 38.9752 261.517 39.1183 261.643 39.2155C261.77 39.3126 261.929 39.3558 262.087 39.3353C262.608 39.2998 263.126 39.2282 263.636 39.1208C264.077 39.0255 264.625 39.0017 265.161 39.0017Z" fill="#202020"/>
<path d="M236.414 73.7514C236.414 73.7514 229.468 83.9573 230.85 86.1129C232.232 88.2686 236.926 86.9107 236.926 86.9107" fill="#FFF4CB"/>
<path d="M233.972 87.9232C235.026 87.9108 236.076 87.7626 237.093 87.4826C237.243 87.4359 237.369 87.3327 237.444 87.1952C237.52 87.0573 237.539 86.8961 237.498 86.7444C237.478 86.6685 237.442 86.5973 237.393 86.5356C237.345 86.4736 237.284 86.4222 237.215 86.3846C237.146 86.3467 237.07 86.3233 236.992 86.3155C236.913 86.3077 236.834 86.3159 236.759 86.3396C235.568 86.6728 232.28 87.2445 231.351 85.7917C230.624 84.6008 233.674 78.837 236.902 74.0851C236.946 74.0203 236.977 73.9473 236.992 73.8707C237.008 73.7938 237.008 73.7147 236.993 73.6382C236.978 73.5613 236.949 73.4879 236.905 73.4227C236.862 73.3575 236.806 73.3015 236.741 73.2575C236.677 73.2136 236.604 73.1831 236.527 73.1675C236.45 73.1519 236.371 73.1516 236.294 73.1664C236.217 73.1813 236.144 73.2114 236.079 73.2547C236.014 73.2976 235.957 73.3532 235.914 73.4184C234.234 75.8835 228.861 84.1365 230.35 86.4346C230.782 86.9645 231.34 87.3781 231.972 87.6379C232.604 87.8977 233.291 87.9959 233.972 87.9232Z" fill="#202020"/>
<path d="M238.034 60.164C233.662 63.6413 234.818 71.1319 234.794 75.9908C234.794 82.8423 234.913 89.6821 235.151 96.5099C235.33 100.845 246.552 101.083 248.554 99.8086L246.445 111.241L272.273 108.455V95.2237C272.273 95.2237 261.861 93.9612 257.584 85.0653C253.307 76.1694 253.474 59.5802 253.474 59.5802C253.474 59.5802 242.311 56.77 238.034 60.164Z" fill="#FFF4CB"/>
<path d="M246.445 111.836H246.505L272.345 109.038C272.489 109.023 272.623 108.955 272.72 108.847C272.817 108.739 272.87 108.599 272.869 108.454V95.2234C272.873 95.0763 272.821 94.9335 272.724 94.8229C272.627 94.7126 272.492 94.6428 272.345 94.6279C272.25 94.6279 262.207 93.2942 258.121 84.8148C254.034 76.3357 254.07 59.8061 254.07 59.592C254.073 59.4573 254.03 59.3258 253.948 59.2195C253.865 59.1132 253.748 59.0384 253.617 59.0082C253.153 58.8892 242.121 56.1622 237.665 59.699C233.793 62.7716 233.984 68.6428 234.091 73.3585C234.091 74.2874 234.091 75.1806 234.091 75.9905C234.091 82.8144 234.174 89.7215 234.449 96.5334C234.517 97.2202 234.777 97.8738 235.198 98.4211C235.619 98.968 236.185 99.3869 236.831 99.6297C239.774 101.178 245.17 101.356 247.708 100.725L245.85 111.158C245.836 111.249 245.843 111.342 245.87 111.431C245.897 111.519 245.943 111.601 246.005 111.669C246.063 111.725 246.132 111.769 246.208 111.797C246.284 111.826 246.365 111.839 246.445 111.836ZM271.678 107.918L247.172 110.562L249.138 99.9153C249.161 99.8026 249.149 99.6853 249.105 99.579C249.06 99.4727 248.984 99.3826 248.888 99.3199C248.789 99.2589 248.676 99.2263 248.56 99.2263C248.444 99.2263 248.331 99.2589 248.232 99.3199C246.946 100.142 240.643 100.261 237.51 98.5816C236.414 98.0099 235.842 97.3074 235.807 96.4976C235.532 89.7095 235.413 82.8144 235.449 76.0142C235.449 75.1806 235.449 74.2754 235.449 73.3227C235.306 68.8809 235.128 63.3433 238.535 60.6397C242.109 57.8411 250.901 59.6037 252.998 60.0684C252.998 62.9024 253.248 77.1693 257.167 85.339C261.087 93.5083 269.581 95.3542 271.797 95.7472L271.678 107.918Z" fill="#202020"/>
<path d="M249.471 78.3007C249.682 76.5909 250.367 74.974 251.449 73.6325C252.128 72.4887 252.976 71.4531 253.963 70.5599C254.463 70.1197 255.055 69.7954 255.695 69.61C256.336 69.4247 257.009 69.3832 257.668 69.4881C258.237 69.6412 258.768 69.9124 259.225 70.2838C259.683 70.6549 260.057 71.1185 260.324 71.6438C260.838 72.7067 261.115 73.8692 261.134 75.0499C261.212 77.623 260.61 80.1714 259.391 82.4394C258.172 84.7074 256.378 86.615 254.189 87.971L254.57 87.5659" fill="#FFF4CB"/>
<path d="M254.189 88.531C254.305 88.5692 254.43 88.5692 254.546 88.531C256.821 87.1132 258.685 85.1252 259.954 82.7647C261.222 80.4038 261.851 77.7527 261.778 75.0739C261.76 73.8047 261.459 72.5557 260.896 71.4179C260.592 70.814 260.162 70.282 259.637 69.857C259.111 69.4321 258.501 69.1237 257.846 68.9525C257.101 68.8203 256.335 68.8586 255.607 69.0649C254.878 69.2711 254.206 69.6401 253.641 70.1434C252.6 71.0695 251.708 72.1498 250.996 73.3471C249.852 74.7794 249.134 76.5044 248.923 78.3251C248.92 78.481 248.978 78.632 249.085 78.7455C249.192 78.8589 249.339 78.9262 249.495 78.9322C249.651 78.9329 249.802 78.8741 249.917 78.7681C250.032 78.6622 250.102 78.5165 250.114 78.3605C250.335 76.7663 250.981 75.2607 251.985 74.0021C252.629 72.909 253.432 71.9177 254.367 71.0607C254.795 70.6743 255.304 70.3883 255.856 70.2235C256.409 70.0583 256.991 70.019 257.56 70.108C258.047 70.2402 258.501 70.4741 258.891 70.7945C259.281 71.1145 259.599 71.5136 259.824 71.9655C260.301 72.9455 260.553 74.0198 260.562 75.1097C260.617 77.4298 260.103 79.7283 259.065 81.8042C258.026 83.8798 256.495 85.67 254.606 87.0186C254.516 87.0087 254.425 87.0193 254.34 87.0505C254.256 87.0813 254.179 87.1317 254.117 87.1972L253.736 87.602C253.642 87.7087 253.589 87.8466 253.589 87.989C253.589 88.1315 253.642 88.2694 253.736 88.3761C253.796 88.4331 253.867 88.4764 253.945 88.503C254.024 88.5299 254.107 88.5395 254.189 88.531Z" fill="#202020"/>
<path d="M238.332 70.9018C237.8 70.866 237.443 69.7467 237.533 68.4012C237.624 67.0562 238.128 65.9943 238.66 66.0301C239.192 66.0659 239.549 67.1855 239.459 68.531C239.368 69.876 238.864 70.9375 238.332 70.9018Z" fill="#202020"/>
<path d="M277.909 113.54L276.086 104.179L242.895 106.204L240.81 112.956C240.81 112.956 259.038 122.388 277.909 113.54Z" fill="white"/>
<path d="M260.682 117.91C266.715 117.944 272.682 116.651 278.159 114.123C278.28 114.067 278.378 113.972 278.439 113.853C278.499 113.735 278.518 113.599 278.493 113.468L276.67 104.096C276.646 103.953 276.569 103.824 276.454 103.735C276.339 103.647 276.195 103.606 276.05 103.619L242.859 105.644C242.738 105.649 242.62 105.692 242.524 105.767C242.428 105.841 242.358 105.944 242.323 106.061L240.25 112.825C240.207 112.958 240.213 113.103 240.268 113.232C240.323 113.361 240.422 113.466 240.548 113.528C246.871 116.403 253.735 117.897 260.682 117.91ZM277.182 113.23C260.503 120.744 244.348 114.004 241.442 112.682L243.24 106.799L275.502 104.834L277.182 113.23Z" fill="#202020"/>
<path d="M234.972 91.1031C234.972 91.1031 236.831 94.6758 242.645 91.1031H234.972Z" fill="white"/>
<path d="M238.07 93.2946C239.821 93.19 241.51 92.6095 242.955 91.6153C243.067 91.5217 243.143 91.3909 243.167 91.2463C243.19 91.1017 243.161 90.9532 243.084 90.8284C243.007 90.704 242.888 90.6112 242.748 90.5676C242.608 90.524 242.457 90.5321 242.323 90.591C240.274 91.8655 238.475 92.3419 237.129 91.9846C236.451 91.8131 235.866 91.3863 235.497 90.7937C235.424 90.653 235.298 90.547 235.148 90.4992C234.997 90.451 234.833 90.4648 234.692 90.5375C234.552 90.6101 234.446 90.7356 234.398 90.8866C234.35 91.0372 234.364 91.2009 234.436 91.3413C234.974 92.209 235.828 92.8328 236.819 93.0802C237.224 93.2081 237.645 93.28 238.07 93.2946Z" fill="#202020"/>
<path d="M37.0179 214.944H339.334L298.876 170.571L0.58636 168.047L37.0179 214.944Z" fill="white"/>
<path d="M37.0179 215.48H339.334C339.439 215.482 339.542 215.453 339.629 215.395C339.716 215.338 339.784 215.255 339.823 215.158C339.868 215.063 339.882 214.955 339.865 214.852C339.848 214.747 339.8 214.651 339.728 214.574L299.222 170.214C299.173 170.157 299.113 170.112 299.045 170.081C298.977 170.05 298.903 170.034 298.829 170.035L0.538853 167.499C0.438156 167.5 0.33958 167.528 0.253775 167.58C0.167615 167.633 0.0974192 167.707 0.0502617 167.796C0.00913176 167.891 -0.00717681 167.994 0.00310566 168.096C0.0137427 168.198 0.0502722 168.296 0.10984 168.38L36.5293 215.277C36.5871 215.349 36.6623 215.406 36.7477 215.441C36.8332 215.476 36.926 215.49 37.0179 215.48ZM338.095 214.396H37.292L1.70646 168.594L298.626 171.119L338.095 214.396Z" fill="#202020"/>
<path d="M125.237 206.322L102.089 175.156H209.716L241.966 207.822L125.237 206.322Z" fill="white"/>
<path d="M241.966 208.418C242.082 208.42 242.197 208.387 242.294 208.323C242.392 208.26 242.468 208.168 242.513 208.061C242.559 207.952 242.573 207.832 242.552 207.715C242.53 207.599 242.476 207.491 242.394 207.406L210.133 174.74C210.08 174.682 210.015 174.637 209.943 174.606C209.871 174.575 209.794 174.56 209.716 174.561H102.053C101.943 174.561 101.834 174.592 101.74 174.65C101.646 174.708 101.57 174.791 101.521 174.89C101.471 174.989 101.45 175.1 101.46 175.21C101.47 175.32 101.511 175.425 101.577 175.514L124.761 206.667C124.814 206.742 124.884 206.802 124.965 206.846C125.045 206.889 125.134 206.913 125.225 206.918L241.977 208.418H241.966ZM209.466 175.752L240.524 207.215L125.535 205.727L103.245 175.752H209.466Z" fill="#202020"/>
<path d="M111.37 180.074L127.429 201.391H231.148L206.892 180.968L111.37 180.074Z" fill="white"/>
<path d="M127.429 201.987H231.148C231.272 201.989 231.394 201.952 231.496 201.881C231.598 201.811 231.675 201.71 231.717 201.593C231.759 201.476 231.764 201.349 231.73 201.23C231.696 201.111 231.626 201.005 231.529 200.927L207.285 180.503C207.175 180.42 207.042 180.374 206.904 180.372L111.382 179.479C111.271 179.475 111.161 179.503 111.066 179.56C110.971 179.617 110.894 179.701 110.846 179.801C110.788 179.896 110.757 180.005 110.757 180.116C110.757 180.228 110.788 180.337 110.846 180.432L126.905 201.749C126.966 201.829 127.045 201.892 127.137 201.934C127.228 201.976 127.329 201.994 127.429 201.987ZM229.516 200.796H127.727L112.573 180.682L206.69 181.552L229.516 200.796Z" fill="#507592"/>
<path d="M37.0299 214.944H339.334V224.507H37.0299V214.944Z" fill="white"/>
<path d="M37.0179 225.054H339.334C339.478 225.051 339.614 224.992 339.714 224.89C339.815 224.788 339.871 224.65 339.871 224.507V214.98C339.871 214.836 339.815 214.699 339.714 214.597C339.614 214.494 339.478 214.435 339.334 214.432H37.0179C36.8746 214.435 36.7381 214.494 36.6382 214.597C36.5378 214.699 36.4818 214.836 36.4818 214.98V224.507C36.4818 224.65 36.5378 224.788 36.6382 224.89C36.7381 224.992 36.8746 225.051 37.0179 225.054ZM338.786 223.959H37.5661V215.48H338.786V223.959Z" fill="#202020"/>
<path d="M154.258 196.116C150.124 197.152 144.728 193.043 142.548 190.018C142.244 189.517 141.812 189.106 141.297 188.828C140.944 188.708 140.572 188.66 140.2 188.685C137.85 188.647 135.509 188.388 133.207 187.911C130.967 187.434 128.442 186.505 127.68 184.338C126.917 182.171 128.132 179.801 129.871 178.384C133.827 175.049 139.533 175.228 144.62 174.299C146.694 173.728 148.85 173.518 150.994 173.679C152.991 174.115 154.738 175.311 155.867 177.014C157.109 178.426 158.527 179.675 160.084 180.729C162.348 182.508 164.579 184.31 166.78 186.136C163.205 189.149 159.631 193.281 155.605 195.663C155.178 195.874 154.726 196.027 154.258 196.116Z" fill="#FFF4CB"/>
<path d="M152.877 196.902C153.395 196.904 153.911 196.84 154.413 196.711C154.936 196.581 155.438 196.377 155.902 196.104C158.652 194.306 161.2 192.217 163.503 189.876C164.766 188.685 165.886 187.565 167.161 186.553C167.228 186.497 167.283 186.427 167.32 186.347C167.357 186.268 167.376 186.182 167.376 186.094C167.376 186.007 167.357 185.92 167.32 185.841C167.283 185.762 167.228 185.692 167.161 185.636C164.933 183.79 162.681 181.968 160.454 180.229L159.584 179.562C158.381 178.726 157.292 177.737 156.343 176.621C155.126 174.79 153.24 173.507 151.089 173.048C149.269 172.847 147.427 172.984 145.657 173.453L144.465 173.667C143.274 173.882 141.999 174.048 140.772 174.203C136.746 174.703 132.588 175.228 129.443 177.883C127.584 179.431 126.131 182.099 127.06 184.552C127.811 186.493 129.752 187.767 133.017 188.458C135.369 188.949 137.762 189.213 140.165 189.244C140.462 189.222 140.761 189.255 141.046 189.34C141.421 189.563 141.733 189.879 141.952 190.257L142.047 190.387C144.144 193.222 148.743 196.902 152.877 196.902ZM154.068 195.556C150.351 196.497 145.157 192.674 142.976 189.697L142.893 189.578C142.556 189.011 142.064 188.553 141.475 188.256C141.059 188.109 140.618 188.044 140.177 188.065C137.858 188.033 135.548 187.777 133.279 187.303C130.443 186.708 128.775 185.672 128.192 184.135C127.453 182.242 128.68 180.086 130.205 178.8C133.088 176.418 137.067 175.883 140.927 175.394C142.119 175.239 143.453 175.073 144.68 174.846L145.871 174.632C147.51 174.202 149.215 174.081 150.899 174.275C152.754 174.678 154.375 175.795 155.414 177.383C156.425 178.587 157.591 179.653 158.881 180.551L159.727 181.206C161.764 182.79 163.825 184.457 165.862 186.136C164.802 187.053 163.742 188.065 162.705 189.042C160.461 191.322 157.981 193.358 155.307 195.115C154.935 195.331 154.533 195.491 154.115 195.592L154.068 195.556Z" fill="#202020"/>
<path d="M318.95 230.819C318.95 230.819 323.787 128.569 297.673 114.731C289.548 110.42 224 107.478 208.524 120.494C193.049 133.511 191.762 186.422 191.762 186.422L162.979 179.61L151.459 200.475C151.459 200.475 193.859 219.958 201.972 223.733C215.839 230.175 318.95 230.819 318.95 230.819Z" fill="url(#paint0_linear)"/>
<path d="M231.148 186.672C231.226 186.665 231.302 186.642 231.372 186.605C231.441 186.568 231.503 186.517 231.553 186.457C231.603 186.396 231.64 186.325 231.662 186.25C231.685 186.174 231.692 186.095 231.684 186.017L226.383 127.926C226.368 127.768 226.292 127.622 226.17 127.52C226.048 127.419 225.891 127.37 225.733 127.384C225.575 127.398 225.429 127.474 225.328 127.596C225.226 127.718 225.177 127.875 225.191 128.033L230.552 186.184C230.578 186.323 230.651 186.448 230.761 186.537C230.87 186.627 231.007 186.675 231.148 186.672Z" fill="#202020"/>
<path d="M247.744 131.844H307.216C311.553 131.843 315.839 132.769 319.789 134.559C323.739 136.349 327.26 138.962 330.118 142.223C332.975 145.484 335.102 149.318 336.357 153.468C337.612 157.617 337.965 161.987 337.393 166.284L327.791 238.464H206.893L217.615 158.258C218.587 150.955 222.176 144.253 227.717 139.395C233.258 134.537 240.374 131.854 247.744 131.844Z" fill="#243D65"/>
<path d="M185.376 204.369C181.54 204.369 181.54 198.414 185.376 198.414C189.213 198.414 189.213 204.369 185.376 204.369Z" fill="#FFB319"/>
<path d="M184.519 204.369C180.683 204.369 180.671 198.414 184.519 198.414C188.367 198.414 188.355 204.369 184.519 204.369Z" fill="#FFE700"/>
<path d="M37.0179 224.507L0.58649 176.49V168.047L37.0179 214.944V224.507Z" fill="white"/>
<path d="M37.0178 225.055H37.1966C37.3054 225.021 37.4004 224.953 37.4671 224.86C37.5338 224.768 37.5682 224.657 37.5657 224.543V215.015C37.5682 214.894 37.5256 214.775 37.4465 214.682L1.01533 167.785C0.949378 167.693 0.856143 167.625 0.748708 167.591C0.641629 167.557 0.526025 167.558 0.419655 167.594C0.310802 167.632 0.216484 167.703 0.150179 167.797C0.0838752 167.891 0.0487792 168.003 0.0501974 168.118V176.562C0.0494883 176.682 0.0870732 176.798 0.157278 176.895L36.5293 224.84C36.5863 224.914 36.6612 224.972 36.7463 225.009C36.8317 225.047 36.9249 225.063 37.0178 225.055ZM36.4818 215.123V222.887L1.13446 176.311V169.631L36.4818 215.123Z" fill="#202020"/>
<path d="M41.0444 239C41.188 239 41.3255 238.944 41.428 238.843C41.5301 238.744 41.5893 238.607 41.5925 238.464V224.507C41.5893 224.362 41.5308 224.225 41.4287 224.123C41.3266 224.02 41.189 223.962 41.0444 223.959C40.9011 223.962 40.765 224.021 40.6646 224.124C40.5646 224.226 40.5082 224.364 40.5082 224.507V238.464C40.5082 238.606 40.565 238.742 40.6653 238.843C40.766 238.943 40.9022 239 41.0444 239Z" fill="#202020"/>
<path d="M192.775 16.8985H1.56328V119.16C1.56328 120.281 2.00896 121.357 2.80213 122.15C3.5953 122.943 4.67106 123.388 5.79291 123.388H188.546C189.667 123.388 190.743 122.943 191.536 122.15C192.329 121.357 192.775 120.281 192.775 119.16V16.8985Z" fill="white"/>
<path d="M5.80473 123.936H188.546C189.81 123.936 191.021 123.434 191.915 122.541C192.809 121.648 193.311 120.436 193.311 119.173V16.8988C193.311 16.7536 193.253 16.6142 193.151 16.5115C193.048 16.4088 192.908 16.351 192.763 16.351H1.55169C1.40738 16.3541 1.26946 16.4128 1.16734 16.5148C1.06523 16.6169 1.00671 16.7545 1.00352 16.8988V119.161C1.0021 119.79 1.12512 120.414 1.36622 120.996C1.60733 121.577 1.96119 122.105 2.4076 122.549C2.854 122.993 3.38409 123.345 3.96736 123.583C4.55027 123.821 5.17502 123.941 5.80473 123.936ZM192.239 17.4466V119.161C192.236 120.138 191.845 121.074 191.153 121.764C190.461 122.453 189.523 122.84 188.546 122.84H5.80473C4.82719 122.84 3.8897 122.453 3.19758 121.764C2.50511 121.074 2.11474 120.138 2.11154 119.161V17.4466H192.239Z" fill="#202020"/>
<path d="M188.545 0.524055H5.80455C4.68305 0.524055 3.60728 0.96947 2.81411 1.76231C2.02095 2.55515 1.57527 3.63048 1.57527 4.75172V17.1846H192.775V4.76363C192.776 4.20746 192.668 3.65642 192.456 3.14212C192.245 2.62781 191.933 2.16036 191.54 1.76652C191.148 1.37268 190.681 1.06021 190.167 0.847007C189.653 0.633802 189.102 0.524055 188.545 0.524055Z" fill="white"/>
<path d="M1.56319 17.7204H192.775C192.846 17.722 192.917 17.7094 192.983 17.6831C193.05 17.6569 193.11 17.6177 193.161 17.5678C193.212 17.5179 193.253 17.4582 193.281 17.3924C193.309 17.3266 193.323 17.2559 193.323 17.1845V4.76356C193.323 3.50018 192.821 2.28856 191.927 1.39522C191.033 0.501875 189.821 0 188.557 0H5.80453C4.54049 0 3.32857 0.501875 2.4347 1.39522C1.54119 2.28856 1.03913 3.50018 1.03913 4.76356V17.1845C1.04197 17.3237 1.09764 17.4566 1.19514 17.5561C1.29265 17.6557 1.4242 17.7144 1.56319 17.7204ZM192.179 16.6367H2.11134V4.72783C2.11134 3.74871 2.50031 2.80971 3.19314 2.11737C3.88561 1.42503 4.82486 1.03607 5.80453 1.03607H188.545C189.525 1.03607 190.464 1.42503 191.157 2.11737C191.85 2.80971 192.238 3.74871 192.238 4.72783L192.179 16.6367Z" fill="#202020"/>
<path d="M92.6422 30.2841H183.602V89.8407H92.6422V30.2841Z" fill="white"/>
<path d="M92.6538 90.4482H183.602C183.759 90.4482 183.911 90.3855 184.023 90.2738C184.135 90.1622 184.197 90.0108 184.197 89.8528V30.3083C184.197 30.1504 184.135 29.9989 184.023 29.8873C183.911 29.7756 183.759 29.7129 183.602 29.7129H92.6538C92.496 29.7129 92.3443 29.7756 92.2326 29.8873C92.1209 29.9989 92.0581 30.1504 92.0581 30.3083V89.8528C92.0581 90.0108 92.1209 90.1622 92.2326 90.2738C92.3443 90.3855 92.496 90.4482 92.6538 90.4482ZM183.006 89.2573H93.2495V30.9038H183.006V89.2573Z" fill="#507592"/>
<path d="M172.796 55.3524C170.973 55.3524 169.496 53.8755 169.496 52.0537C169.496 50.232 170.973 48.755 172.796 48.755C174.618 48.755 176.096 50.232 176.096 52.0537C176.096 53.8755 174.618 55.3524 172.796 55.3524Z" fill="white"/>
<path d="M172.796 55.9363C173.567 55.9363 174.32 55.7073 174.962 55.2792C175.602 54.8507 176.102 54.2418 176.396 53.5294C176.691 52.8173 176.767 52.0337 176.616 51.2777C176.465 50.522 176.092 49.8284 175.546 49.284C175 48.7399 174.305 48.3699 173.549 48.221C172.792 48.0722 172.008 48.1509 171.297 48.4475C170.585 48.7442 169.978 49.245 169.551 49.8872C169.124 50.5291 168.898 51.283 168.9 52.0539C168.903 53.0846 169.315 54.072 170.045 54.7997C170.776 55.5277 171.765 55.9363 172.796 55.9363ZM172.796 49.3506C173.331 49.3506 173.853 49.5091 174.298 49.8061C174.743 50.1031 175.09 50.5252 175.294 51.0193C175.499 51.5134 175.553 52.0567 175.448 52.5813C175.344 53.1055 175.086 53.5875 174.708 53.9653C174.33 54.3435 173.848 54.6008 173.323 54.7054C172.799 54.8096 172.255 54.7561 171.761 54.5516C171.267 54.3467 170.845 54.0004 170.547 53.5556C170.25 53.1111 170.091 52.5884 170.091 52.0539C170.091 51.3369 170.377 50.6493 170.884 50.1424C171.391 49.6352 172.079 49.3506 172.796 49.3506Z" fill="black"/>
<path d="M103.245 52.6493H162.574C162.731 52.6461 162.881 52.5826 162.992 52.4713C163.103 52.3604 163.167 52.2108 163.17 52.0538C163.17 51.8958 163.107 51.7444 162.995 51.6328C162.884 51.5211 162.732 51.4584 162.574 51.4584H103.245C103.087 51.4584 102.935 51.5211 102.824 51.6328C102.712 51.7444 102.649 51.8958 102.649 52.0538C102.649 52.2119 102.712 52.3632 102.824 52.4749C102.935 52.5865 103.087 52.6493 103.245 52.6493Z" fill="#005CFF"/>
<path d="M172.796 67.0233C170.973 67.0233 169.496 65.5464 169.496 63.7247C169.496 61.9029 170.973 60.426 172.796 60.426C174.618 60.426 176.096 61.9029 176.096 63.7247C176.096 65.5464 174.618 67.0233 172.796 67.0233Z" fill="white"/>
<path d="M172.796 67.607C173.567 67.607 174.32 67.378 174.962 66.9499C175.602 66.5214 176.102 65.9125 176.396 65.2001C176.691 64.488 176.767 63.7044 176.616 62.9484C176.465 62.1927 176.092 61.4991 175.546 60.9547C175 60.4106 174.305 60.0406 173.549 59.8917C172.792 59.7429 172.008 59.8216 171.297 60.1182C170.585 60.4149 169.978 60.9157 169.551 61.5579C169.124 62.1998 168.898 62.9537 168.9 63.7246C168.903 64.7552 169.315 65.7427 170.045 66.4703C170.776 67.1983 171.765 67.607 172.796 67.607ZM172.796 61.0213C173.331 61.0213 173.853 61.1797 174.298 61.4768C174.743 61.7738 175.09 62.1959 175.294 62.69C175.499 63.184 175.553 63.7274 175.448 64.252C175.344 64.7762 175.086 65.2582 174.708 65.636C174.33 66.0142 173.848 66.2715 173.323 66.3761C172.799 66.4803 172.255 66.4267 171.761 66.2222C171.267 66.0174 170.845 65.6711 170.547 65.2263C170.25 64.7818 170.091 64.259 170.091 63.7246C170.091 63.0075 170.377 62.3199 170.884 61.8131C171.391 61.3059 172.079 61.0213 172.796 61.0213Z" fill="black"/>
<path d="M117.41 64.32H162.538C162.696 64.32 162.848 64.2572 162.959 64.1456C163.071 64.0339 163.134 63.8826 163.134 63.7245C163.134 63.5664 163.071 63.4151 162.959 63.3035C162.848 63.1918 162.696 63.1291 162.538 63.1291H117.41C117.252 63.1291 117.101 63.1918 116.989 63.3035C116.877 63.4151 116.814 63.5664 116.814 63.7245C116.814 63.8826 116.877 64.0339 116.989 64.1456C117.101 64.2572 117.252 64.32 117.41 64.32Z" fill="#005CFF"/>
<path d="M172.796 78.694C170.973 78.694 169.496 77.2171 169.496 75.3953C169.496 73.5736 170.973 72.0967 172.796 72.0967C174.618 72.0967 176.096 73.5736 176.096 75.3953C176.096 77.2171 174.618 78.694 172.796 78.694Z" fill="white"/>
<path d="M172.796 79.2893C173.566 79.2893 174.319 79.0611 174.96 78.6333C175.601 78.2051 176.1 77.5969 176.395 76.8856C176.69 76.1739 176.767 75.3909 176.617 74.6356C176.466 73.88 176.095 73.186 175.55 72.6416C175.006 72.0968 174.312 71.7261 173.556 71.5758C172.8 71.4255 172.017 71.5028 171.305 71.7973C170.593 72.0922 169.985 72.5913 169.557 73.2317C169.128 73.8722 168.9 74.625 168.9 75.3952C168.903 76.4269 169.315 77.4158 170.045 78.1452C170.774 78.875 171.764 79.2861 172.796 79.2893ZM172.796 72.6919C173.331 72.6919 173.853 72.8504 174.298 73.1474C174.743 73.4444 175.089 73.8669 175.294 74.3606C175.499 74.8547 175.553 75.398 175.448 75.9226C175.344 76.4471 175.086 76.9288 174.708 77.3066C174.33 77.6848 173.848 77.9421 173.323 78.0467C172.799 78.1509 172.255 78.0974 171.761 77.8929C171.267 77.688 170.845 77.3417 170.547 76.8969C170.25 76.4525 170.091 75.93 170.091 75.3952C170.091 74.6782 170.377 73.9906 170.884 73.4837C171.391 72.9765 172.078 72.6919 172.796 72.6919Z" fill="black"/>
<path d="M109.583 75.9909H162.538C162.696 75.9909 162.848 75.9282 162.959 75.8165C163.071 75.7049 163.134 75.5535 163.134 75.3955C163.134 75.2377 163.071 75.086 162.959 74.9744C162.848 74.8627 162.696 74.8 162.538 74.8H109.583C109.425 74.8 109.273 74.8627 109.161 74.9744C109.05 75.086 108.987 75.2377 108.987 75.3955C108.987 75.5535 109.05 75.7049 109.161 75.8165C109.273 75.9282 109.425 75.9909 109.583 75.9909Z" fill="#005CFF"/>
<path d="M144.728 38.7159H176.096V43.5748H144.728V38.7159Z" fill="#005CFF"/>
<path d="M116.672 86.7208C117.863 85.2322 119.245 83.3268 120.472 81.8619C120.996 74.7166 122.605 70.6793 123.522 70.1675C124.832 69.4409 126.333 70.5843 127.715 71.1556C127.963 71.2768 128.242 71.3183 128.514 71.2747C128.72 71.1974 128.907 71.0755 129.062 70.9174C132.255 68.0951 135.09 62.7719 137.187 62.1885C138.592 61.7954 140.487 64.6415 137.544 67.8807C135.9 69.6911 132.6 73.0373 132.54 73.2517C132.481 73.4662 133.982 77.9437 134.196 79.7063C134.589 82.9337 125.059 93.3062 123.093 95.7475L116.672 86.7208Z" fill="#FFF4CB"/>
<path d="M123.093 96.343C123.182 96.344 123.269 96.3253 123.35 96.2884C123.43 96.2512 123.501 96.1966 123.558 96.1286C123.891 95.7117 124.427 95.0805 125.106 94.2947C129.967 88.6259 135.126 82.3858 134.78 79.6347C134.512 78.1543 134.142 76.694 133.672 75.2642C133.458 74.5617 133.231 73.7756 133.148 73.4183C133.482 73.0373 134.435 72.0368 135.292 71.1436C136.15 70.2504 137.27 69.0716 137.985 68.2855C140.046 66.0228 139.975 63.9033 139.176 62.6645C138.979 62.2747 138.658 61.9606 138.264 61.7714C137.87 61.5821 137.424 61.5275 136.996 61.6165C135.626 61.9858 134.184 63.8554 132.505 66.0228C131.348 67.6188 130.052 69.1092 128.633 70.4769C128.543 70.5684 128.438 70.6449 128.323 70.703C128.178 70.7002 128.035 70.6633 127.906 70.596C127.62 70.4769 127.322 70.3341 127.013 70.1792C125.821 69.5954 124.499 68.9883 123.2 69.6433C121.902 70.2983 120.377 74.6808 119.865 81.6234C119.221 82.3975 118.542 83.279 117.875 84.1601C117.208 85.0416 116.684 85.6725 116.171 86.3395C116.091 86.4437 116.048 86.5713 116.048 86.7028C116.048 86.8343 116.091 86.9619 116.171 87.0661L122.593 96.0931C122.644 96.1697 122.712 96.2324 122.794 96.276C122.875 96.3196 122.965 96.3426 123.057 96.343H123.093ZM137.449 62.7478C137.607 62.7716 137.758 62.8325 137.889 62.9254C138.019 63.0186 138.125 63.1416 138.199 63.2837C138.7 64.1173 138.724 65.6655 137.103 67.4876C136.388 68.2738 135.364 69.3456 134.423 70.322C132.04 72.8229 132.04 72.8704 131.968 73.0848C131.897 73.2993 131.968 73.597 132.529 75.5977C132.971 76.9676 133.33 78.3637 133.601 79.7776C133.899 82.1593 127.108 90.1383 124.201 93.5206L123.129 94.7711L117.422 86.7443C117.887 86.1609 118.375 85.5534 118.852 84.8867C119.555 83.9698 120.269 83.0408 120.937 82.243C121.021 82.1476 121.067 82.0247 121.068 81.8974C121.592 74.7521 123.224 71.0128 123.82 70.6913C124.415 70.3695 125.511 70.6913 126.524 71.251C126.846 71.4059 127.168 71.5725 127.489 71.7036C127.858 71.8868 128.279 71.9375 128.681 71.8464C128.987 71.7525 129.264 71.5849 129.491 71.358C130.964 69.9449 132.307 68.4024 133.505 66.7494C134.923 64.9272 136.376 63.0338 137.377 62.7599L137.449 62.7478Z" fill="#202020"/>
<path d="M117.541 83.0646C117.541 83.0646 96.8236 101.607 94.6912 101.297C91.1172 96.6886 78.4052 77.5985 78.4052 77.5985C75.1768 73.3471 65.8723 70.0601 52.565 71.8823C52.565 71.8823 23.0433 72.4894 17.3248 81.8737C14.0369 87.2806 11.2372 101.678 9.41441 122.959H107.903C115.933 110.824 129.574 94.64 129.574 94.64L117.541 83.0646Z" fill="url(#paint1_linear)"/>
<path d="M57.235 76.2883L56.5797 116.564L38.8524 74.0851L57.235 76.2883Z" fill="#202020"/>
<path d="M56.5799 117.112H56.699C56.8337 117.085 56.9546 117.012 57.0415 116.905C57.1284 116.799 57.1759 116.666 57.1755 116.528L57.8311 76.2526C57.8347 76.1055 57.7829 75.9626 57.6858 75.852C57.5883 75.7418 57.4532 75.672 57.3067 75.6571L38.9124 73.5014C38.8107 73.4866 38.7071 73.4997 38.6125 73.5397C38.5178 73.5794 38.4362 73.6446 38.3763 73.7279C38.3107 73.8109 38.2685 73.9098 38.2537 74.0143C38.2391 74.1189 38.2526 74.2256 38.2926 74.3234L56.02 116.802C56.0743 116.902 56.1558 116.984 56.2551 117.039C56.354 117.094 56.4668 117.119 56.5799 117.112ZM56.6398 76.7764L56.0321 113.694L39.8059 74.7877L56.6398 76.7764Z" fill="#202020"/>
<path d="M66.8253 32.2256L66.742 32.0708C64.9075 29.0221 60.7853 25.9615 57.4616 24.5206C49.6462 21.0908 39.7938 23.02 33.4559 28.5934C31.0714 30.5803 29.3986 33.2891 28.6905 36.3105C27.952 39.1686 26.2004 42.0863 25.6526 45.004C25.2473 47.1713 26.0337 49.3862 25.9621 51.6014C25.8075 56.3649 21.7924 60.0446 17.718 62.486C23.6748 67.9286 32.1571 69.6313 40.2228 70.1077C54.3389 70.9597 68.4773 68.8501 81.7292 63.915C79.6926 62.3204 78.0432 60.2857 76.9043 57.9638C75.7654 55.6415 75.1666 53.0917 75.1531 50.5058C75.1531 48.9219 75.3435 47.2071 74.45 45.9088C73.5565 44.6109 72.2343 44.2774 71.1621 43.3963C67.7309 40.6094 68.8031 35.715 66.8253 32.2256Z" fill="#2E485A"/>
<path d="M46.215 70.8817C58.3951 70.8803 70.477 68.7108 81.8959 64.475C81.9959 64.436 82.0838 64.3715 82.1508 64.2878C82.2179 64.2042 82.2615 64.1046 82.2774 63.9986C82.2905 63.8937 82.2767 63.787 82.237 63.6892C82.1973 63.5914 82.1335 63.5049 82.0508 63.4386C80.088 61.899 78.4977 59.9365 77.3982 57.6972C76.2987 55.4582 75.7186 52.9999 75.7009 50.5058V49.827C75.8824 48.3547 75.5949 46.8629 74.879 45.5636C74.289 44.8157 73.5455 44.2025 72.6988 43.7652C72.2857 43.5157 71.8879 43.2413 71.5074 42.9436C69.6608 41.4192 69.2559 39.1923 68.8269 36.8222C68.6088 35.1219 68.1138 33.4685 67.3615 31.9278L66.8494 32.2255L67.3377 31.8921V31.7611C65.4198 28.5695 61.0831 25.4374 57.8069 23.9726C50.0036 20.5429 39.8654 22.2578 33.1697 28.1527C30.6839 30.2123 28.9288 33.019 28.1661 36.1555C27.797 37.4648 27.335 38.7461 26.7843 39.9901C26.0677 41.5656 25.5129 43.2094 25.1281 44.8965C24.9509 46.2271 24.9831 47.5774 25.2235 48.8981C25.3664 49.7838 25.4341 50.6801 25.426 51.5776C25.2831 56.3411 21.018 59.9138 17.4681 61.9741C17.3862 62.0195 17.3174 62.0847 17.2674 62.1637C17.2174 62.2428 17.1879 62.3331 17.1819 62.4264C17.1716 62.5189 17.1833 62.6128 17.2167 62.6996C17.2496 62.7868 17.3032 62.8644 17.3727 62.9268C22.4834 67.595 29.7506 70.0722 40.2466 70.703C42.1527 70.8221 44.1897 70.8817 46.215 70.8817ZM80.5021 63.7363C67.5987 68.3557 53.8914 70.3086 40.2108 69.4767C30.4059 68.8813 23.5319 66.6661 18.6594 62.5338C22.3047 60.2232 26.3553 56.5793 26.5102 51.5776C26.5173 50.6167 26.4454 49.6565 26.2957 48.7074C26.0773 47.5292 26.0411 46.3242 26.1887 45.1347C26.5659 43.5316 27.0967 41.9682 27.7732 40.4665C28.3483 39.1728 28.8302 37.8394 29.2145 36.477C29.9113 33.5694 31.5387 30.9686 33.8491 29.0697C40.2107 23.4725 49.8249 21.841 57.2233 25.0921C60.3445 26.4735 64.4426 29.427 66.2297 32.4042L66.2892 32.5113L66.8253 32.2493L66.3134 32.559C67.0016 33.9805 67.4522 35.5051 67.6476 37.0724C68.0883 39.5375 68.5648 42.0979 70.7451 43.8963C71.1709 44.2341 71.6209 44.5407 72.0914 44.8132C72.7899 45.1762 73.4093 45.6741 73.9139 46.2781C74.4769 47.379 74.6889 48.6259 74.5216 49.8508V50.5533C74.5464 53.0421 75.091 55.4986 76.121 57.7645C77.1507 60.0308 78.6431 62.0567 80.5021 63.7126V63.7363Z" fill="#202020"/>
<path d="M61.3334 51.1009C61.6167 50.138 62.0996 49.2451 62.751 48.481C63.0786 48.1017 63.5176 47.8356 64.0051 47.7204C64.493 47.6048 65.0046 47.6459 65.4673 47.838C65.8049 48.0209 66.091 48.2861 66.2992 48.6086C66.5076 48.9311 66.631 49.3008 66.6587 49.6839C66.7034 50.4406 66.5771 51.1977 66.2892 51.8988C65.8708 53.247 65.1308 54.473 64.1331 55.4714C63.6374 55.9659 63.0453 56.3529 62.3936 56.6092C61.7419 56.8651 61.0444 56.9845 60.3445 56.9601" fill="#FFF4CB"/>
<path d="M60.5828 57.5678C62.0514 57.5309 63.4519 56.9394 64.5022 55.9122C65.5599 54.8493 66.3519 53.5517 66.8136 52.1251C67.1189 51.3369 67.2529 50.4923 67.2065 49.6484C67.1802 49.1607 67.0324 48.6871 66.7764 48.2714C66.5207 47.8553 66.1648 47.5097 65.741 47.2666C65.1624 47.0252 64.5228 46.9689 63.9108 47.1053C63.2984 47.2418 62.7435 47.5643 62.3219 48.0286C61.61 48.848 61.082 49.8103 60.7732 50.8509C60.7445 50.9243 60.7306 51.003 60.7328 51.0817C60.7345 51.1607 60.7519 51.2383 60.7842 51.3103C60.8164 51.3822 60.8625 51.4471 60.92 51.5013C60.9774 51.5552 61.0448 51.5974 61.1189 51.625C61.2692 51.6761 61.433 51.6672 61.5773 51.6009C61.7213 51.5343 61.8344 51.4152 61.8933 51.2678C62.1507 50.3951 62.5847 49.5846 63.1679 48.886C63.4168 48.606 63.7434 48.4064 64.1065 48.3129C64.4695 48.2196 64.8518 48.2367 65.2053 48.3621C65.4404 48.5096 65.6375 48.7105 65.7804 48.9484C65.9229 49.1865 66.0077 49.4548 66.0272 49.7316C66.052 50.4037 65.9343 51.0732 65.6818 51.6966C65.289 52.9442 64.6025 54.0795 63.6803 55.0074C63.2495 55.4508 62.7322 55.8013 62.1606 56.037C61.5887 56.2727 60.9746 56.3882 60.3562 56.3769C60.2009 56.3698 60.0488 56.423 59.9314 56.5247C59.8141 56.6268 59.74 56.77 59.7251 56.9245C59.7183 57.0028 59.7276 57.0815 59.7513 57.1563C59.7754 57.2311 59.8141 57.3002 59.8651 57.3601C59.9158 57.42 59.9783 57.4689 60.0485 57.5047C60.1183 57.5401 60.1945 57.5618 60.2729 57.5678H60.5828Z" fill="#202020"/>
<path d="M56.0557 64.4392L57.247 76.3481C57.247 76.3481 56.6751 83.1004 49.265 81.7546C47.0748 81.3378 45.0052 80.4386 43.2061 79.1226C41.407 77.8062 39.9239 76.1057 38.8644 74.1449L37.7206 53.4709C37.7206 52.5898 40.8777 48.9693 40.02 41.4429C42.5619 41.181 45.0215 40.3938 47.2425 39.131C49.4639 37.8681 51.3981 36.1573 52.9224 34.1071C52.9224 34.1071 56.3652 38.3587 57.8069 39.6687C58.9593 40.6433 59.9843 41.7598 60.8569 42.9911C63.1442 46.4447 63.3825 51.2082 62.8343 55.1502C62.3936 58.4369 60.1775 64.5104 56.0557 64.4392Z" fill="#FFF4CB"/>
<path d="M51.0995 82.469C52.5792 82.5165 54.0315 82.0631 55.2217 81.1827C56.6812 79.9667 57.6155 78.2349 57.8307 76.3479L56.6989 64.9987C60.6662 64.4986 62.9297 58.8656 63.4421 55.2334C63.859 52.3274 64.1328 46.8255 61.3689 42.6574C60.4726 41.3839 59.4156 40.231 58.2239 39.2276C56.8301 37.9534 53.4585 33.7735 53.4585 33.7378C53.3954 33.6673 53.3184 33.6108 53.2323 33.5718C53.1461 33.5328 53.0525 33.5123 52.9582 33.5115C52.8649 33.5192 52.7749 33.5478 52.6944 33.5952C52.6139 33.6427 52.5451 33.7077 52.4933 33.7854C51.0091 35.7662 49.132 37.4196 46.9798 38.6431C44.8276 39.8663 42.4463 40.6329 39.9842 40.8948C39.8253 40.9165 39.6806 40.9973 39.5792 41.1213C39.4828 41.2471 39.436 41.4038 39.4481 41.5619C39.9554 45.1764 39.3268 48.8593 37.6493 52.1013C37.3806 52.54 37.21 53.0316 37.1487 53.5424L38.2688 74.1685C38.2517 74.243 38.2517 74.3202 38.2688 74.3947C39.363 76.4443 40.9043 78.2215 42.7789 79.5942C44.6535 80.9672 46.8135 81.9008 49.098 82.3261C49.7589 82.4385 50.4294 82.4863 51.0995 82.469ZM56.6393 76.3479C56.5617 77.1812 56.2972 77.9861 55.8649 78.7031C55.4327 79.4198 54.8445 80.0301 54.1435 80.488C53.4425 80.946 52.6476 81.2398 51.8172 81.3475C50.9868 81.4556 50.1429 81.3748 49.3483 81.1115C47.2773 80.7124 45.3183 79.8664 43.6082 78.6322C41.8981 77.3981 40.4784 75.8056 39.4481 73.9661C39.3527 72.2511 38.3521 53.6136 38.34 53.4708C38.4499 53.1777 38.5772 52.8913 38.7215 52.6134C40.4004 49.3445 41.0879 45.6566 40.699 42.0024C45.5179 41.3563 49.9075 38.8941 52.9699 35.1192C53.9825 36.3099 56.2819 39.0968 57.4257 40.1449C58.5292 41.0625 59.5138 42.1148 60.3563 43.2766C62.8939 47.1233 62.6319 52.2919 62.2387 55.031C61.8455 57.77 59.856 63.8078 56.1032 63.8078H56.0199C55.9387 63.8057 55.8582 63.822 55.7841 63.8549C55.7096 63.8879 55.6437 63.9368 55.5909 63.9981C55.5309 64.0584 55.4856 64.1317 55.4586 64.2122C55.4317 64.293 55.4242 64.3788 55.4359 64.4628L56.6273 76.3717L56.6393 76.3479Z" fill="#202020"/>
<path d="M51.0996 44.063C51.0996 44.063 55.448 49.4103 54.6736 50.4821C53.8992 51.5539 51.2545 51.1371 51.2545 51.1371" fill="#FFF4CB"/>
<path d="M52.3268 51.8156C52.8327 51.8662 53.3437 51.8049 53.8234 51.6362C54.3031 51.4675 54.74 51.1953 55.1027 50.8391C56.0199 49.6482 53.6731 46.2896 51.5286 43.6938C51.4304 43.5708 51.2875 43.4921 51.1312 43.474C50.9748 43.4563 50.8181 43.5009 50.6947 43.5984C50.5727 43.7005 50.4958 43.8462 50.4805 44.0042C50.4649 44.162 50.5117 44.32 50.6114 44.4437C52.6246 46.9209 54.2567 49.5887 54.1138 50.1721C53.6848 50.72 52.0169 50.6722 51.2904 50.5531C51.212 50.5407 51.1322 50.5435 51.0549 50.5619C50.978 50.5804 50.9053 50.6137 50.8411 50.6601C50.777 50.7065 50.7227 50.7654 50.6812 50.8327C50.6397 50.9001 50.6117 50.9752 50.5993 51.0532C50.5869 51.1315 50.5898 51.2112 50.6082 51.2885C50.6266 51.3654 50.66 51.4381 50.7064 51.5022C50.7528 51.5664 50.8114 51.6206 50.8791 51.6621C50.9464 51.7036 51.0216 51.7316 51.0996 51.744C51.5067 51.7939 51.9165 51.8177 52.3268 51.8156Z" fill="#202020"/>
<path d="M55.9125 45.4913C55.8217 44.8132 56.0391 44.2249 56.3976 44.1767C56.7564 44.1288 57.1205 44.6396 57.2113 45.3176C57.3021 45.9956 57.0851 46.584 56.7262 46.6318C56.3674 46.68 56.0033 46.1693 55.9125 45.4913Z" fill="#202020"/>
<path d="M45.0084 45.1358C45.0006 44.4518 45.2875 43.8939 45.6491 43.8897C46.0112 43.8854 46.3111 44.4365 46.3189 45.1202C46.3271 45.8043 46.0402 46.3622 45.6782 46.3664C45.3165 46.3707 45.0166 45.8195 45.0084 45.1358Z" fill="#202020"/>
<path d="M41.1759 48.934C40.9128 47.9175 40.46 46.9598 39.8413 46.1113C39.491 45.6239 39.0294 45.2273 38.495 44.9537C37.9603 44.6804 37.3682 44.5383 36.7679 44.5394C36.3985 44.5571 36.0375 44.6571 35.7117 44.8321C35.3862 45.0076 35.1036 45.2532 34.8855 45.5516C34.62 45.9812 34.4569 46.4661 34.409 46.969C34.0158 49.6127 34.8972 53.0426 37.3753 54.4C37.7937 54.6659 38.2794 54.8073 38.7751 54.8073C39.2712 54.8073 39.7566 54.6659 40.175 54.4" fill="#FFF4CB"/>
<path d="M38.912 55.4238C39.4864 55.4359 40.0484 55.2558 40.5086 54.9116C40.5756 54.8659 40.6331 54.8071 40.6767 54.7387C40.7203 54.6699 40.7494 54.593 40.7625 54.5129C40.7753 54.4328 40.7714 54.3506 40.7515 54.2719C40.7313 54.1932 40.6955 54.1191 40.6455 54.055C40.5958 53.9905 40.5334 53.937 40.4625 53.8976C40.3913 53.8583 40.3129 53.8342 40.232 53.826C40.1509 53.8182 40.0693 53.8271 39.992 53.8519C39.9144 53.8767 39.8431 53.9171 39.7818 53.971C39.4506 54.1546 39.0747 54.2432 38.6961 54.2262C38.3174 54.2095 37.9511 54.0879 37.6373 53.8756C35.3975 52.6848 34.5994 49.5168 34.9568 47.0518C34.9958 46.6318 35.1259 46.2256 35.338 45.8609C35.5039 45.6386 35.717 45.4558 35.9623 45.326C36.2077 45.1963 36.4786 45.1226 36.7559 45.1105C37.2629 45.1127 37.7618 45.236 38.2117 45.4699C38.6613 45.7042 39.0485 46.0423 39.341 46.4563C39.8931 47.2506 40.2969 48.1381 40.5324 49.0763C40.5792 49.2262 40.6824 49.352 40.8199 49.4275C40.9579 49.503 41.1192 49.5222 41.2709 49.481C41.3475 49.4594 41.4188 49.4226 41.4805 49.3726C41.5425 49.323 41.594 49.2613 41.6315 49.1915C41.6695 49.1216 41.6929 49.0447 41.7003 48.9657C41.7081 48.8867 41.6996 48.8069 41.6759 48.7311C41.3904 47.6444 40.9011 46.6222 40.2345 45.718C39.825 45.1563 39.2868 44.7008 38.6649 44.39C38.043 44.0791 37.3554 43.9221 36.6605 43.9317C36.1925 43.9427 35.7336 44.0625 35.3199 44.2815C34.9064 44.5006 34.5494 44.8132 34.2778 45.1938C33.9668 45.6968 33.7715 46.2621 33.7059 46.8494C33.2889 49.7313 34.2778 53.411 36.9821 54.8996C37.5692 55.2384 38.2341 55.4188 38.912 55.4238Z" fill="#202020"/>
<path d="M78.453 119.684C78.6069 119.681 78.7537 119.619 78.8625 119.51C78.9714 119.401 79.0338 119.255 79.0366 119.101C79.0366 118.22 74.5453 94.2589 73.6518 89.4596C73.622 89.3015 73.5302 89.1619 73.3972 89.0715C73.2646 88.9811 73.1012 88.9471 72.943 88.9772C72.7849 89.0073 72.6455 89.0988 72.5551 89.2317C72.4643 89.3646 72.4307 89.528 72.4604 89.6857C74.5811 101.035 77.774 118.267 77.8215 119.113C77.8247 119.192 77.8435 119.27 77.8772 119.342C77.9105 119.414 77.958 119.478 78.0169 119.531C78.0758 119.584 78.1445 119.626 78.2197 119.652C78.2945 119.678 78.3739 119.689 78.453 119.684Z" fill="#202020"/>
<path d="M30.668 121.566C30.8261 121.566 30.9775 121.504 31.0892 121.392C31.2009 121.28 31.2637 121.129 31.2637 120.971V88.4121C31.2637 88.254 31.2009 88.1026 31.0892 87.991C30.9775 87.8793 30.8261 87.8166 30.668 87.8166C30.5102 87.8166 30.3585 87.8793 30.2468 87.991C30.1351 88.1026 30.0723 88.254 30.0723 88.4121V120.971C30.0723 121.129 30.1351 121.28 30.2468 121.392C30.3585 121.504 30.5102 121.566 30.668 121.566Z" fill="#202020"/>
<path d="M46.8941 52.6729L56.5798 53.5898C56.5798 53.5898 56.5798 60.497 52.4817 60.0447C48.3833 59.5921 47.2515 56.9363 46.8941 52.6729Z" fill="white"/>
<path d="M52.8629 60.6641C53.6855 60.6729 54.4811 60.3709 55.0906 59.8184C57.14 57.9966 57.1755 53.769 57.1755 53.5903C57.179 53.4411 57.1255 53.2965 57.0259 53.1859C56.9262 53.0753 56.788 53.0069 56.6397 52.9949L46.954 52.0897C46.8671 52.0808 46.7796 52.0911 46.697 52.1201C46.6147 52.1488 46.5399 52.1953 46.4775 52.2562C46.4165 52.3169 46.369 52.3895 46.3381 52.4696C46.3073 52.5494 46.2938 52.6351 46.2988 52.7209C46.5725 56.508 47.4901 60.0924 52.4101 60.6403L52.8629 60.6641ZM55.9604 54.1262C55.8891 55.2455 55.5792 57.7939 54.2925 58.8898C54.0596 59.1003 53.7826 59.2566 53.482 59.3473C53.1809 59.4377 52.8639 59.4604 52.5533 59.4136C49.3605 59.0684 47.9667 57.3891 47.5497 53.3043L55.9604 54.1262Z" fill="#202020"/>
<path d="M56.0558 64.4392C52.1747 64.52 48.318 63.8026 44.7259 62.3314C44.7259 62.3314 51.4095 70.3936 56.5798 73.3829L56.0558 64.4392Z" fill="#202020"/>
<path d="M56.5799 73.9784C56.6614 73.9784 56.7419 73.9621 56.8163 73.9298C56.8912 73.8975 56.9585 73.8504 57.0142 73.7916C57.0702 73.7324 57.1131 73.6622 57.1411 73.586C57.1688 73.5094 57.1805 73.4283 57.1755 73.3471L56.6394 64.4034C56.6419 64.324 56.627 64.2453 56.5958 64.1723C56.565 64.0993 56.5181 64.0337 56.4593 63.9805C56.4004 63.9274 56.3306 63.8873 56.2547 63.8639C56.1788 63.8402 56.0987 63.8335 56.02 63.8437C52.2339 63.9065 48.4737 63.2058 44.9642 61.7834C44.8422 61.7225 44.7025 61.7058 44.5696 61.737C44.4366 61.7682 44.3185 61.8451 44.2366 61.9543C44.1544 62.0631 44.1129 62.1978 44.1196 62.3339C44.1263 62.4703 44.181 62.6 44.2735 62.7007C44.5472 63.0339 51.0759 70.8937 56.282 73.8947C56.3738 73.9443 56.4756 73.973 56.5799 73.9784ZM55.4839 65.0467L55.9246 72.2633C52.5505 69.7596 49.4623 66.8918 46.7158 63.7129C49.5594 64.5756 52.5122 65.0247 55.4839 65.0467Z" fill="#202020"/>
<path d="M61.226 100.44C61.3069 100.44 61.387 100.423 61.4611 100.39C61.5348 100.357 61.6012 100.309 61.6551 100.249L69.4105 92.1034C69.4687 92.041 69.5126 91.9669 69.5392 91.8861C69.5662 91.8053 69.5754 91.7195 69.5665 91.6352C69.5573 91.5505 69.5304 91.4686 69.4871 91.3952C69.4435 91.3222 69.385 91.2588 69.3155 91.2102L62.2507 86.3751L69.3272 81.1235C69.4034 81.0682 69.4655 80.9955 69.5084 80.9119C69.5513 80.8279 69.5736 80.735 69.5736 80.6411C69.5736 80.5468 69.5513 80.4539 69.5084 80.3703C69.4655 80.2863 69.4034 80.214 69.3272 80.1587L60.6424 74.2042C60.5782 74.1546 60.5052 74.1188 60.4268 74.0983C60.3485 74.0781 60.2669 74.0742 60.1871 74.0862C60.1074 74.0986 60.0308 74.127 59.962 74.1695C59.8936 74.2124 59.8343 74.2687 59.7883 74.335C59.7422 74.4013 59.7099 74.4764 59.6939 74.5555C59.6776 74.6345 59.6776 74.7164 59.6939 74.7954C59.7102 74.8745 59.7429 74.9496 59.789 75.0159C59.8354 75.0822 59.8946 75.1382 59.9634 75.1807L67.9692 80.6946L60.8807 85.9583C60.802 86.0118 60.7385 86.0851 60.6967 86.1709C60.6548 86.2563 60.636 86.3513 60.6424 86.4467C60.642 86.5417 60.6658 86.6352 60.7115 86.7185C60.7576 86.8022 60.8239 86.8723 60.9044 86.923L68.0525 91.8294L60.7853 99.4632C60.7293 99.5185 60.6849 99.5844 60.6548 99.6567C60.6247 99.7294 60.6091 99.8073 60.6091 99.8857C60.6091 99.9643 60.6247 100.042 60.6548 100.115C60.6849 100.187 60.7293 100.253 60.7853 100.308C60.9098 100.407 61.0679 100.454 61.226 100.44Z" fill="#202020"/>
<path d="M46.4058 100.987C46.5093 100.985 46.6111 100.957 46.7004 100.905C46.7901 100.853 46.8649 100.779 46.9181 100.689C46.9582 100.623 46.9848 100.548 46.9958 100.471C47.0068 100.394 47.0022 100.315 46.9823 100.239C46.9621 100.164 46.9273 100.093 46.8795 100.031C46.8316 99.9696 46.7717 99.9179 46.7036 99.8796L35.4691 93.1752L41.6162 86.1489C41.679 86.0809 41.7248 85.999 41.7496 85.91C41.7744 85.8211 41.7779 85.7272 41.7595 85.6368C41.7411 85.5443 41.701 85.4574 41.6432 85.383C41.5854 85.3086 41.5109 85.2487 41.4258 85.2079L33.7416 81.6352L38.1855 76.8717C38.2411 76.8164 38.2854 76.7505 38.3156 76.6778C38.3461 76.6055 38.3617 76.5275 38.3617 76.4488C38.3617 76.3705 38.3461 76.2925 38.3156 76.2199C38.2854 76.1476 38.2411 76.0816 38.1855 76.0264C38.072 75.9165 37.9202 75.8548 37.7625 75.8548C37.6047 75.8548 37.4529 75.9165 37.3395 76.0264L32.3478 81.4449C32.284 81.5144 32.2379 81.5984 32.2131 81.6895C32.1883 81.7806 32.1854 81.8763 32.2046 81.9688C32.2212 82.0606 32.2603 82.1467 32.3188 82.2193C32.3769 82.2924 32.4524 82.3494 32.5382 82.3856L40.2345 85.9582L34.1349 92.8775C34.0764 92.943 34.0331 93.021 34.0086 93.1054C33.9838 93.1897 33.9781 93.2787 33.9916 93.3655C34.0051 93.452 34.0377 93.5342 34.0874 93.6065C34.1366 93.6788 34.2019 93.7387 34.2778 93.7823L46.0601 100.904C46.1664 100.961 46.2852 100.99 46.4058 100.987Z" fill="#202020"/>
<path d="M125.511 81.9453C125.655 81.9449 125.794 81.8942 125.905 81.8024C126.906 80.9645 127.549 79.7761 127.703 78.48C128.155 78.9748 128.727 79.3448 129.363 79.5532C130 79.762 130.68 79.8024 131.337 79.6709C131.628 79.6315 131.901 79.5114 132.127 79.3242C132.352 79.1367 132.52 78.8893 132.612 78.6108C133.303 76.4317 129.037 71.6681 128.156 70.7392C128.101 70.6832 128.035 70.6389 127.962 70.6088C127.89 70.5786 127.812 70.563 127.733 70.563C127.654 70.563 127.577 70.5786 127.504 70.6088C127.431 70.6389 127.366 70.6832 127.31 70.7392C127.254 70.7945 127.21 70.8604 127.18 70.9327C127.149 71.0054 127.134 71.0833 127.134 71.162C127.134 71.2403 127.149 71.3183 127.18 71.391C127.21 71.4633 127.254 71.5292 127.31 71.5845C129.574 73.9663 131.813 77.277 131.492 78.2893C131.492 78.3488 131.432 78.48 131.111 78.5395C129.395 78.9205 128.144 77.3486 127.465 76.1577C127.307 75.6785 127.087 75.222 126.81 74.7999C126.727 74.6812 126.605 74.5965 126.464 74.5614C126.324 74.5263 126.176 74.5433 126.047 74.6096C125.918 74.6737 125.817 74.7829 125.762 74.9169C125.707 75.0505 125.702 75.1994 125.75 75.3358C125.918 75.7799 126.121 76.2098 126.357 76.622C126.623 77.3745 126.651 78.19 126.438 78.9592C126.225 79.7279 125.781 80.413 125.166 80.9213C125.056 81.0344 124.994 81.1861 124.994 81.3441C124.994 81.5019 125.056 81.6536 125.166 81.7666C125.258 81.8627 125.38 81.9254 125.511 81.9453Z" fill="#202020"/>
<defs>
<linearGradient id="paint0_linear" x1="319.304" y1="111.071" x2="143.28" y2="124.628" gradientUnits="userSpaceOnUse">
<stop stop-color="#00DADA"/>
<stop offset="1" stop-color="#005CFF"/>
</linearGradient>
<linearGradient id="paint1_linear" x1="129.574" y1="71.3684" x2="4.8545" y2="87.3302" gradientUnits="userSpaceOnUse">
<stop stop-color="#00DADA"/>
<stop offset="1" stop-color="#005CFF"/>
</linearGradient>
</defs>
</svg>
